<svg width="254" height="254" viewBox="0 0 254 254" fill="none" xmlns="http://www.w3.org/2000/svg">
<path d="M254 194.259H0V194.386H254V194.259Z" fill="#EBEBEB"/>
<path d="M228.549 202.433H211.724V202.56H228.549V202.433Z" fill="#EBEBEB"/>
<path d="M168.26 203.815H163.845V203.942H168.26V203.815Z" fill="#EBEBEB"/>
<path d="M211.216 197.719H201.468V197.846H211.216V197.719Z" fill="#EBEBEB"/>
<path d="M48.5904 198.572H26.6499V198.699H48.5904V198.572Z" fill="#EBEBEB"/>
<path d="M56.3323 198.572H53.1167V198.699H56.3323V198.572Z" fill="#EBEBEB"/>
<path d="M114.376 200.716H66.7866V200.843H114.376V200.716Z" fill="#EBEBEB"/>
<path d="M120.396 171.602H22.3062C21.5378 171.601 20.8013 171.295 20.2584 170.751C19.7156 170.207 19.4106 169.47 19.4106 168.702V30.8153C19.4173 30.0513 19.7252 29.3207 20.2674 28.7824C20.8095 28.244 21.5422 27.9413 22.3062 27.94H120.396C121.165 27.94 121.903 28.2456 122.447 28.7896C122.991 29.3336 123.297 30.0714 123.297 30.8407V168.702C123.297 169.471 122.991 170.209 122.447 170.753C121.903 171.297 121.165 171.602 120.396 171.602ZM22.3062 28.0416C21.5715 28.0429 20.8673 28.3358 20.3482 28.8558C19.8292 29.3758 19.5376 30.0805 19.5376 30.8153V168.702C19.5376 169.436 19.8292 170.141 20.3482 170.661C20.8673 171.181 21.5715 171.474 22.3062 171.475H120.396C121.131 171.474 121.836 171.181 122.356 170.662C122.876 170.142 123.168 169.437 123.17 168.702V30.8153C123.168 30.0801 122.876 29.3754 122.356 28.8555C121.836 28.3356 121.131 28.0429 120.396 28.0416H22.3062Z" fill="#EBEBEB"/>
<path d="M230.282 171.602H132.187C131.418 171.601 130.681 171.295 130.137 170.751C129.594 170.208 129.287 169.471 129.286 168.702V30.8153C129.294 30.0508 129.603 29.3203 130.146 28.7821C130.689 28.2438 131.422 27.9413 132.187 27.94H230.282C231.045 27.9426 231.776 28.2459 232.317 28.7842C232.858 29.3224 233.165 30.0521 233.172 30.8153V168.702C233.172 169.469 232.868 170.206 232.326 170.749C231.784 171.293 231.049 171.6 230.282 171.602ZM132.187 28.0416C131.452 28.0429 130.747 28.3356 130.227 28.8555C129.707 29.3754 129.414 30.0801 129.413 30.8153V168.702C129.414 169.437 129.707 170.142 130.227 170.662C130.747 171.181 131.452 171.474 132.187 171.475H230.282C231.017 171.474 231.722 171.181 232.241 170.662C232.761 170.142 233.054 169.437 233.055 168.702V30.8153C233.054 30.0801 232.761 29.3754 232.241 28.8555C231.722 28.3356 231.017 28.0429 230.282 28.0416H132.187Z" fill="#EBEBEB"/>
<path d="M233.898 192.268V158.491H217.632V149.261H209.845V122.118L199.781 112.055H179.365V141.138H151.348V146.888H131.536V139.339H110.256V133.65H93.6395V99.9541H64.2263V121.427H57.4547V129.205H41.7118V141.956H33.2993L26.8223 148.433V155.016H20.3809V192.268H233.898Z" fill="#F0F0F0"/>
<path d="M214.086 158.491H217.353L217.632 158.303V158.491H233.898V192.268H214.086V158.491Z" fill="#E6E6E6"/>
<path d="M179.847 149.062H183.114L183.393 148.819V149.062H199.664V192.268H179.847V149.062Z" fill="#E6E6E6"/>
<path d="M131.257 141.793V146.888H132.06L132.913 152.334L130.5 192.268H103.663V139.339H109.977H130.871L131.257 141.793Z" fill="#E6E6E6"/>
<path d="M68.7781 129.205V192.268H20.1016V155.016L26.543 155.285V141.971L33.02 141.956H41.4325V129.205H55.7174H57.1703H68.7781Z" fill="#E6E6E6"/>
<path d="M32.9893 148.326H35.9307V145.385H32.9893V148.326Z" fill="white"/>
<path d="M38.1861 148.326H41.1274V145.385H38.1861V148.326Z" fill="white"/>
<path d="M32.9893 153.807H35.9307V150.866H32.9893V153.807Z" fill="white"/>
<path d="M38.1861 153.807H41.1274V150.866H38.1861V153.807Z" fill="white"/>
<path d="M49.0474 134.518H51.9888V131.577H49.0474V134.518Z" fill="white"/>
<path d="M54.2442 134.518H57.1855V131.577H54.2442V134.518Z" fill="white"/>
<path d="M217.495 166.192H220.437V163.251H217.495V166.192Z" fill="white"/>
<path d="M222.692 166.192H225.633V163.251H222.692V166.192Z" fill="white"/>
<path d="M109.992 150.922V147.98H107.051V150.922H109.992Z" fill="white"/>
<path d="M109.992 145.725V142.784H107.051V145.725H109.992Z" fill="white"/>
<path d="M58.0235 148.326H60.9648V145.385H58.0235V148.326Z" fill="white"/>
<path d="M63.2208 148.326H66.1621V145.385H63.2208V148.326Z" fill="white"/>
<path d="M198.191 127.015H201.132V124.074H198.191V127.015Z" fill="white"/>
<path d="M203.393 127.015H206.334V124.074H203.393V127.015Z" fill="white"/>
<path d="M203.393 132.497H206.334V129.555H203.393V132.497Z" fill="white"/>
<path d="M227.696 103.668C227.744 103.37 227.77 103.07 227.772 102.768C227.773 102.015 227.626 101.269 227.339 100.572C227.051 99.876 226.629 99.2431 226.097 98.7099C225.565 98.1767 224.933 97.7537 224.237 97.4651C223.541 97.1765 222.795 97.028 222.042 97.028C221.73 97.0294 221.419 97.0566 221.112 97.1093C220.456 96.0132 219.493 95.1334 218.343 94.5788C217.192 94.0242 215.904 93.8191 214.638 93.9888C213.372 94.1586 212.184 94.6957 211.22 95.5338C210.256 96.3719 209.559 97.4743 209.215 98.7044C208.806 98.5754 208.379 98.5102 207.95 98.5113C207.392 98.512 206.839 98.6227 206.324 98.837C205.808 99.0514 205.34 99.3652 204.947 99.7606C204.553 100.156 204.24 100.625 204.028 101.141C203.815 101.657 203.707 102.21 203.708 102.768C203.709 103.071 203.741 103.372 203.805 103.668H227.696Z" fill="#F0F0F0"/>
<path d="M46.2281 113.345C46.2625 113.132 46.2812 112.916 46.284 112.7C46.2855 112.102 46.1566 111.511 45.9063 110.968C45.6559 110.426 45.2902 109.944 44.8346 109.557C44.379 109.17 43.8445 108.887 43.2683 108.728C42.6922 108.569 42.0883 108.538 41.4987 108.636C41.0274 107.848 40.3354 107.215 39.5084 106.817C38.6813 106.418 37.7555 106.271 36.8456 106.393C35.9357 106.515 35.0815 106.902 34.3889 107.504C33.6964 108.107 33.1957 108.9 32.949 109.784C32.6547 109.692 32.348 109.646 32.0397 109.647C31.2313 109.647 30.456 109.968 29.8844 110.539C29.3128 111.111 28.9917 111.886 28.9917 112.695C28.9919 112.912 29.0157 113.128 29.0628 113.34L46.2281 113.345Z" fill="#F0F0F0"/>
<path d="M92.4966 49.5656C92.5808 49.0619 92.625 48.5523 92.6286 48.0416C92.634 45.43 91.6021 42.9233 89.7598 41.0723C87.9174 39.2214 85.4155 38.1779 82.8039 38.1711C82.2692 38.1747 81.7357 38.2223 81.2088 38.3134C80.0812 36.4298 78.4262 34.9179 76.4486 33.9647C74.471 33.0115 72.2574 32.6588 70.0814 32.9501C67.9055 33.2414 65.8626 34.164 64.2054 35.6038C62.5481 37.0437 61.3492 38.9376 60.7567 41.0515C59.6641 40.7115 58.5069 40.6331 57.3784 40.8226C56.2499 41.0122 55.1818 41.4643 54.2602 42.1426C53.3387 42.821 52.5895 43.7064 52.0731 44.7276C51.5568 45.7487 51.2877 46.877 51.2876 48.0213C51.2904 48.5337 51.3466 49.0445 51.4552 49.5453L92.4966 49.5656Z" fill="#F0F0F0"/>
<path d="M126.015 217.2C180.413 217.2 224.511 214.626 224.511 211.45C224.511 208.274 180.413 205.699 126.015 205.699C71.6168 205.699 27.5186 208.274 27.5186 211.45C27.5186 214.626 71.6168 217.2 126.015 217.2Z" fill="#F5F5F5"/>
<path d="M48.819 63.1749H62.9109C64.6024 63.1789 66.2235 63.8522 67.42 65.0478C68.6165 66.2434 69.2911 67.8639 69.2965 69.5553V82.6211H49.7486C48.0572 82.6157 46.4367 81.9411 45.2411 80.7446C44.0455 79.5481 43.3722 77.927 43.3682 76.2355V68.6155C43.3709 67.1717 43.9463 65.7878 44.9683 64.7678C45.9902 63.7477 47.3751 63.1749 48.819 63.1749Z" fill="#1391F9"/>
<path d="M69.2966 80.7567V86.3447L63.4546 80.5027L69.2966 80.7567Z" fill="#1391F9"/>
<g opacity="0.6">
<path d="M48.819 63.1749H62.9109C64.6024 63.1789 66.2235 63.8522 67.42 65.0478C68.6165 66.2434 69.2911 67.8639 69.2965 69.5553V82.6211H49.7486C48.0572 82.6157 46.4367 81.9411 45.2411 80.7446C44.0455 79.5481 43.3722 77.927 43.3682 76.2355V68.6155C43.3709 67.1717 43.9463 65.7878 44.9683 64.7678C45.9902 63.7477 47.3751 63.1749 48.819 63.1749Z" fill="white"/>
<path d="M69.2966 80.7567V86.3447L63.4546 80.5027L69.2966 80.7567Z" fill="white"/>
</g>
<path d="M60.6506 69.3928C58.6592 67.6148 56.3326 70.0278 56.3326 70.0278C56.3326 70.0278 54.0059 67.6148 52.0146 69.3928C49.1748 71.9328 53.3049 76.5048 56.3326 77.3887C59.3602 76.4794 63.5004 71.9328 60.6506 69.3928Z" fill="white"/>
<path d="M206.339 73.406C202.689 73.406 199.121 72.3236 196.086 70.2956C193.051 68.2677 190.686 65.3853 189.289 62.013C187.892 58.6407 187.526 54.9299 188.238 51.3498C188.951 47.7698 190.708 44.4813 193.289 41.9002C195.87 39.3192 199.159 37.5614 202.739 36.8493C206.319 36.1372 210.03 36.5027 213.402 37.8995C216.774 39.2964 219.657 41.6619 221.685 44.6969C223.713 47.7319 224.795 51.3002 224.795 54.9503C224.79 59.8434 222.844 64.5346 219.384 67.9945C215.924 71.4544 211.233 73.4006 206.339 73.406ZM206.339 39.0398C203.191 39.0398 200.114 39.9733 197.497 41.7224C194.879 43.4715 192.839 45.9574 191.635 48.8659C190.43 51.7744 190.115 54.9748 190.73 58.0623C191.345 61.1497 192.861 63.9856 195.087 66.2113C197.314 68.4369 200.15 69.9523 203.238 70.5659C206.325 71.1794 209.525 70.8635 212.434 69.6581C215.342 68.4527 217.827 66.412 219.575 63.794C221.324 61.176 222.256 58.0984 222.255 54.9503C222.25 50.7314 220.571 46.6868 217.587 43.704C214.604 40.7212 210.558 39.0438 206.339 39.0398Z" fill="#1391F9"/>
<path d="M206.573 66.0451L197.094 56.9265L198.851 55.0977L206.106 62.0725L215.504 47.4523L217.642 48.8239L206.573 66.0451Z" fill="#1391F9"/>
<g opacity="0.8">
<path d="M206.339 73.406C202.689 73.406 199.121 72.3236 196.086 70.2956C193.051 68.2677 190.686 65.3853 189.289 62.013C187.892 58.6407 187.526 54.9299 188.238 51.3498C188.951 47.7698 190.708 44.4813 193.289 41.9002C195.87 39.3192 199.159 37.5614 202.739 36.8493C206.319 36.1372 210.03 36.5027 213.402 37.8995C216.774 39.2964 219.657 41.6619 221.685 44.6969C223.713 47.7319 224.795 51.3002 224.795 54.9503C224.79 59.8434 222.844 64.5346 219.384 67.9945C215.924 71.4544 211.233 73.4006 206.339 73.406ZM206.339 39.0398C203.191 39.0398 200.114 39.9733 197.497 41.7224C194.879 43.4715 192.839 45.9574 191.635 48.8659C190.43 51.7744 190.115 54.9748 190.73 58.0623C191.345 61.1497 192.861 63.9856 195.087 66.2113C197.314 68.4369 200.15 69.9523 203.238 70.5659C206.325 71.1794 209.525 70.8635 212.434 69.6581C215.342 68.4527 217.827 66.412 219.575 63.794C221.324 61.176 222.256 58.0984 222.255 54.9503C222.25 50.7314 220.571 46.6868 217.587 43.704C214.604 40.7212 210.558 39.0438 206.339 39.0398Z" fill="white"/>
</g>
<g opacity="0.5">
<path d="M206.573 66.0451L197.094 56.9265L198.851 55.0977L206.106 62.0725L215.504 47.4523L217.642 48.8239L206.573 66.0451Z" fill="white"/>
</g>
<path d="M176.23 51.6484L107.65 51.7043C105.629 51.7043 103.691 52.5071 102.262 53.9361C100.833 55.3651 100.03 57.3033 100.03 59.3243L100.152 202.347C100.152 204.368 100.955 206.306 102.384 207.735C103.813 209.164 105.751 209.967 107.772 209.967L176.352 209.906C178.373 209.906 180.311 209.103 181.74 207.674C183.169 206.245 183.972 204.307 183.972 202.286L183.855 59.2633C183.855 58.2626 183.657 57.2719 183.273 56.3476C182.89 55.4234 182.328 54.5837 181.62 53.8766C180.912 53.1695 180.071 52.6088 179.147 52.2265C178.222 51.8441 177.231 51.6477 176.23 51.6484Z" fill="#263238"/>
<path d="M176.022 203.606L108.143 203.662C107.469 203.662 106.823 203.395 106.347 202.918C105.87 202.442 105.603 201.796 105.603 201.122L105.481 59.6951C105.481 59.0215 105.749 58.3754 106.225 57.8991C106.701 57.4227 107.347 57.1551 108.021 57.1551L175.895 57.0992C176.568 57.0992 177.215 57.3668 177.691 57.8432C178.167 58.3195 178.435 58.9656 178.435 59.6392L178.552 201.066C178.552 201.738 178.285 202.383 177.811 202.859C177.337 203.335 176.694 203.604 176.022 203.606Z" fill="#1391F9"/>
<path opacity="0.1" d="M148.184 193.797H135.966C134.563 193.797 133.426 194.934 133.426 196.337V197.068C133.426 198.471 134.563 199.608 135.966 199.608H148.184C149.586 199.608 150.724 198.471 150.724 197.068V196.337C150.724 194.934 149.586 193.797 148.184 193.797Z" fill="black"/>
<path opacity="0.1" d="M148.153 151.181H135.936C134.533 151.181 133.396 152.318 133.396 153.721V163.5C133.396 164.903 134.533 166.04 135.936 166.04H148.153C149.556 166.04 150.693 164.903 150.693 163.5V153.721C150.693 152.318 149.556 151.181 148.153 151.181Z" fill="black"/>
<path opacity="0.1" d="M126.619 151.201H114.402C112.999 151.201 111.862 152.338 111.862 153.741V163.52C111.862 164.923 112.999 166.06 114.402 166.06H126.619C128.022 166.06 129.159 164.923 129.159 163.52V153.741C129.159 152.338 128.022 151.201 126.619 151.201Z" fill="black"/>
<path opacity="0.1" d="M169.687 151.166H157.47C156.067 151.166 154.93 152.303 154.93 153.706V163.485C154.93 164.887 156.067 166.025 157.47 166.025H169.687C171.09 166.025 172.227 164.887 172.227 163.485V153.706C172.227 152.303 171.09 151.166 169.687 151.166Z" fill="black"/>
<path opacity="0.1" d="M148.169 170.302H135.951C134.548 170.302 133.411 171.439 133.411 172.842V182.621C133.411 184.024 134.548 185.161 135.951 185.161H148.169C149.571 185.161 150.709 184.024 150.709 182.621V172.842C150.709 171.439 149.571 170.302 148.169 170.302Z" fill="black"/>
<path opacity="0.1" d="M126.634 170.317H114.417C113.014 170.317 111.877 171.454 111.877 172.857V182.636C111.877 184.039 113.014 185.176 114.417 185.176H126.634C128.037 185.176 129.174 184.039 129.174 182.636V172.857C129.174 171.454 128.037 170.317 126.634 170.317Z" fill="black"/>
<path opacity="0.1" d="M169.703 170.282H157.485C156.083 170.282 154.945 171.419 154.945 172.822V182.601C154.945 184.003 156.083 185.141 157.485 185.141H169.703C171.106 185.141 172.243 184.003 172.243 182.601V172.822C172.243 171.419 171.106 170.282 169.703 170.282Z" fill="black"/>
<path opacity="0.1" d="M178.532 166.553L178.486 117.378C159.959 138.643 125.476 178.572 105.664 201.564C105.768 202.152 106.075 202.684 106.532 203.068C106.989 203.451 107.567 203.662 108.163 203.662L146.39 203.632L178.532 166.553Z" fill="white"/>
<path opacity="0.1" d="M105.542 130.84L169.489 57.1094H139.558C131.638 66.167 118.115 81.7931 105.522 96.3778L105.542 130.84Z" fill="white"/>
<path opacity="0.1" d="M105.567 161.635L178.455 77.6021L178.44 59.629L105.552 143.662L105.567 161.635Z" fill="white"/>
<path opacity="0.2" d="M108.021 57.1297H175.9C176.574 57.1297 177.22 57.3973 177.696 57.8737C178.172 58.35 178.44 58.996 178.44 59.6697V62.8701H105.481V59.6697C105.481 58.996 105.749 58.35 106.225 57.8737C106.701 57.3973 107.347 57.1297 108.021 57.1297Z" fill="black"/>
<path opacity="0.6" d="M168.001 61.4172L167.787 61.2039L167.742 61.1531H167.716C167.692 61.1208 167.67 61.0868 167.65 61.0515C167.542 60.8611 167.486 60.6456 167.488 60.4266C167.488 60.4266 167.488 59.812 167.488 59.7866C167.486 59.549 167.412 59.3174 167.278 59.1218C167.143 58.9262 166.952 58.7756 166.731 58.6893C166.731 58.6893 166.731 58.6893 166.731 58.6486C166.731 58.6486 166.731 58.6232 166.731 58.608V58.5674C166.737 58.5064 166.731 58.4447 166.712 58.3863C166.693 58.3279 166.663 58.2741 166.622 58.2285C166.581 58.1828 166.53 58.1463 166.474 58.1213C166.418 58.0963 166.358 58.0834 166.296 58.0834C166.235 58.0834 166.174 58.0963 166.118 58.1213C166.062 58.1463 166.012 58.1828 165.971 58.2285C165.93 58.2741 165.899 58.3279 165.881 58.3863C165.862 58.4447 165.856 58.5064 165.862 58.5674V58.608C165.862 58.608 165.862 58.6385 165.862 58.6486C165.862 58.6486 165.862 58.6486 165.862 58.6842C165.64 58.7708 165.449 58.9223 165.314 59.1189C165.179 59.3154 165.106 59.5481 165.105 59.7866V60.4012C165.109 60.6291 165.051 60.8538 164.938 61.0515C164.912 61.0958 164.883 61.1382 164.851 61.1785L164.805 61.2242L164.592 61.4376C164.567 61.4633 164.55 61.4956 164.543 61.5307C164.536 61.5658 164.539 61.6022 164.551 61.6357C164.565 61.6687 164.589 61.6969 164.619 61.7167C164.648 61.7366 164.683 61.7473 164.719 61.7474H165.908C165.945 61.814 166 61.8694 166.066 61.9079C166.132 61.9465 166.207 61.9668 166.284 61.9668C166.36 61.9668 166.435 61.9465 166.501 61.9079C166.567 61.8694 166.622 61.814 166.66 61.7474H167.848C167.884 61.7466 167.918 61.7354 167.948 61.7152C167.977 61.6951 168 61.6668 168.013 61.634C168.027 61.6011 168.03 61.565 168.023 61.5302C168.017 61.4953 168 61.4631 167.975 61.4376L168.001 61.4172Z" fill="white"/>
<g opacity="0.6">
<path opacity="0.6" d="M113.374 61.3444L114.477 61.3434L114.475 59.8702L113.373 59.8712L113.374 61.3444Z" fill="white"/>
<path opacity="0.6" d="M111.571 61.353L112.673 61.3521L112.672 59.3861L111.569 59.3871L111.571 61.353Z" fill="white"/>
<path opacity="0.6" d="M109.779 61.3464L110.881 61.3454L110.879 58.8918L109.776 58.8927L109.779 61.3464Z" fill="white"/>
<path opacity="0.6" d="M107.97 61.355L109.073 61.354L109.07 58.4076L107.968 58.4086L107.97 61.355Z" fill="white"/>
</g>
<path opacity="0.6" d="M171.15 59.2836H170.495V60.7568H171.15V59.2836Z" fill="white"/>
<path opacity="0.6" d="M171.145 61.3019L176.362 61.2974L176.36 58.7523L171.142 58.7568L171.145 61.3019Z" fill="white"/>
<path d="M145.76 57.1297C145.761 57.8824 145.539 58.6186 145.121 59.245C144.704 59.8713 144.11 60.3598 143.415 60.6486C142.72 60.9373 141.955 61.0134 141.216 60.8672C140.478 60.7209 139.799 60.359 139.267 59.827C138.734 59.2951 138.371 58.6171 138.224 57.8789C138.077 57.1407 138.152 56.3754 138.44 55.6798C138.727 54.9843 139.215 54.3897 139.841 53.9714C140.467 53.5531 141.203 53.3298 141.955 53.3298C142.964 53.3298 143.931 53.73 144.644 54.4425C145.357 55.1549 145.759 56.1214 145.76 57.1297Z" fill="#263238"/>
<path opacity="0.1" d="M143.922 57.1297C143.923 57.5187 143.808 57.8993 143.593 58.2233C143.377 58.5473 143.071 58.8001 142.712 58.9496C142.352 59.0992 141.957 59.1389 141.575 59.0636C141.194 58.9883 140.843 58.8015 140.567 58.5267C140.292 58.252 140.104 57.9017 140.028 57.5202C139.952 57.1387 139.99 56.7431 140.139 56.3836C140.288 56.0241 140.54 55.7168 140.863 55.5005C141.186 55.2843 141.567 55.1688 141.956 55.1688C142.476 55.1688 142.976 55.3753 143.344 55.7428C143.713 56.1104 143.92 56.6092 143.922 57.1297Z" fill="#E0E0E0"/>
<path d="M144.368 60.1218C144.368 60.1218 147.447 57.1246 153.197 57.1195L144.363 56.6115L144.368 60.1218Z" fill="#263238"/>
<path d="M139.558 60.1269C139.558 60.1269 136.469 57.1348 130.719 57.1398L139.553 56.6318L139.558 60.1269Z" fill="#263238"/>
<path opacity="0.3" d="M169.164 79.8221H120.559C117.753 79.8221 115.479 82.0965 115.479 84.9021V159.817C115.479 162.622 117.753 164.897 120.559 164.897H169.164C171.97 164.897 174.244 162.622 174.244 159.817V84.9021C174.244 82.0965 171.97 79.8221 169.164 79.8221Z" fill="black"/>
<path d="M167.452 76.2051H118.847C116.041 76.2051 113.767 78.4795 113.767 81.2851V156.2C113.767 159.005 116.041 161.28 118.847 161.28H167.452C170.258 161.28 172.532 159.005 172.532 156.2V81.2851C172.532 78.4795 170.258 76.2051 167.452 76.2051Z" fill="white"/>
<path d="M164.109 86.7766C163.388 86.7766 162.683 86.5627 162.083 86.1619C161.483 85.7611 161.016 85.1914 160.74 84.5249C160.463 83.8585 160.391 83.1251 160.532 82.4176C160.673 81.71 161.02 81.0601 161.53 80.55C162.04 80.0399 162.69 79.6925 163.398 79.5518C164.105 79.411 164.839 79.4833 165.505 79.7593C166.172 80.0354 166.741 80.5029 167.142 81.1027C167.543 81.7025 167.757 82.4077 167.757 83.1291C167.755 84.0961 167.371 85.023 166.687 85.7068C166.003 86.3905 165.076 86.7752 164.109 86.7766ZM164.109 80.1726C163.52 80.1726 162.943 80.3475 162.453 80.6751C161.962 81.0028 161.58 81.4685 161.354 82.0134C161.129 82.5583 161.07 83.1578 161.185 83.7363C161.3 84.3147 161.584 84.8461 162.001 85.2631C162.418 85.6801 162.949 85.9641 163.528 86.0792C164.106 86.1943 164.706 86.1352 165.251 85.9095C165.795 85.6838 166.261 85.3016 166.589 84.8112C166.916 84.3208 167.091 83.7443 167.091 83.1545C167.095 82.7608 167.02 82.3703 166.872 82.0056C166.723 81.6409 166.504 81.3091 166.227 81.0295C165.95 80.7499 165.62 80.528 165.256 80.3766C164.893 80.2251 164.503 80.1472 164.109 80.1472V80.1726Z" fill="#E0E0E0"/>
<path d="M165.224 81.5487L162.53 84.2427L162.997 84.7097L165.691 82.0156L165.224 81.5487Z" fill="#E0E0E0"/>
<path d="M162.997 81.5538L162.53 82.0208L165.224 84.7148L165.691 84.2478L162.997 81.5538Z" fill="#E0E0E0"/>
<path d="M155.778 159.004H131.064C129.717 159.004 128.424 158.469 127.472 157.516C126.519 156.563 125.984 155.271 125.984 153.924C125.984 152.577 126.519 151.285 127.472 150.332C128.424 149.379 129.717 148.844 131.064 148.844H155.778C157.125 148.844 158.418 149.379 159.37 150.332C160.323 151.285 160.858 152.577 160.858 153.924C160.858 155.271 160.323 156.563 159.37 157.516C158.418 158.469 157.125 159.004 155.778 159.004Z" fill="#E0E0E0"/>
<path d="M155.235 158.074H130.52C129.173 158.074 127.881 157.539 126.928 156.586C125.976 155.634 125.44 154.342 125.44 152.994C125.44 151.647 125.976 150.355 126.928 149.402C127.881 148.45 129.173 147.914 130.52 147.914H155.235C156.582 147.914 157.874 148.45 158.827 149.402C159.779 150.355 160.315 151.647 160.315 152.994C160.315 154.342 159.779 155.634 158.827 156.586C157.874 157.539 156.582 158.074 155.235 158.074Z" fill="#1391F9"/>
<path d="M133.535 160.423H131.722L134.484 152.423H136.664L139.421 160.423H137.609L135.605 154.251H135.542L133.535 160.423ZM133.421 157.279H137.703V158.599H133.421V157.279ZM147.067 155.224H145.356C145.325 155.003 145.261 154.806 145.165 154.634C145.068 154.46 144.944 154.311 144.793 154.189C144.642 154.066 144.468 153.973 144.27 153.908C144.075 153.842 143.862 153.81 143.633 153.81C143.219 153.81 142.859 153.913 142.551 154.118C142.244 154.322 142.006 154.618 141.836 155.009C141.667 155.397 141.583 155.868 141.583 156.423C141.583 156.993 141.667 157.473 141.836 157.861C142.008 158.249 142.248 158.542 142.555 158.74C142.862 158.937 143.218 159.036 143.622 159.036C143.848 159.036 144.058 159.006 144.25 158.947C144.446 158.887 144.619 158.799 144.77 158.685C144.921 158.568 145.046 158.426 145.145 158.259C145.247 158.092 145.317 157.902 145.356 157.689L147.067 157.697C147.023 158.064 146.912 158.418 146.735 158.759C146.56 159.098 146.325 159.401 146.028 159.669C145.734 159.935 145.382 160.146 144.973 160.302C144.567 160.456 144.107 160.533 143.594 160.533C142.881 160.533 142.243 160.371 141.68 160.048C141.12 159.725 140.678 159.258 140.352 158.646C140.029 158.034 139.868 157.293 139.868 156.423C139.868 155.551 140.032 154.809 140.36 154.197C140.688 153.585 141.133 153.118 141.696 152.798C142.258 152.475 142.891 152.314 143.594 152.314C144.058 152.314 144.487 152.379 144.883 152.509C145.282 152.639 145.635 152.829 145.942 153.079C146.249 153.327 146.499 153.63 146.692 153.99C146.887 154.349 147.012 154.76 147.067 155.224ZM139.214 168.224H137.503C137.472 168.003 137.408 167.806 137.312 167.634C137.216 167.46 137.092 167.311 136.941 167.189C136.79 167.066 136.615 166.973 136.417 166.908C136.222 166.842 136.01 166.81 135.781 166.81C135.367 166.81 135.006 166.913 134.699 167.118C134.391 167.322 134.153 167.618 133.984 168.009C133.815 168.397 133.73 168.868 133.73 169.423C133.73 169.993 133.815 170.473 133.984 170.861C134.156 171.249 134.395 171.542 134.703 171.74C135.01 171.937 135.365 172.036 135.769 172.036C135.996 172.036 136.205 172.006 136.398 171.947C136.593 171.887 136.766 171.799 136.917 171.685C137.069 171.568 137.194 171.426 137.292 171.259C137.394 171.092 137.464 170.902 137.503 170.689L139.214 170.697C139.17 171.064 139.059 171.418 138.882 171.759C138.708 172.098 138.472 172.401 138.175 172.669C137.881 172.935 137.529 173.146 137.121 173.302C136.714 173.456 136.255 173.533 135.742 173.533C135.028 173.533 134.39 173.371 133.828 173.048C133.268 172.725 132.825 172.258 132.5 171.646C132.177 171.034 132.015 170.293 132.015 169.423C132.015 168.551 132.179 167.809 132.507 167.197C132.835 166.585 133.281 166.118 133.843 165.798C134.406 165.475 135.039 165.314 135.742 165.314C136.205 165.314 136.635 165.379 137.031 165.509C137.429 165.639 137.782 165.829 138.089 166.079C138.397 166.327 138.647 166.63 138.839 166.99C139.035 167.349 139.16 167.76 139.214 168.224ZM140.427 173.423V165.423H145.818V166.818H142.119V168.724H145.541V170.118H142.119V172.029H145.833V173.423H140.427ZM147.163 173.423V165.423H150.319C150.926 165.423 151.443 165.539 151.87 165.771C152.297 166 152.622 166.319 152.846 166.728C153.073 167.134 153.186 167.603 153.186 168.134C153.186 168.665 153.071 169.134 152.842 169.54C152.613 169.947 152.281 170.263 151.846 170.49C151.414 170.716 150.89 170.829 150.276 170.829H148.264V169.474H150.002C150.328 169.474 150.596 169.418 150.807 169.306C151.021 169.191 151.18 169.034 151.284 168.833C151.39 168.63 151.444 168.397 151.444 168.134C151.444 167.868 151.39 167.637 151.284 167.439C151.18 167.238 151.021 167.083 150.807 166.974C150.594 166.862 150.323 166.806 149.995 166.806H148.854V173.423H147.163ZM131.851 179.818V178.423H138.421V179.818H135.972V186.423H134.3V179.818H131.851Z" fill="white"/>
<path d="M156.088 130.866H127.95V132.39H156.088V130.866Z" fill="#E0E0E0"/>
<path d="M156.073 141.305H127.935V142.829H156.073V141.305Z" fill="#F5F5F5"/>
<path d="M161.829 134.595H122.215V137.135H161.829V134.595Z" fill="#E0E0E0"/>
<path d="M142.021 128.285C154.13 128.285 163.947 118.469 163.947 106.36C163.947 94.251 154.13 84.4347 142.021 84.4347C129.912 84.4347 120.096 94.251 120.096 106.36C120.096 118.469 129.912 128.285 142.021 128.285Z" fill="#1391F9"/>
<path opacity="0.6" d="M142.021 128.285C154.13 128.285 163.947 118.469 163.947 106.36C163.947 94.251 154.13 84.4347 142.021 84.4347C129.912 84.4347 120.096 94.251 120.096 106.36C120.096 118.469 129.912 128.285 142.021 128.285Z" fill="white"/>
<path d="M116.688 115.169C116.688 115.169 115.504 114.584 114.95 114.788C114.397 114.991 110.886 118.791 110.886 119.294C110.886 119.797 113.152 120.03 113.873 119.802C114.595 119.573 117.109 116.667 117.231 116.373L116.688 115.169Z" fill="#FFC3BD"/>
<path d="M115.23 116.571C115.23 116.571 113.97 116.007 113.858 115.479C113.782 115.108 112.603 115.479 112.298 115.24C111.994 115.001 112.09 114.889 112.09 114.889C113.579 114.62 114.798 113.787 116.728 115.118L115.23 116.571Z" fill="#FFC3BD"/>
<path d="M117.063 117.317C120.715 117.566 124.381 117.476 128.016 117.048C131.308 116.495 133.248 108.626 133.248 108.626C133.248 108.626 141.305 93.0605 133.015 98.6028C131.582 99.38 128.9 104.292 127.792 108.138C126.685 111.983 126.543 112.512 125.476 112.776C125.014 112.893 117.454 114.132 116.174 114.376L117.063 117.317Z" fill="#1391F9"/>
<g opacity="0.3">
<path d="M117.063 117.317C120.715 117.566 124.381 117.476 128.016 117.048C131.308 116.495 133.248 108.626 133.248 108.626C133.248 108.626 141.305 93.0605 133.015 98.6028C131.582 99.38 128.9 104.292 127.792 108.138C126.685 111.983 126.543 112.512 125.476 112.776C125.014 112.893 117.454 114.132 116.174 114.376L117.063 117.317Z" fill="black"/>
</g>
<path opacity="0.5" d="M131.338 113.731C132.15 112.109 132.79 110.406 133.248 108.651L133.345 108.468L131.851 105.872L131.338 113.731Z" fill="black"/>
<path d="M152.034 125.862C151.338 119.725 149.55 103.789 149.342 100.071C149.078 95.4481 146.294 95.0366 140.401 95.7885C134.508 96.5403 132.923 98.9787 131.704 102.438C130.526 105.771 133.782 113.106 135.123 127.173C137.887 128.089 140.807 128.445 143.711 128.22C146.614 127.995 149.444 127.193 152.034 125.862Z" fill="#1391F9"/>
<path opacity="0.3" d="M152.034 125.862C151.338 119.725 149.55 103.789 149.342 100.071C149.078 95.4481 146.294 95.0366 140.401 95.7885C134.508 96.5403 132.923 98.9787 131.704 102.438C130.526 105.771 133.782 113.106 135.123 127.173C137.887 128.089 140.807 128.445 143.711 128.22C146.614 127.995 149.444 127.193 152.034 125.862Z" fill="black"/>
<path d="M140.462 88.9C140.462 91.2622 140.635 94.6861 142.494 95.8189C142.494 95.8189 142.845 98.1506 137.003 102.174C134.107 99.4156 135.534 97.5055 135.534 97.5055C137.922 96.2964 137.658 95.2855 136.896 93.6294L140.462 88.9Z" fill="#FFC3BD"/>
<path opacity="0.2" d="M139.004 90.7897L136.911 93.6091C137.094 93.9936 137.243 94.393 137.358 94.8029C138.288 94.4372 139.629 93.2485 139.634 92.1512C139.543 91.6513 139.326 91.1828 139.004 90.7897Z" fill="black"/>
<path d="M142.646 84.2924C142.341 88.2447 142.291 89.9211 140.309 91.9988C137.332 95.1281 132.689 94.0968 131.821 90.1903C131.059 86.6648 131.689 80.772 135.488 79.1159C136.112 78.8228 136.79 78.6614 137.479 78.6417C138.168 78.622 138.853 78.7444 139.493 79.0013C140.133 79.2582 140.712 79.644 141.196 80.1348C141.68 80.6256 142.058 81.2109 142.306 81.854C142.605 82.63 142.721 83.4643 142.646 84.2924Z" fill="#FFC3BD"/>
<path d="M136.489 85.5015C136.489 85.8215 136.312 86.0857 136.108 86.0958C135.905 86.106 135.743 85.8418 135.743 85.5218C135.743 85.2018 135.926 84.9325 136.124 84.9274C136.322 84.9224 136.479 85.1967 136.489 85.5015Z" fill="#263238"/>
<path d="M132.948 85.6082C132.948 85.9333 132.771 86.1974 132.567 86.2025C132.364 86.2076 132.202 85.9485 132.202 85.6285C132.202 85.3084 132.385 85.0443 132.588 85.0392C132.791 85.0341 132.954 85.2881 132.948 85.6082Z" fill="#263238"/>
<path d="M134.031 86.1568C133.735 86.899 133.346 87.6006 132.873 88.2447C133.034 88.3555 133.218 88.4293 133.411 88.4609C133.604 88.4925 133.802 88.4811 133.99 88.4276L134.031 86.1568Z" fill="#ED893E"/>
<path d="M135.671 89.6315C135.519 89.6613 135.364 89.6782 135.209 89.6823C135.197 89.683 135.186 89.6813 135.174 89.6773C135.163 89.6732 135.153 89.667 135.145 89.6589C135.136 89.6508 135.129 89.6411 135.125 89.6302C135.12 89.6194 135.118 89.6078 135.118 89.596C135.12 89.5711 135.131 89.5479 135.148 89.5303C135.166 89.5126 135.189 89.5017 135.214 89.4994C135.611 89.4914 136 89.3925 136.353 89.2101C136.705 89.0278 137.011 88.767 137.246 88.4479C137.252 88.4369 137.26 88.4272 137.27 88.4196C137.279 88.412 137.291 88.4065 137.303 88.4036C137.315 88.4007 137.327 88.4005 137.339 88.4028C137.352 88.4052 137.363 88.4102 137.373 88.4174C137.384 88.4236 137.393 88.4319 137.4 88.4418C137.407 88.4518 137.412 88.4632 137.415 88.4752C137.417 88.4872 137.417 88.4996 137.414 88.5115C137.411 88.5235 137.406 88.5347 137.399 88.5444C136.988 89.1198 136.368 89.5104 135.671 89.6315Z" fill="#263238"/>
<path d="M137.927 84.7293C137.889 84.7375 137.849 84.7324 137.814 84.7149C137.779 84.6973 137.751 84.6684 137.734 84.6328C137.572 84.3848 137.357 84.1754 137.105 84.0192C136.853 83.863 136.57 83.7638 136.276 83.7285C136.227 83.721 136.183 83.6943 136.153 83.6543C136.124 83.6144 136.111 83.5643 136.119 83.5152C136.126 83.4667 136.152 83.4229 136.191 83.3927C136.229 83.3625 136.278 83.3481 136.327 83.3526C136.682 83.3936 137.022 83.5146 137.323 83.7065C137.624 83.8983 137.878 84.156 138.064 84.46C138.084 84.5048 138.086 84.5553 138.07 84.6015C138.054 84.6477 138.021 84.6861 137.978 84.709C137.963 84.72 137.946 84.727 137.927 84.7293Z" fill="#263238"/>
<path d="M131.917 83.9622C131.885 83.9691 131.851 83.9671 131.82 83.9563C131.789 83.9456 131.761 83.9266 131.74 83.9013C131.711 83.8605 131.698 83.8105 131.703 83.7608C131.709 83.7112 131.733 83.6653 131.77 83.632C131.989 83.4266 132.255 83.2783 132.545 83.2003C132.834 83.1224 133.139 83.1171 133.431 83.185C133.454 83.1908 133.475 83.2012 133.494 83.2155C133.512 83.2298 133.528 83.2477 133.539 83.2681C133.55 83.2885 133.558 83.3111 133.56 83.3343C133.562 83.3576 133.56 83.3811 133.553 83.4034C133.539 83.4501 133.507 83.4895 133.465 83.5132C133.422 83.5369 133.372 83.5431 133.325 83.5304C133.095 83.4888 132.858 83.5006 132.634 83.5649C132.409 83.6292 132.202 83.7443 132.029 83.9013C131.999 83.933 131.96 83.9544 131.917 83.9622Z" fill="#263238"/>
<path opacity="0.5" d="M149.387 100.741L147.675 100.122L146.151 101.702L150.215 109.134C149.824 105.593 149.514 102.474 149.387 100.741Z" fill="black"/>
<path d="M153.548 119.349L152.461 121.783C152.461 121.783 149.921 123.043 149.596 123.906C149.271 124.77 147.894 126.71 149.438 127.183C150.135 127.43 150.895 127.43 151.592 127.184C152.289 126.938 152.881 126.461 153.269 125.832C154.071 124.531 154.386 123.718 154.345 123.104L156.088 119.974L153.548 119.349Z" fill="#FFC3BD"/>
<path d="M135.168 77.8561C133.949 78.2726 129.921 80.3504 132.517 82.7888C132.517 82.7888 135.306 81.7728 137.165 82.7888C137.165 82.7888 136.855 80.838 138.267 80.457C138.267 80.457 136.743 82.997 139.182 84.775C141.62 86.553 140.198 88.0313 140.198 88.0313C140.198 88.0313 141.214 88.2294 141.635 86.553C141.635 86.553 142.514 87.8738 142.682 87.5944C149.484 76.2 138.536 76.708 135.168 77.8561Z" fill="#263238"/>
<path d="M143.637 87.2998C143.385 88.0095 142.875 88.5987 142.21 88.9508C141.321 89.3979 140.731 88.6511 140.853 87.7062C140.97 86.8578 141.57 85.598 142.52 85.5269C142.683 85.5206 142.845 85.5478 142.998 85.6069C143.15 85.666 143.288 85.7557 143.405 85.8705C143.521 85.9852 143.612 86.1226 143.673 86.2741C143.734 86.4255 143.763 86.5879 143.759 86.7512C143.759 86.9408 143.718 87.1281 143.637 87.2998Z" fill="#FFC3BD"/>
<path d="M145.481 95.5599C145.481 95.5599 149.692 95.5954 155.666 105.618C161.64 115.641 155.666 121.412 155.666 121.412L152.959 119.634C152.959 119.634 154.767 114.905 153.939 112.624C153.111 110.343 149.433 105.664 149.433 105.664C149.433 105.664 140.452 96.2254 145.481 95.5599Z" fill="#1391F9"/>
<g opacity="0.3">
<path d="M145.481 95.5599C145.481 95.5599 149.692 95.5954 155.666 105.618C161.64 115.641 155.666 121.412 155.666 121.412L152.959 119.634C152.959 119.634 154.767 114.905 153.939 112.624C153.111 110.343 149.433 105.664 149.433 105.664C149.433 105.664 140.452 96.2254 145.481 95.5599Z" fill="black"/>
</g>
<path d="M101.473 103.886L102.327 101.884L104.262 102.438L103.058 105.126L101.473 103.886Z" fill="#E4897B"/>
<path d="M103.723 102.9C103.723 102.9 104.968 102.448 105.202 101.91C105.435 101.371 105.755 97.7087 105.379 97.3734C105.003 97.0381 102.839 97.6071 102.499 98.2777C102.159 98.9482 102.057 102.032 102.189 102.342L103.723 102.9Z" fill="#E4897B"/>
<path d="M81.3765 79.9897C81.3765 79.9897 83.9165 76.7232 88.458 78.3945C92.9995 80.0659 93.4364 86.9493 92.8674 90.4951C92.2985 94.0409 91.7701 99.6899 92.5067 100.259C92.5067 100.259 88.9812 101.219 86.7917 99.6848C84.6023 98.1507 84.7089 91.7753 84.7089 91.7753L85.5725 88.4733L81.3765 79.9897Z" fill="#263238"/>
<path d="M88.7933 200.081L88.6714 206.883L92.2528 206.665L92.6897 200.508L88.7933 200.081Z" fill="#FFB573"/>
<path d="M92.8979 206.248L88.3818 206.167C88.2994 206.164 88.2186 206.19 88.153 206.24C88.0874 206.29 88.0408 206.361 88.0211 206.441L87.1372 210.104C87.0988 210.259 87.1239 210.424 87.2067 210.561C87.2896 210.698 87.4236 210.797 87.5791 210.835H87.7061C89.3317 210.835 90.7846 210.769 92.7861 210.81C95.1788 210.856 94.5641 211.13 97.3581 211.221C99.0498 211.272 99.3902 209.352 98.679 209.245C95.3973 208.773 95.0722 207.772 93.8276 206.573C93.5656 206.359 93.2364 206.244 92.8979 206.248Z" fill="#263238"/>
<path opacity="0.2" d="M88.7728 201.153L88.7271 203.703L92.4558 203.82L92.598 201.773L88.7728 201.153Z" fill="black"/>
<path d="M72.8322 198.887L71.9482 205.628L75.5246 205.816L76.6574 199.746L72.8322 198.887Z" fill="#FFB573"/>
<path d="M76.2 205.461L71.7194 204.876C71.638 204.865 71.555 204.882 71.4846 204.924C71.4142 204.967 71.3607 205.032 71.3333 205.11L70.043 208.666C69.987 208.817 69.9929 208.984 70.0595 209.131C70.1261 209.277 70.248 209.391 70.3986 209.448C70.4395 209.464 70.4821 209.474 70.5256 209.479C72.1411 209.662 73.5736 209.763 75.6056 210.028C77.978 210.342 77.3379 210.536 80.1217 210.952C81.7981 211.196 82.3569 209.326 81.6457 209.139C78.4403 208.3 78.232 207.269 77.1245 205.938C76.8859 205.67 76.5565 205.5 76.2 205.461Z" fill="#263238"/>
<path opacity="0.2" d="M72.6896 199.949L72.3594 202.479L76.0475 203.012L76.4234 200.995L72.6896 199.949Z" fill="black"/>
<path d="M93.6649 123.327C93.6649 123.327 97.6019 155.255 96.8145 161.554C96.0271 167.853 93.1417 202.758 93.1417 202.758H88.1531C88.1531 202.758 86.4056 172.664 88.1531 160.858C88.1531 160.858 83.5151 133.736 84.0434 126.914C84.5717 120.091 93.355 121.061 93.6649 123.327Z" fill="#263238"/>
<path opacity="0.3" d="M87.4113 156.352C88.5137 145.684 86.1972 133.563 86.1972 133.563L84.6021 136.378C85.3437 143.109 86.6087 151.384 87.4113 156.352Z" fill="black"/>
<path d="M86.5581 138.176C86.5581 147.645 86.4666 158.943 85.6386 162.342C84.1146 168.504 76.7435 201.818 76.7435 201.818L71.7905 201.244C71.7905 201.244 74.0257 172.121 77.1194 160.604C77.1194 160.604 76.4641 149.702 76.3981 139.634C76.3981 139.634 73.4263 131.506 77.2007 121.346C77.2007 121.346 85.6234 118.958 88.3005 122.362C88.3005 122.311 86.553 134.112 86.5581 138.176Z" fill="#263238"/>
<path d="M90.4238 98.806C90.4238 98.806 93.9239 99.1006 95.8442 105.171C97.7644 111.242 97.2717 110.332 97.2717 110.332L101.336 103.027L103.947 104.313C103.947 104.313 99.9691 116.698 97.6679 118.908C95.3667 121.117 91.897 116.368 91.7649 115.514C91.6329 114.661 90.9318 104.252 90.9318 104.252L90.4238 98.806Z" fill="#1391F9"/>
<path opacity="0.1" d="M90.4238 98.806C90.4238 98.806 93.9239 99.1006 95.8442 105.171C97.7644 111.242 97.2717 110.332 97.2717 110.332L101.336 103.027L103.947 104.313C103.947 104.313 99.9691 116.698 97.6679 118.908C95.3667 121.117 91.897 116.368 91.7649 115.514C91.6329 114.661 90.9318 104.252 90.9318 104.252L90.4238 98.806Z" fill="black"/>
<path d="M81.3766 80.264C81.3766 80.264 78.3286 79.5325 77.5361 87.1067C76.6369 95.57 79.2938 101.229 84.3992 101.178C84.3992 101.178 83.5915 94.6505 83.9928 92.6795C84.3941 90.7085 83.2155 82.1741 83.2155 82.1741L81.3766 80.264Z" fill="#263238"/>
<path d="M93.9802 127L75.8242 126.324C75.8954 121.671 77.1654 110.327 76.7336 107.98C76.505 106.726 76.251 105.38 75.9614 103.916C75.743 102.819 75.5093 101.651 75.2451 100.416C77.3431 99.7501 79.4949 99.2674 81.6764 98.9736C83.9492 98.6336 86.2473 98.4925 88.5446 98.552C89.0333 98.5773 89.5202 98.6316 90.0025 98.7146C91.7348 99.0092 93.1216 100.543 93.5585 102.606C93.7617 103.515 93.9751 104.638 94.158 105.943C94.666 109.408 95.5042 113.711 93.9802 127Z" fill="#1391F9"/>
<g opacity="0.2">
<path d="M93.9802 127L75.8242 126.324C75.8954 121.671 77.1654 110.327 76.7336 107.98C76.505 106.726 76.251 105.38 75.9614 103.916C75.743 102.819 75.5093 101.651 75.2451 100.416C77.3431 99.7501 79.4949 99.2674 81.6764 98.9736C83.9492 98.6336 86.2473 98.4925 88.5446 98.552C89.0333 98.5773 89.5202 98.6316 90.0025 98.7146C91.7348 99.0092 93.1216 100.543 93.5585 102.606C93.7617 103.515 93.9751 104.638 94.158 105.943C94.666 109.408 95.5042 113.711 93.9802 127Z" fill="black"/>
</g>
<path d="M87.0608 101.158C83.3524 100.427 82.3364 98.7552 82.3364 98.7552C84.8764 96.6724 83.1543 92.6592 83.1543 92.6592L87.5993 93.8022C87.4545 94.4227 87.3527 95.0524 87.2945 95.6869C87.0761 98.4199 88.3105 98.5317 88.3105 98.5317C89.0014 100.076 87.0608 101.158 87.0608 101.158Z" fill="#E4897B"/>
<path opacity="0.2" d="M87.5993 93.8022C87.4545 94.4226 87.3526 95.0524 87.2945 95.6869C84.2465 95.4837 83.1543 92.6389 83.1543 92.6389L87.5993 93.8022Z" fill="black"/>
<path d="M85.9638 81.0362C89.8958 81.087 91.1302 83.2104 91.369 87.2642C91.6636 92.3442 90.4952 95.9002 85.593 94.7674C78.9382 93.2129 79.436 80.9549 85.9638 81.0362Z" fill="#E4897B"/>
<path d="M88.5444 87.0103C88.8497 87.6029 89.2268 88.1557 89.6671 88.6562C89.5517 88.8123 89.3967 88.9347 89.218 89.0106C89.0393 89.0866 88.8436 89.1133 88.6511 89.088L88.5444 87.0103Z" fill="#DE5753"/>
<path d="M86.4209 84.328C86.1106 84.2852 85.7947 84.3148 85.4977 84.4144C85.2007 84.514 84.9308 84.6808 84.709 84.902" stroke="#263238" stroke-width="0.616569" stroke-linecap="round" stroke-linejoin="round"/>
<path d="M89.103 84.1045C89.373 84.0399 89.654 84.0374 89.9251 84.0973C90.1961 84.1571 90.45 84.2777 90.6677 84.4499" stroke="#263238" stroke-width="0.616569" stroke-linecap="round" stroke-linejoin="round"/>
<path d="M81.5797 87.6097C81.5797 87.6097 84.4194 84.7649 84.1756 82.2706C84.1756 82.2706 91.0437 78.8213 91.3282 86.7359C91.3282 86.7359 92.1817 79.7255 85.4253 79.4817C78.6689 79.2378 78.5723 89.1337 82.0217 92.1105C82.0217 92.1105 80.4215 89.6112 81.5797 87.6097Z" fill="#263238"/>
<path d="M82.2149 88.4428C82.1811 87.988 81.9688 87.565 81.6242 87.2662C81.2797 86.9674 80.831 86.8169 80.376 86.8477C79.1568 86.9645 78.5472 89.4537 81.5647 90.0938C82.0016 90.1903 82.2505 89.7687 82.2149 88.4428Z" fill="#E4897B"/>
<path d="M89.7838 90.424C89.7613 90.9052 89.7732 91.3873 89.8194 91.8667L89.5755 91.9328C88.463 92.2173 87.8483 91.9785 87.513 91.6331C87.3492 91.4596 87.2305 91.2485 87.1676 91.0184C87.1251 90.8905 87.1028 90.7568 87.1016 90.6221C87.8673 90.7546 88.6527 90.7182 89.4028 90.5154C89.6365 90.4494 89.7838 90.424 89.7838 90.424Z" fill="#263238"/>
<path d="M89.408 90.4951V90.932C88.4631 91.1962 87.5995 91.2419 87.188 91.0082C87.1456 90.88 87.12 90.7468 87.1118 90.612C87.8764 90.7437 88.6607 90.7038 89.408 90.4951Z" fill="white"/>
<path d="M89.5757 91.9124C88.4631 92.1969 87.8485 91.9581 87.5132 91.6127C87.9368 91.5089 88.3761 91.4848 88.8086 91.5416C89.0973 91.5803 89.366 91.7102 89.5757 91.9124Z" fill="#DE5753"/>
<path d="M90.7897 86.1212C90.6993 86.038 90.5908 85.9769 90.4728 85.9425C90.3548 85.9082 90.2305 85.9016 90.1095 85.9232C89.9885 85.9449 89.8742 85.9942 89.7754 86.0673C89.6766 86.1404 89.5961 86.2354 89.54 86.3447" stroke="#263238" stroke-width="0.425407" stroke-linecap="round" stroke-linejoin="round"/>
<path d="M87.4319 86.4362C87.2878 86.3103 87.1165 86.2196 86.9314 86.1713C86.7463 86.123 86.5525 86.1184 86.3653 86.1578C86.1781 86.1972 86.0026 86.2796 85.8527 86.3984C85.7028 86.5172 85.5825 86.6693 85.5015 86.8426" stroke="#263238" stroke-width="0.425407" stroke-linecap="round" stroke-linejoin="round"/>
<path d="M83.2153 81.9048C83.2153 81.9048 87.4775 83.7387 90.5763 83.185C93.6751 82.6313 87.9042 79.9694 87.9042 79.9694L84.9527 79.7712L83.2153 81.9048Z" fill="#263238"/>
<path d="M84.2516 81.5391C84.3359 81.6792 84.3976 81.8318 84.4345 81.9912C84.4706 82.1318 84.4994 82.2743 84.5208 82.4179C84.5597 82.6989 84.5733 82.9828 84.5615 83.2663C84.5371 83.8223 84.445 84.3734 84.2872 84.9071C84.1263 85.4318 83.9207 85.9417 83.6725 86.4311C83.5506 86.6749 83.4083 86.9086 83.2762 87.1525L82.8394 87.8433L83.2305 87.122C83.3423 86.8781 83.4693 86.614 83.5709 86.3854C83.784 85.893 83.9539 85.3831 84.0789 84.8614C84.1984 84.3418 84.253 83.8094 84.2414 83.2764C84.2316 83.0136 84.2011 82.7521 84.15 82.4941C84.1195 82.3671 84.089 82.2401 84.0484 82.1233C84.0147 82.0191 83.9705 81.9187 83.9163 81.8235L84.2516 81.5391Z" fill="#263238"/>
<path d="M83.8505 81.6102C84.0334 81.7524 84.1299 81.8642 84.267 81.9861C84.4042 82.108 84.521 82.2198 84.6531 82.3315C84.9146 82.5554 85.1912 82.7607 85.4812 82.9462C86.0626 83.3318 86.7216 83.585 87.4116 83.6879C86.7025 83.6545 86.0091 83.4672 85.3796 83.1393C85.0602 82.9778 84.7514 82.7962 84.455 82.5957C84.3077 82.4941 84.1654 82.3874 84.0232 82.2807C83.881 82.1741 83.7286 82.0521 83.627 81.9912L83.8505 81.6102Z" fill="#263238"/>
<path d="M110.531 116.84C110.531 116.84 111.333 115.788 111.923 115.722C112.512 115.656 117.003 116.342 117.236 116.799C117.47 117.257 115.321 119.258 114.58 119.39C113.838 119.522 111.115 119.177 110.876 118.963L110.531 116.84Z" fill="#E4897B"/>
<path d="M112.466 117.46C112.466 117.46 113.431 116.87 113.294 116.347C113.192 115.981 114.046 116.576 114.224 116.241C114.401 115.905 113.843 115.194 113.843 115.194C113.187 115.108 111.745 115.27 110.475 116.825L112.466 117.46Z" fill="#E4897B"/>
<path d="M110.541 116.84L107.742 117.79C107.742 117.79 108.087 120.101 108.25 120.04L111.765 118.623L110.541 116.84Z" fill="#E4897B"/>
<path d="M75.4227 100.33C75.4227 100.33 73.0554 101.407 73.6396 105.1C74.5794 111.094 89.8956 123.632 92.8268 123.789C95.7579 123.947 109.799 120.355 109.824 120.117C109.85 119.878 108.971 116.845 108.971 116.845C108.971 116.845 95.2093 118.252 93.223 117.353C91.2367 116.454 81.2799 99.888 75.4227 100.33Z" fill="#1391F9"/>
<path opacity="0.1" d="M75.4227 100.33C75.4227 100.33 73.0554 101.407 73.6396 105.1C74.5794 111.094 89.8956 123.632 92.8268 123.789C95.7579 123.947 109.799 120.355 109.824 120.117C109.85 119.878 108.971 116.845 108.971 116.845C108.971 116.845 95.2093 118.252 93.223 117.353C91.2367 116.454 81.2799 99.888 75.4227 100.33Z" fill="black"/>
</svg>
