<svg width="179" height="179" viewBox="0 0 179 179" fill="none" xmlns="http://www.w3.org/2000/svg">
<path d="M158.923 118.602H94.2148C93.6587 118.601 93.1257 118.38 92.7324 117.986C92.3392 117.593 92.1179 117.06 92.1169 116.504V22.2533C92.1179 21.6972 92.3392 21.1641 92.7324 20.7709C93.1257 20.3777 93.6587 20.1563 94.2148 20.1554H158.923C159.479 20.1563 160.012 20.3777 160.406 20.7709C160.799 21.1641 161.02 21.6972 161.021 22.2533V116.504C161.02 117.06 160.799 117.593 160.406 117.986C160.012 118.38 159.479 118.601 158.923 118.602ZM94.2148 20.2449C93.6822 20.2449 93.1713 20.4565 92.7947 20.8331C92.418 21.2098 92.2064 21.7206 92.2064 22.2533V116.504C92.2064 116.768 92.2584 117.029 92.3593 117.273C92.4603 117.516 92.6082 117.738 92.7947 117.924C92.9812 118.111 93.2026 118.259 93.4462 118.359C93.6899 118.46 93.9511 118.512 94.2148 118.512H158.923C159.187 118.512 159.448 118.46 159.692 118.359C159.936 118.259 160.157 118.111 160.343 117.924C160.53 117.738 160.678 117.516 160.779 117.273C160.88 117.029 160.932 116.768 160.932 116.504V22.2533C160.932 21.7206 160.72 21.2098 160.343 20.8331C159.967 20.4565 159.456 20.2449 158.923 20.2449H94.2148Z" fill="#E0E0E0"/>
<path d="M84.3054 118.602H19.6005C19.0438 118.602 18.5098 118.381 18.1158 117.988C17.7218 117.594 17.5 117.061 17.499 116.504V22.2533C17.5 21.6966 17.7218 21.163 18.1158 20.7696C18.5098 20.3763 19.0438 20.1554 19.6005 20.1554H84.3054C84.8618 20.1554 85.3954 20.3764 85.7888 20.7699C86.1823 21.1633 86.4033 21.6969 86.4033 22.2533V116.504C86.4033 117.06 86.1823 117.594 85.7888 117.987C85.3954 118.381 84.8618 118.602 84.3054 118.602ZM19.6005 20.2449C19.0675 20.2449 18.5563 20.4564 18.1791 20.8329C17.8019 21.2095 17.5895 21.7203 17.5885 22.2533V116.504C17.5932 117.034 17.8073 117.542 18.1841 117.915C18.5609 118.289 19.07 118.498 19.6005 118.498H84.3054C84.5691 118.498 84.8303 118.446 85.074 118.345C85.3176 118.244 85.539 118.096 85.7255 117.91C85.912 117.723 86.06 117.502 86.1609 117.258C86.2618 117.015 86.3138 116.753 86.3138 116.49V22.2533C86.3138 21.9895 86.2618 21.7284 86.1609 21.4847C86.06 21.241 85.912 21.0196 85.7255 20.8331C85.539 20.6466 85.3176 20.4987 85.074 20.3978C84.8303 20.2968 84.5691 20.2449 84.3054 20.2449H19.6005Z" fill="#E0E0E0"/>
<path d="M179 140.465H0V140.554H179V140.465Z" fill="#E0E0E0"/>
<path d="M79.1645 144.313H60.0007V144.403H79.1645V144.313Z" fill="#E0E0E0"/>
<path d="M36.5983 148.609H23.6208V148.699H36.5983V148.609Z" fill="#E0E0E0"/>
<path d="M149.923 144.267H134.461V144.356H149.923V144.267Z" fill="#E0E0E0"/>
<path d="M155.379 144.267H153.113V144.356H155.379V144.267Z" fill="#E0E0E0"/>
<path d="M131.508 146.497H112.215V146.587H131.508V146.497Z" fill="#E0E0E0"/>
<path d="M24.5302 145.18H18.7808V145.269H24.5302V145.18Z" fill="#E0E0E0"/>
<path d="M46.1998 53.2024L30.3941 47.1808L14.5884 53.2024C14.2877 53.8038 14.5884 79.2433 30.3941 84.9642C46.1998 79.2433 46.5005 53.8038 46.1998 53.2024Z" fill="#E0E0E0"/>
<path d="M43.5041 55.3969L30.3941 50.3849L17.2842 55.3969C17.0336 55.8946 17.2842 76.9987 30.3941 81.7457C43.5041 76.9987 43.7547 55.8946 43.5041 55.3969Z" fill="#F0F0F0"/>
<path d="M30.5874 71.0093L24.394 66.1942L26.0766 64.0319L30.2294 67.261L36.1687 60.4698L38.2307 62.2705L30.5874 71.0093Z" fill="white"/>
<path d="M17.166 166.223H29.1626L31.5147 140.325H14.814L17.166 166.223Z" fill="#E0E0E0"/>
<path d="M22.9873 144.632C23.3202 133.828 20.6674 111.535 16.3535 102.868L16.6507 102.725C21.1221 111.746 23.6281 133.928 23.3309 144.632H22.9873Z" fill="#E0E0E0"/>
<path d="M26.8249 109.995C22.7687 113.175 21.6697 123.549 21.6697 123.549C24.5444 118.799 28.9979 116.543 26.8249 109.995Z" fill="#E0E0E0"/>
<path d="M21.6231 123.707C21.5872 123.696 21.5563 123.673 21.5359 123.641C21.5156 123.61 21.5072 123.572 21.5121 123.535C21.5551 123.109 22.6613 113.056 26.7246 109.867C26.7448 109.85 26.7688 109.839 26.7944 109.834C26.82 109.829 26.8465 109.83 26.8714 109.838C26.8974 109.845 26.9212 109.859 26.9406 109.878C26.96 109.896 26.9744 109.92 26.9824 109.945C28.6149 114.861 26.5886 117.388 24.2437 120.309C23.3589 121.362 22.5468 122.473 21.8129 123.635C21.7982 123.66 21.7772 123.68 21.752 123.694C21.7268 123.708 21.6984 123.715 21.6697 123.714L21.6231 123.707ZM21.9346 122.83C22.5861 121.838 23.295 120.957 23.9788 120.102C26.2306 117.299 28.1781 114.871 26.7389 110.275C23.5456 113.013 22.2532 120.453 21.9346 122.83Z" fill="#E0E0E0"/>
<path d="M11.771 108.338C16.6255 110.028 20.9394 119.619 20.9394 119.619C16.6828 116.056 11.8354 115.229 11.771 108.338Z" fill="#E0E0E0"/>
<path d="M20.9539 119.751C19.9188 118.911 18.8345 118.134 17.7068 117.424C14.5313 115.355 11.7819 113.565 11.7354 108.324C11.7364 108.298 11.7435 108.272 11.7559 108.249C11.7683 108.226 11.7857 108.206 11.807 108.191C11.8283 108.176 11.8532 108.165 11.8794 108.162C11.9057 108.158 11.9324 108.161 11.9573 108.17C16.8369 109.87 21.0434 119.153 21.2188 119.547C21.224 119.571 21.224 119.595 21.2188 119.619C21.2178 119.662 21.2001 119.703 21.1693 119.733C21.1385 119.763 21.0972 119.78 21.0541 119.78C21.0187 119.779 20.9841 119.769 20.9539 119.751ZM17.9001 117.152C18.7915 117.732 19.708 118.33 20.6138 119.035C19.5612 116.887 15.9991 110.142 12.079 108.571C12.2008 113.443 14.8428 115.161 17.9001 117.152Z" fill="#E0E0E0"/>
<path d="M29.7642 119.901C24.7271 123.718 23.0696 138.159 23.0696 138.159C26.689 132.396 32.2845 127.974 29.7642 119.901Z" fill="#E0E0E0"/>
<path d="M23.0016 138.342C22.9577 138.326 22.9203 138.296 22.8957 138.256C22.871 138.217 22.8604 138.17 22.8655 138.124C22.9371 137.529 24.5983 123.564 29.6389 119.747C29.665 119.727 29.6956 119.714 29.728 119.708C29.7604 119.703 29.7937 119.705 29.8251 119.715C29.8567 119.724 29.8856 119.741 29.9088 119.764C29.932 119.787 29.9488 119.816 29.9575 119.848C31.9695 126.292 28.9444 130.366 25.7403 134.698C24.899 135.843 24.0147 137.028 23.2343 138.256C23.2165 138.285 23.1912 138.31 23.161 138.326C23.1308 138.342 23.0968 138.35 23.0624 138.349L23.0016 138.342ZM23.3882 137.268C24.0398 136.294 24.7486 135.356 25.4145 134.44C28.504 130.262 31.4289 126.31 29.6568 120.241C25.6293 123.628 23.8429 134.146 23.3882 137.282V137.268Z" fill="#E0E0E0"/>
<path d="M10.9585 117.904C16.8798 120.084 22.4861 130.369 22.4861 130.369C17.3559 125.912 10.8797 126.353 10.9585 117.904Z" fill="#E0E0E0"/>
<path d="M22.3535 130.523C20.7675 129.145 19.0742 128.253 17.431 127.387C13.8187 125.483 10.697 123.836 10.7399 117.904C10.7393 117.871 10.7469 117.838 10.762 117.808C10.7772 117.779 10.7994 117.753 10.8267 117.735C10.854 117.716 10.8856 117.704 10.9185 117.701C10.9515 117.697 10.9849 117.702 11.0156 117.714C16.9405 119.901 22.4286 129.847 22.6542 130.269C22.6784 130.31 22.687 130.358 22.6784 130.405C22.6699 130.452 22.6447 130.494 22.6076 130.523C22.5898 130.54 22.5689 130.552 22.5462 130.56C22.5234 130.568 22.4993 130.571 22.4752 130.57C22.431 130.566 22.3887 130.55 22.3535 130.523ZM11.1588 118.201C11.2161 123.65 14.1875 125.218 17.635 127.029C19.0812 127.742 20.4655 128.574 21.7735 129.517C20.2377 126.983 15.7877 120.113 11.1588 118.201Z" fill="#E0E0E0"/>
<path d="M23.4382 103.602C20.61 105.821 19.8582 113.056 19.8582 113.056C21.8379 109.745 24.9561 108.17 23.4382 103.602Z" fill="#E0E0E0"/>
<path d="M19.7938 113.164C19.7693 113.155 19.7485 113.138 19.7349 113.116C19.7212 113.094 19.7155 113.068 19.7186 113.042C19.7616 112.745 20.5349 105.732 23.3666 103.505C23.382 103.494 23.3997 103.487 23.4183 103.484C23.4369 103.481 23.4559 103.482 23.474 103.487C23.4917 103.493 23.5078 103.502 23.5209 103.515C23.534 103.529 23.5437 103.545 23.5492 103.562C24.6877 106.992 23.2736 108.753 21.6339 110.794C21.0202 111.534 20.4557 112.314 19.9442 113.128C19.9336 113.144 19.9193 113.158 19.9025 113.167C19.8856 113.176 19.8668 113.181 19.8475 113.182C19.8282 113.181 19.8094 113.175 19.7938 113.164ZM20.0265 112.555C20.4847 111.864 20.9752 111.249 21.4585 110.651C23.0301 108.696 24.3798 107.006 23.3845 103.799C21.1542 105.714 20.2628 110.901 20.0265 112.555Z" fill="#E0E0E0"/>
<path d="M18.4549 108.256C17.7331 107.672 16.9763 107.133 16.1888 106.641C13.9692 105.209 12.0503 103.945 12.0181 100.294C12.0178 100.275 12.0222 100.256 12.0309 100.239C12.0397 100.222 12.0525 100.208 12.0682 100.197C12.0852 100.19 12.1035 100.186 12.1219 100.186C12.1403 100.186 12.1586 100.19 12.1756 100.197C15.573 101.389 18.5086 107.862 18.6375 108.137C18.6462 108.162 18.6471 108.189 18.6401 108.214C18.633 108.239 18.6184 108.261 18.5981 108.277C18.5784 108.292 18.5545 108.299 18.5301 108.299C18.5153 108.297 18.5009 108.292 18.488 108.285C18.475 108.278 18.4638 108.268 18.4549 108.256Z" fill="#E0E0E0"/>
<path d="M159.493 36.308C161.438 24.9785 153.831 14.2171 142.502 12.2716C131.172 10.3261 120.411 17.9334 118.465 29.2628C116.52 40.5923 124.127 51.3538 135.456 53.2992C146.786 55.2447 157.547 47.6375 159.493 36.308Z" fill="#F0F0F0"/>
<path d="M124.058 43.5006V43.3216L123.739 43.0388L123.728 42.3729L124.033 42.1295L124.026 41.7571L124.269 41.6963L124.305 41.4278L124.885 41.5459L124.137 40.6402L123.739 40.7798L123.37 40.5328L123.453 40.2177L123.127 40.0065L123.635 39.5196L123.732 39.1402L124.337 38.818L124.094 38.306L124.316 38.1592L124.308 37.8048L125.032 37.9945L125.203 38.2917L125.919 39.1222L125.998 39.67L126.206 40.0316L126.216 40.3001L126.449 40.5364L126.467 41.2524L126.245 41.3562L126.249 41.528L126.03 41.8824L125.651 43.1677L125.211 43.1927L125.017 43.5042L124.058 43.5006Z" fill="#E6E6E6"/>
<path d="M132.879 15.9919L133.101 15.7377L133.527 14.7353L133.806 14.9107L133.917 14.7782L133.602 14.3236L133.842 13.9835L133.82 13.7687L134.239 13.5467L135.052 13.7544L135.338 13.7579L135.503 13.919L136.226 13.7651L136.233 14.0622L136.559 14.1482L136.258 14.8284L135.972 15.147L136.087 15.4942L134.973 16.2675L134.776 16.4859L133.888 16.4394L133.763 16.7616L133.377 16.8654L132.879 15.9919Z" fill="#E6E6E6"/>
<path d="M143.096 17.8427L143.465 17.5635L144.116 17.7353L143.952 18.3726L143.322 18.8917L142.931 18.48L143.096 17.8427Z" fill="#E6E6E6"/>
<path d="M148.416 21.7628L148.602 21.616L148.695 21.4048L148.953 21.2007L149.15 21.1793L149.354 21.0146L149.465 21.258L149.816 21.3976L149.869 22.1387L150.546 22.1351L150.585 22.69L150.374 22.7974L150.324 23.0015L149.748 22.8511L149.426 23.0301L149.547 23.1984L149.418 23.2771L149.479 23.3666L149.107 23.56L149.057 23.4919L148.924 23.5707L148.645 23.4561L148.373 23.6101L148.241 23.4705L148.044 23.5242L147.922 23.1196L147.381 22.98L147.288 22.8475L147.002 22.7724L146.569 22.1673L146.608 21.8988L146.454 21.6876L146.683 21.48L146.995 21.5194L147.242 21.6697L147.428 21.6482L147.7 21.7664L147.847 22.0492L147.99 21.9776L148.162 22.0349L148.416 21.7628Z" fill="#E6E6E6"/>
<path d="M156.403 28.8548L157.398 28.6149L158.179 29.0051L158.637 29.9145L158.519 30.3011L158.673 30.6197L158.505 31.2713L158.236 31.2212L157.996 31.5577L157.126 31.3321L157.352 30.4622L156.672 30.1472L156.668 29.3023L156.403 28.8548Z" fill="#E6E6E6"/>
<path d="M145.38 20.4167L145.932 20.9931L145.677 21.9812L144.883 22.332L144.793 22.1674L144.55 22.1351L144.349 21.3654L144.224 21.1363L144.392 21.0361L144.489 20.7855L144.997 20.4669L145.262 20.4919L145.38 20.4167Z" fill="#E6E6E6"/>
<path d="M130.251 16.4895L131.336 16.3355L131.751 16.6613L131.869 17.9L131.601 17.8928L131.132 18.1506L130.484 18.122L130.283 17.8391L129.907 17.8248L129.141 17.1912L129.6 16.536L129.983 16.6613L130.251 16.4895Z" fill="#E6E6E6"/>
<path d="M138.22 13.7257L138.972 14.1696L139.265 15.1828L138.449 15.5801L137.375 15.3009L137.676 14.141L138.22 13.7257Z" fill="#E6E6E6"/>
<path d="M153.163 166.502C153.163 167.716 123.274 168.697 86.4032 168.697C49.5328 168.697 19.647 167.716 19.647 166.502C19.647 165.289 49.5364 164.322 86.4032 164.322C123.27 164.322 153.163 165.289 153.163 166.502Z" fill="#F5F5F5"/>
<path d="M53.0984 20.159L57.5125 19.2855L59.1701 19.6112L56.3204 21.3117L53.0984 20.159Z" fill="#407BFF"/>
<path opacity="0.3" d="M53.0984 20.159L57.5125 19.2855L59.1701 19.6112L56.3204 21.3117L53.0984 20.159Z" fill="black"/>
<path d="M29.0159 14.4739L35.7069 11.7854C36.6916 11.3952 37.7672 11.2946 38.8072 11.4954L40.0888 11.746L36.6234 16.11L29.0159 14.4739Z" fill="#407BFF"/>
<path opacity="0.3" d="M29.0159 14.4739L35.7069 11.7854C36.6916 11.3952 37.7672 11.2946 38.8072 11.4954L40.0888 11.746L36.6234 16.11L29.0159 14.4739Z" fill="black"/>
<path d="M17.9501 13.2961C17.8764 13.3885 17.8216 13.4944 17.789 13.6079C17.7563 13.7215 17.7463 13.8403 17.7596 13.9577C17.7729 14.0751 17.8092 14.1887 17.8665 14.292C17.9237 14.3953 18.0008 14.4863 18.0933 14.5599C18.9572 15.3076 20.001 15.8172 21.1219 16.0384L55.447 22.7581L56.768 21.8129L56.4494 20.3523L22.5539 12.6481C21.5454 12.4331 20.5004 12.4588 19.5038 12.7233L18.4763 12.9775C18.2686 13.0179 18.0821 13.1308 17.9501 13.2961Z" fill="#407BFF"/>
<path d="M39.2015 23.62L39.1628 23.8021L54.0138 26.9588L54.0525 26.7767L39.2015 23.62Z" fill="#407BFF"/>
<path d="M41.1242 14.0739L41.0854 14.256L50.7643 16.3134L50.803 16.1313L41.1242 14.0739Z" fill="#407BFF"/>
<path d="M56.8265 27.3677L56.7878 27.5497L60.7659 28.3953L60.8046 28.2132L56.8265 27.3677Z" fill="#407BFF"/>
<path opacity="0.3" d="M19.3892 15.394L19.5145 15.4549C20.025 15.7061 20.565 15.8925 21.1219 16.0098L55.4469 22.7294C55.6093 22.7562 55.775 22.7562 55.9374 22.7294C55.8034 22.6469 55.6553 22.5898 55.5006 22.5612L21.9811 15.4012C21.1262 15.2267 20.245 15.2242 19.3892 15.394Z" fill="black"/>
<path d="M52.9697 21.1614L55.9841 25.0994L57.6416 25.4252L56.7788 21.7843L52.9697 21.1614Z" fill="#407BFF"/>
<path d="M52.4685 19.5432L56.9256 16.3821L58.4722 16.6864L56.4602 20.3237L52.4685 19.5432Z" fill="#407BFF"/>
<path d="M27.8953 15.9811L33.1328 25.418C33.5215 26.1152 34.0576 26.7191 34.7038 27.1878C35.3499 27.6565 36.0905 27.9786 36.8739 28.1316L36.3154 17.6243L27.8953 15.9811Z" fill="#407BFF"/>
<g opacity="0.5">
<path d="M45.0359 18.9071L44.8777 19.6787L45.2985 19.765L45.4568 18.9934L45.0359 18.9071Z" fill="white"/>
<path d="M44.1808 18.7409L44.0227 19.5125L44.4436 19.5987L44.6017 18.8271L44.1808 18.7409Z" fill="white"/>
<path d="M43.3295 18.5638L43.1714 19.3353L43.5922 19.4216L43.7503 18.65L43.3295 18.5638Z" fill="white"/>
<path d="M42.4777 18.393L42.3196 19.1646L42.7404 19.2508L42.8985 18.4792L42.4777 18.393Z" fill="white"/>
<path d="M41.622 18.2186L41.4639 18.9902L41.8847 19.0764L42.0428 18.3049L41.622 18.2186Z" fill="white"/>
<path d="M40.7665 18.0443L40.6084 18.8159L41.0293 18.9021L41.1874 18.1305L40.7665 18.0443Z" fill="white"/>
<path d="M39.9074 17.8664L39.7493 18.6379L40.1701 18.7242L40.3282 17.9526L39.9074 17.8664Z" fill="white"/>
<path d="M39.0476 17.6757L38.8894 18.4472L39.3102 18.5335L39.4685 17.762L39.0476 17.6757Z" fill="white"/>
<path d="M38.1962 17.5141L38.0381 18.2856L38.4589 18.3719L38.617 17.6003L38.1962 17.5141Z" fill="white"/>
<path d="M37.3414 17.3355L37.1833 18.1071L37.6042 18.1933L37.7623 17.4218L37.3414 17.3355Z" fill="white"/>
<path d="M36.486 17.1569L36.3279 17.9284L36.7522 18.0154L36.9103 17.2438L36.486 17.1569Z" fill="white"/>
<path d="M35.6383 16.9876L35.4802 17.7592L35.9011 17.8454L36.0592 17.0738L35.6383 16.9876Z" fill="white"/>
<path d="M34.7769 16.8001L34.6187 17.5717L35.0395 17.658L35.1977 16.8864L34.7769 16.8001Z" fill="white"/>
<path d="M33.9193 16.6302L33.7612 17.4018L34.1856 17.4887L34.3437 16.7172L33.9193 16.6302Z" fill="white"/>
<path d="M33.0639 16.4602L32.9058 17.2318L33.3301 17.3187L33.4882 16.5471L33.0639 16.4602Z" fill="white"/>
<path d="M32.2125 16.283L32.0544 17.0546L32.4753 17.1408L32.6334 16.3693L32.2125 16.283Z" fill="white"/>
<path d="M31.3534 16.1037L31.1953 16.8752L31.6197 16.9622L31.7778 16.1906L31.3534 16.1037Z" fill="white"/>
<path d="M30.4979 15.9336L30.3398 16.7052L30.7642 16.7922L30.9223 16.0206L30.4979 15.9336Z" fill="white"/>
<path d="M29.6503 15.7601L29.4922 16.5316L29.913 16.6179L30.0711 15.8463L29.6503 15.7601Z" fill="white"/>
<path d="M28.7915 15.5686L28.6333 16.3401L29.0541 16.4265L29.2124 15.6549L28.7915 15.5686Z" fill="white"/>
<path d="M27.9347 15.4113L27.7766 16.1829L28.201 16.2698L28.3591 15.4982L27.9347 15.4113Z" fill="white"/>
<path d="M27.0792 15.2334L26.9211 16.0049L27.342 16.0912L27.5001 15.3196L27.0792 15.2334Z" fill="white"/>
</g>
<path opacity="0.5" d="M18.2222 13.0706L21.2759 13.6935C21.3785 13.7134 21.4847 13.6918 21.5713 13.6334C21.6579 13.575 21.7178 13.4846 21.7377 13.382C21.7577 13.2795 21.7361 13.1732 21.6776 13.0866C21.6192 13 21.5288 12.9401 21.4263 12.9202L19.9119 12.6266C19.7687 12.6517 19.6291 12.6875 19.4895 12.7233L18.462 12.9775C18.3786 12.9988 18.2981 13.03 18.2222 13.0706Z" fill="white"/>
<path d="M157.609 66.5665C158.062 65.3314 158.167 63.9961 157.915 62.7051C157.663 61.4141 157.063 60.2166 156.18 59.2421C155.297 58.2676 154.163 57.5531 152.903 57.176C151.643 56.7989 150.304 56.7736 149.03 57.1026C147.757 57.4317 146.598 58.1027 145.678 59.0431C144.758 59.9835 144.113 61.1574 143.813 62.4379C143.512 63.7184 143.567 65.0567 143.972 66.3081C144.377 67.5596 145.117 68.6764 146.11 69.5379L146.139 71.6859L148.251 70.8088L148.362 70.8554C150.157 71.5113 152.139 71.428 153.873 70.6239C155.607 69.8198 156.951 68.3605 157.609 66.5665Z" fill="#407BFF"/>
<path d="M158.777 62.65C158.755 62.6501 158.734 62.6421 158.718 62.6275C158.702 62.6129 158.692 62.5928 158.691 62.5713C158.555 61.4179 158.138 60.3156 157.476 59.3612C156.814 58.4067 155.928 57.6294 154.896 57.0975C154.875 57.0867 154.86 57.0684 154.852 57.0464C154.845 57.0243 154.846 57.0003 154.856 56.9793C154.861 56.9683 154.869 56.9585 154.877 56.9503C154.886 56.9422 154.897 56.9359 154.908 56.9319C154.92 56.9279 154.932 56.9262 154.944 56.927C154.956 56.9278 154.967 56.9309 154.978 56.9364C156.037 57.4825 156.945 58.2804 157.623 59.2599C158.301 60.2393 158.728 61.3703 158.866 62.5534C158.868 62.565 158.867 62.5767 158.863 62.5879C158.86 62.5991 158.855 62.6096 158.847 62.6186C158.84 62.6277 158.831 62.6351 158.821 62.6405C158.81 62.6459 158.799 62.6492 158.787 62.65H158.777Z" fill="#407BFF"/>
<path d="M158.823 64.798H158.802C158.779 64.7921 158.759 64.7775 158.747 64.7575C158.735 64.7374 158.732 64.7134 158.737 64.6906C158.816 64.3536 158.826 64.004 158.766 63.6632C158.763 63.6516 158.763 63.6396 158.765 63.628C158.767 63.6164 158.772 63.6053 158.779 63.5956C158.786 63.5858 158.794 63.5776 158.804 63.5714C158.814 63.5651 158.826 63.561 158.837 63.5593C158.849 63.5567 158.861 63.5566 158.872 63.5588C158.884 63.5611 158.895 63.5657 158.905 63.5724C158.915 63.5792 158.923 63.5878 158.929 63.5979C158.935 63.608 158.939 63.6192 158.941 63.6309C159.006 63.9968 158.995 64.3721 158.909 64.7336C158.903 64.7522 158.892 64.7685 158.877 64.7801C158.861 64.7917 158.842 64.798 158.823 64.798Z" fill="#407BFF"/>
<path d="M150.718 67.2575L147.414 64.7945L148.273 63.6417L150.489 65.2921L153.535 61.6584L154.638 62.582L150.718 67.2575Z" fill="white"/>
<path d="M129.557 29.8751H38.1018C36.6328 29.8751 35.4419 31.066 35.4419 32.5351V162.085C35.4419 163.554 36.6328 164.744 38.1018 164.744H129.557C131.026 164.744 132.216 163.554 132.216 162.085V32.5351C132.216 31.066 131.026 29.8751 129.557 29.8751Z" fill="#407BFF"/>
<path opacity="0.3" d="M128.701 43.3252H38.9575V159.7H128.701V43.3252Z" fill="black"/>
<path d="M128.862 34.8262H39.1187V156.145H128.862V34.8262Z" fill="white"/>
<path d="M50.8717 44.3025H57.4231C57.8456 44.3025 58.2508 44.4703 58.5496 44.7691C58.8483 45.0679 59.0162 45.4731 59.0162 45.8956V52.447C59.0162 52.8686 58.8487 53.2729 58.5506 53.571C58.2525 53.869 57.8482 54.0365 57.4267 54.0365H50.8717C50.4492 54.0365 50.0439 53.8687 49.7452 53.5699C49.4464 53.2711 49.2786 52.8659 49.2786 52.4434V45.8956C49.2781 45.6863 49.319 45.4789 49.3989 45.2854C49.4788 45.0919 49.5961 44.9161 49.7441 44.7681C49.8922 44.62 50.068 44.5027 50.2615 44.4228C50.455 44.3429 50.6623 44.302 50.8717 44.3025Z" fill="#407BFF"/>
<path d="M62.9542 47.7858H61.8301V47.1235H64.8874V47.7858H63.7669V50.6498H62.9542V47.7858Z" fill="#263238"/>
<path d="M67.5617 50.6355L66.8851 49.6546H66.1369V50.6355H65.3242V47.1236H66.8421C67.1212 47.1176 67.3982 47.1713 67.6548 47.2811C67.8734 47.3733 68.06 47.528 68.1912 47.7257C68.3223 47.9234 68.3923 48.1554 68.3923 48.3927C68.3923 48.6299 68.3223 48.862 68.1912 49.0597C68.06 49.2574 67.8734 49.412 67.6548 49.5043L68.4388 50.6355H67.5617ZM67.3541 47.9434C67.1929 47.8282 66.9968 47.7726 66.7992 47.7859H66.1369V49.0102H66.7992C66.9974 49.0243 67.1942 48.9672 67.3541 48.8491C67.4153 48.7906 67.464 48.7203 67.4972 48.6425C67.5305 48.5647 67.5477 48.4809 67.5477 48.3962C67.5477 48.3116 67.5305 48.2278 67.4972 48.15C67.464 48.0722 67.4153 48.0019 67.3541 47.9434Z" fill="#263238"/>
<path d="M71.3207 49.8837H69.6918L69.3804 50.6355H68.5498L70.1143 47.1235H70.9162L72.4842 50.6355H71.6322L71.3207 49.8837ZM71.0665 49.2644L70.526 47.9219L69.9711 49.2644H71.0665Z" fill="#263238"/>
<path d="M76.0319 47.1235L74.514 50.6355H73.7121L72.1978 47.1235H73.0749L74.1489 49.6295L75.2229 47.1235H76.0319Z" fill="#263238"/>
<path d="M79.0427 49.984V50.6355H76.3254V47.1235H78.9746V47.7751H77.1309V48.5376H78.7598V49.1713H77.1309V49.984H79.0427Z" fill="#263238"/>
<path d="M79.687 47.1235H80.4997V49.9875H82.261V50.6498H79.687V47.1235Z" fill="#263238"/>
<path d="M84.1299 47.1235H84.9425V50.6355H84.1299V47.1235Z" fill="#263238"/>
<path d="M88.9987 47.1235V50.6355H88.3292L86.5822 48.4875V50.6355H85.7803V47.1235H86.4497L88.1968 49.2715V47.1235H88.9987Z" fill="#263238"/>
<path d="M90.1766 50.5818C89.9526 50.5234 89.7414 50.4239 89.5537 50.2883L89.8294 49.6761C89.9922 49.7939 90.1738 49.8835 90.3664 49.941C90.5673 50.0074 90.7776 50.0412 90.9893 50.0412C91.1647 50.0538 91.3402 50.0192 91.4977 49.941C91.5477 49.9142 91.5897 49.8745 91.6193 49.8261C91.6489 49.7776 91.665 49.7221 91.6659 49.6653C91.6665 49.6253 91.6577 49.5857 91.6403 49.5497C91.6229 49.5136 91.5974 49.4821 91.5657 49.4577C91.4918 49.3973 91.4066 49.3522 91.3151 49.3252C91.2148 49.293 91.0752 49.2536 90.9034 49.2143C90.6798 49.1657 90.4598 49.1023 90.2447 49.0245C90.0758 48.9613 89.9256 48.8567 89.8079 48.7202C89.6805 48.5614 89.6155 48.3615 89.6253 48.1582C89.6225 47.9607 89.6799 47.7672 89.79 47.6033C89.9143 47.4266 90.0872 47.2898 90.2876 47.2095C90.5468 47.1052 90.8246 47.0552 91.1039 47.0627C91.3248 47.0631 91.5448 47.0908 91.759 47.145C91.9572 47.1915 92.1468 47.2689 92.3211 47.3741L92.0705 47.9935C91.7762 47.8164 91.4401 47.7213 91.0967 47.7178C90.9228 47.7056 90.7491 47.7428 90.5955 47.8252C90.5447 47.8554 90.5027 47.8984 90.4738 47.9499C90.4449 48.0015 90.4301 48.0597 90.4308 48.1188C90.4313 48.1771 90.4497 48.2339 90.4837 48.2813C90.5177 48.3287 90.5655 48.3645 90.6206 48.3837C90.8046 48.4627 90.9966 48.5215 91.1934 48.5591C91.4154 48.6088 91.6342 48.6721 91.8485 48.7489C92.0177 48.8116 92.1689 48.9148 92.2888 49.0496C92.417 49.2052 92.4821 49.4032 92.4714 49.6045C92.4725 49.8011 92.4138 49.9933 92.3031 50.1558C92.1768 50.3334 92.0014 50.4702 91.7984 50.5496C91.5389 50.6526 91.2611 50.7013 90.9821 50.6928C90.7097 50.6939 90.4386 50.6565 90.1766 50.5818Z" fill="#263238"/>
<path d="M93.4163 50.2775C93.2695 50.1182 93.1567 49.9307 93.0847 49.7263C93.0127 49.522 92.983 49.3051 92.9975 49.089V47.1236H93.7958V49.046C93.7958 49.6725 94.0571 49.9876 94.5762 49.9876C94.6845 49.9961 94.7933 49.9799 94.8944 49.9403C94.9955 49.9006 95.0863 49.8384 95.1598 49.7584C95.3097 49.5512 95.3808 49.2974 95.3603 49.0424V47.1057H96.1622V49.0711C96.1767 49.2872 96.147 49.5041 96.075 49.7084C96.003 49.9128 95.8901 50.1003 95.7433 50.2596C95.4123 50.5282 94.999 50.6748 94.5727 50.6748C94.1464 50.6748 93.733 50.5282 93.402 50.2596L93.4163 50.2775Z" fill="#263238"/>
<path d="M99.216 50.6355L98.5394 49.6546H97.7912V50.6355H96.9785V47.1236H98.4964C98.7754 47.1176 99.0525 47.1713 99.3091 47.2811C99.5277 47.3733 99.7143 47.528 99.8455 47.7257C99.9766 47.9234 100.047 48.1554 100.047 48.3927C100.047 48.6299 99.9766 48.862 99.8455 49.0597C99.7143 49.2574 99.5277 49.412 99.3091 49.5043L100.093 50.6355H99.216ZM99.0084 47.9434C98.8472 47.8282 98.6511 47.7726 98.4535 47.7859H97.7912V49.0102H98.4499C98.6481 49.0243 98.8449 48.9672 99.0048 48.8491C99.0651 48.7901 99.113 48.7197 99.1457 48.6419C99.1784 48.5641 99.1952 48.4806 99.1952 48.3962C99.1952 48.3119 99.1784 48.2284 99.1457 48.1506C99.113 48.0728 99.0651 48.0024 99.0048 47.9434H99.0084Z" fill="#263238"/>
<path d="M102.975 49.8837H101.346L101.035 50.6355H100.204L101.765 47.1235H102.567L104.139 50.6355H103.286L102.975 49.8837ZM102.721 49.2644L102.162 47.9219L101.607 49.2644H102.721Z" fill="#263238"/>
<path d="M107.722 47.1235V50.6355H107.042L105.291 48.4875V50.6355H104.489V47.1235H105.162L106.906 49.2715V47.1235H107.722Z" fill="#263238"/>
<path d="M109.265 50.478C108.982 50.3309 108.745 50.1078 108.581 49.8336C108.419 49.5482 108.334 49.2256 108.334 48.8974C108.334 48.5693 108.419 48.2467 108.581 47.9613C108.745 47.6871 108.982 47.464 109.265 47.3169C109.564 47.1564 109.899 47.075 110.239 47.0806C110.522 47.0761 110.802 47.131 111.062 47.2417C111.306 47.3366 111.523 47.4889 111.696 47.6856L111.177 48.1689C111.067 48.0344 110.927 47.9272 110.769 47.8558C110.61 47.7844 110.437 47.7506 110.264 47.7572C110.061 47.7532 109.861 47.8025 109.684 47.9004C109.515 47.9906 109.377 48.1289 109.287 48.2978C109.192 48.4773 109.143 48.6769 109.143 48.8795C109.143 49.0822 109.192 49.2818 109.287 49.4613C109.378 49.6294 109.516 49.7675 109.684 49.8587C109.861 49.9565 110.061 50.0059 110.264 50.0019C110.433 50.0034 110.6 49.9668 110.753 49.895C110.906 49.8231 111.041 49.7177 111.148 49.5866L111.667 50.0663C111.502 50.2708 111.289 50.4318 111.048 50.5353C110.786 50.6427 110.504 50.6962 110.221 50.6928C109.889 50.7023 109.561 50.6284 109.265 50.478Z" fill="#263238"/>
<path d="M114.946 49.984V50.6355H112.229V47.1235H114.882V47.7751H113.038V48.5376H114.667V49.1713H113.038V49.984H114.946Z" fill="#263238"/>
<path d="M118.376 59.4495H49.2786V63.1834H118.376V59.4495Z" fill="#E0E0E0"/>
<path d="M118.376 85.9487H49.2786V89.6826H118.376V85.9487Z" fill="#E0E0E0"/>
<path d="M118.376 145.226H49.2786V148.96H118.376V145.226Z" fill="#E0E0E0"/>
<path d="M118.376 68.2241H49.2786V68.5821H118.376V68.2241Z" fill="#263238"/>
<path d="M118.376 73.9986H49.2786V74.3566H118.376V73.9986Z" fill="#263238"/>
<path d="M118.376 79.7767H49.2786V80.1347H118.376V79.7767Z" fill="#263238"/>
<path d="M118.376 96.3772H49.2786V96.7352H118.376V96.3772Z" fill="#263238"/>
<path d="M118.376 103.845H62.0127V104.203H118.376V103.845Z" fill="#263238"/>
<path d="M118.376 109.108H62.0127V109.466H118.376V109.108Z" fill="#263238"/>
<path d="M59.3312 110.751H49.855V101.275H59.3312V110.751ZM50.213 110.393H58.9732V101.633H50.213V110.393Z" fill="#263238"/>
<path d="M118.376 118.051H62.0127V118.409H118.376V118.051Z" fill="#263238"/>
<path d="M118.376 123.313H62.0127V123.671H118.376V123.313Z" fill="#263238"/>
<path d="M59.3312 124.942H49.855V115.48H59.3312V124.942ZM50.213 124.584H58.9732V115.838H50.213V124.584Z" fill="#263238"/>
<path d="M118.376 132.256H62.0127V132.614H118.376V132.256Z" fill="#263238"/>
<path d="M118.376 137.519H62.0127V137.877H118.376V137.519Z" fill="#263238"/>
<path d="M59.3312 139.162H49.855V129.682H59.3312V139.162ZM50.213 138.804H58.9732V130.04H50.213V138.804Z" fill="#263238"/>
<path d="M50.3991 47.546C50.8574 47.0161 52.0388 47.3491 52.8515 47.7823C52.8515 47.7823 53.4099 48.0472 53.6176 48.1832L55.515 47.9469C55.6686 47.9295 55.824 47.9569 55.9625 48.0257L56.12 48.1045C56.1383 48.1126 56.1539 48.1259 56.1649 48.1428C56.1758 48.1596 56.1816 48.1793 56.1816 48.1993C56.1816 48.2194 56.1758 48.2391 56.1649 48.2559C56.1539 48.2727 56.1383 48.286 56.12 48.2942L54.7238 48.8921L56.1021 49.7978H56.1236C56.3831 49.9655 56.6966 50.0282 57.0007 49.9732L57.7381 49.8408C57.7744 49.8301 57.8129 49.8301 57.8491 49.8408C57.8789 49.8528 57.905 49.8723 57.925 49.8974C57.945 49.9225 57.9582 49.9524 57.9632 49.9841C57.9683 50.0158 57.965 50.0483 57.9538 50.0784C57.9426 50.1085 57.9238 50.1351 57.8992 50.1558L57.0436 50.8718C56.9779 50.9268 56.8977 50.9618 56.8127 50.9726C56.7277 50.9834 56.6413 50.9695 56.5639 50.9327L56.163 50.7501L54.1402 49.7835L54.373 50.9398C54.3745 50.951 54.3736 50.9624 54.3703 50.9733C54.3671 50.9841 54.3615 50.9941 54.354 51.0026C54.3466 51.0111 54.3374 51.0179 54.327 51.0225C54.3167 51.0271 54.3055 51.0294 54.2942 51.0293H54.1975C54.1332 51.0253 54.0708 51.0056 54.0159 50.9719C53.961 50.9382 53.9152 50.8915 53.8825 50.836L53.0662 49.2787L50.6784 48.1403C50.3562 48.0293 50.2416 47.7572 50.3991 47.546Z" fill="white"/>
<path d="M55.7657 109.634L50.7751 105.914L52.0711 104.174L55.4184 106.666L60.0187 101.182L61.6798 102.574L55.7657 109.634Z" fill="#407BFF"/>
<path d="M55.7657 123.531L50.7751 119.815L52.0711 118.072L55.4184 120.564L60.0187 115.079L61.6798 116.475L55.7657 123.531Z" fill="#407BFF"/>
<path d="M55.7657 137.429L50.7751 133.713L52.0711 131.973L55.4184 134.465L60.0187 128.977L61.6798 130.373L55.7657 137.429Z" fill="#407BFF"/>
<path d="M99.1765 27.541H68.478V39.1187H99.1765V27.541Z" fill="#263238"/>
<path d="M93.5453 28.7116H75.5952L73.594 19.8941H96.0048L93.5453 28.7116Z" fill="#263238"/>
<path opacity="0.3" d="M94.1718 19.8941C94.1504 19.9478 91.7804 27.4407 91.8377 27.4407H93.8747L96.0227 19.8941H94.1718Z" fill="black"/>
<path opacity="0.3" d="M97.1934 27.541C97.1934 27.541 97.0466 39.1223 97.1934 39.1223H99.166V27.541H97.1934Z" fill="black"/>
<path d="M126.617 85.0823L119.572 99.635L111.173 108.531L113.031 110.132C113.031 110.132 121.104 104.586 123.356 101.514C125.461 98.6505 129.388 89.3425 129.388 89.3425L126.617 85.0823Z" fill="#B97964"/>
<path d="M111.181 108.531C110.125 108.649 109.452 108.37 108.227 108.037C108.041 107.961 107.848 107.903 107.651 107.862C107.574 107.857 107.499 107.876 107.434 107.917C107.37 107.959 107.32 108.019 107.293 108.091C107.292 108.186 107.31 108.28 107.345 108.368C107.381 108.456 107.434 108.536 107.5 108.603C107.852 108.914 108.259 109.156 108.7 109.319C108.259 109.539 107.869 109.85 107.558 110.232C107.41 110.428 107.331 110.667 107.332 110.912C107.338 111.033 107.39 111.147 107.476 111.232C107.562 111.316 107.677 111.366 107.798 111.37C107.81 111.566 107.887 111.752 108.017 111.899C108.146 112.046 108.321 112.146 108.514 112.183C108.61 112.466 108.804 112.766 109.097 112.781C109.198 112.766 109.3 112.766 109.401 112.781C109.491 112.817 109.548 112.902 109.623 112.96C109.867 113.16 110.232 113.049 110.526 112.92C111.693 112.405 112.273 111.13 113.032 110.103" fill="#B97964"/>
<path d="M108.224 110.318C108.988 110.32 109.72 110.624 110.261 111.165C110.801 111.706 111.104 112.439 111.105 113.203V146.422C111.1 147.183 110.794 147.911 110.254 148.447C109.714 148.984 108.984 149.285 108.224 149.286H105.145C104.383 149.285 103.653 148.984 103.113 148.447C102.573 147.911 102.266 147.183 102.259 146.422V113.203C102.26 112.438 102.564 111.705 103.105 111.164C103.646 110.623 104.38 110.319 105.145 110.318H108.224ZM108.224 109.763H105.145C104.233 109.767 103.361 110.13 102.716 110.775C102.072 111.419 101.708 112.292 101.704 113.203V146.422C101.708 147.333 102.072 148.205 102.716 148.849C103.361 149.493 104.234 149.856 105.145 149.859H108.224C109.134 149.856 110.007 149.493 110.651 148.849C111.294 148.205 111.657 147.333 111.66 146.422V113.203C111.657 112.292 111.295 111.419 110.651 110.775C110.007 110.13 109.134 109.767 108.224 109.763Z" fill="black"/>
<path d="M114.413 168.364C115.133 168.364 115.716 167.78 115.716 167.061C115.716 166.341 115.133 165.758 114.413 165.758C113.694 165.758 113.11 166.341 113.11 167.061C113.11 167.78 113.694 168.364 114.413 168.364Z" fill="black"/>
<path d="M111.13 167.061C111.134 167.319 111.061 167.573 110.92 167.79C110.779 168.006 110.578 168.177 110.34 168.279C110.103 168.381 109.841 168.41 109.586 168.363C109.332 168.317 109.098 168.195 108.913 168.015C108.727 167.835 108.6 167.604 108.546 167.351C108.492 167.098 108.514 166.835 108.61 166.595C108.705 166.355 108.87 166.149 109.083 166.002C109.296 165.856 109.547 165.775 109.806 165.772C109.977 165.77 110.148 165.801 110.307 165.865C110.467 165.928 110.612 166.022 110.735 166.142C110.858 166.262 110.956 166.404 111.024 166.562C111.092 166.72 111.128 166.889 111.13 167.061Z" fill="black"/>
<path d="M103.623 167.061C103.623 167.318 103.547 167.57 103.403 167.785C103.26 167.999 103.057 168.166 102.819 168.265C102.581 168.363 102.319 168.389 102.066 168.339C101.813 168.288 101.581 168.164 101.399 167.982C101.216 167.8 101.092 167.568 101.042 167.315C100.992 167.062 101.017 166.8 101.116 166.562C101.215 166.324 101.382 166.12 101.596 165.977C101.81 165.834 102.062 165.758 102.32 165.758C102.666 165.758 102.997 165.895 103.241 166.139C103.486 166.384 103.623 166.715 103.623 167.061Z" fill="black"/>
<path d="M97.7304 168.364C98.4501 168.364 99.0335 167.78 99.0335 167.061C99.0335 166.341 98.4501 165.758 97.7304 165.758C97.0107 165.758 96.4272 166.341 96.4272 167.061C96.4272 167.78 97.0107 168.364 97.7304 168.364Z" fill="black"/>
<path d="M116.5 132.102H97.9381C96.995 132.102 96.2305 132.867 96.2305 133.81V164.526C96.2305 165.469 96.995 166.234 97.9381 166.234H116.5C117.444 166.234 118.208 165.469 118.208 164.526V133.81C118.208 132.867 117.444 132.102 116.5 132.102Z" fill="#407BFF"/>
<path opacity="0.5" d="M116.5 132.102H97.9381C96.995 132.102 96.2305 132.867 96.2305 133.81V164.526C96.2305 165.469 96.995 166.234 97.9381 166.234H116.5C117.444 166.234 118.208 165.469 118.208 164.526V133.81C118.208 132.867 117.444 132.102 116.5 132.102Z" fill="black"/>
<path d="M112.305 132.102H95.8187C94.8756 132.102 94.1111 132.867 94.1111 133.81V164.526C94.1111 165.469 94.8756 166.234 95.8187 166.234H112.305C113.248 166.234 114.012 165.469 114.012 164.526V133.81C114.012 132.867 113.248 132.102 112.305 132.102Z" fill="#407BFF"/>
<path opacity="0.3" d="M112.305 132.102H95.8187C94.8756 132.102 94.1111 132.867 94.1111 133.81V164.526C94.1111 165.469 94.8756 166.234 95.8187 166.234H112.305C113.248 166.234 114.012 165.469 114.012 164.526V133.81C114.012 132.867 113.248 132.102 112.305 132.102Z" fill="black"/>
<path opacity="0.3" d="M98.0921 162.94C97.8699 162.94 97.6569 162.852 97.4998 162.695C97.3427 162.538 97.2544 162.325 97.2544 162.102V137.644C97.2544 137.422 97.3427 137.209 97.4998 137.051C97.6569 136.894 97.8699 136.806 98.0921 136.806C98.3143 136.806 98.5274 136.894 98.6845 137.051C98.8416 137.209 98.9298 137.422 98.9298 137.644V162.102C98.9298 162.325 98.8416 162.538 98.6845 162.695C98.5274 162.852 98.3143 162.94 98.0921 162.94Z" fill="white"/>
<path opacity="0.3" d="M102.159 162.94C102.048 162.941 101.939 162.92 101.836 162.878C101.734 162.837 101.64 162.775 101.562 162.697C101.483 162.619 101.421 162.527 101.378 162.425C101.336 162.323 101.314 162.213 101.314 162.102V137.644C101.314 137.422 101.402 137.209 101.559 137.051C101.716 136.894 101.93 136.806 102.152 136.806C102.374 136.806 102.587 136.894 102.744 137.051C102.901 137.209 102.989 137.422 102.989 137.644V162.102C102.989 162.323 102.902 162.535 102.747 162.692C102.591 162.849 102.38 162.938 102.159 162.94Z" fill="white"/>
<path opacity="0.3" d="M106.211 162.94C105.989 162.94 105.776 162.852 105.619 162.695C105.462 162.538 105.374 162.325 105.374 162.102V137.644C105.374 137.422 105.462 137.209 105.619 137.051C105.776 136.894 105.989 136.806 106.211 136.806C106.434 136.806 106.647 136.894 106.804 137.051C106.961 137.209 107.049 137.422 107.049 137.644V162.102C107.049 162.325 106.961 162.538 106.804 162.695C106.647 162.852 106.434 162.94 106.211 162.94Z" fill="white"/>
<path opacity="0.3" d="M110.264 162.94C110.042 162.94 109.829 162.852 109.672 162.695C109.515 162.538 109.426 162.325 109.426 162.102V137.644C109.426 137.422 109.515 137.209 109.672 137.051C109.829 136.894 110.042 136.806 110.264 136.806C110.486 136.806 110.699 136.894 110.856 137.051C111.013 137.209 111.102 137.422 111.102 137.644V162.102C111.102 162.325 111.013 162.538 110.856 162.695C110.699 162.852 110.486 162.94 110.264 162.94Z" fill="white"/>
<g opacity="0.3">
<path d="M108.363 109.48C108.903 109.44 109.445 109.544 109.932 109.782C110.419 110.019 110.834 110.382 111.134 110.833C111.193 110.905 111.236 110.989 111.259 111.08C111.283 111.17 111.287 111.264 111.27 111.356C111.232 111.441 111.176 111.516 111.106 111.578C111.036 111.64 110.954 111.686 110.866 111.714C110.633 111.821 110.84 111.488 110.593 111.553C110.465 111.585 110.178 111.424 110.046 111.392C109.903 111.355 109.777 111.272 109.688 111.155C109.28 110.722 108.596 110.797 108.334 110.25" fill="black"/>
</g>
<path d="M110.78 112.519C110.948 112.458 111.101 112.36 111.227 112.233C111.289 112.168 111.33 112.085 111.342 111.996C111.355 111.906 111.34 111.815 111.299 111.735C111.261 111.684 111.212 111.642 111.155 111.613C111.099 111.584 111.036 111.568 110.973 111.567C110.85 111.57 110.729 111.596 110.615 111.642C110.445 111.709 110.282 111.792 110.128 111.889C110.26 111.805 110.38 111.704 110.486 111.589C110.538 111.53 110.578 111.461 110.602 111.387C110.627 111.312 110.636 111.234 110.629 111.155C110.62 111.086 110.587 111.021 110.536 110.973C110.479 110.936 110.415 110.914 110.348 110.907C110.28 110.9 110.213 110.909 110.15 110.933C109.871 111.008 109.613 111.143 109.394 111.331C109.494 111.203 109.604 111.083 109.723 110.973C109.845 110.868 109.935 110.732 109.985 110.579C110.01 110.503 110.011 110.422 109.988 110.345C109.966 110.268 109.921 110.2 109.86 110.149C109.795 110.106 109.722 110.077 109.645 110.066C109.568 110.054 109.49 110.059 109.416 110.081C109.183 110.152 108.964 110.261 108.768 110.404C108.951 110.27 109.107 110.104 109.229 109.913C109.266 109.864 109.29 109.806 109.297 109.745C109.297 109.627 109.187 109.541 109.076 109.498C108.849 109.429 108.605 109.449 108.392 109.552C108.034 109.725 107.728 109.989 107.504 110.318C107.504 110.318 107.987 110.79 108.027 110.815L110.311 112.412L110.78 112.519Z" fill="#B97964"/>
<path d="M142.559 90.8308L142.225 90.9606L152.209 116.609L152.543 116.479L142.559 90.8308Z" fill="#407BFF"/>
<path d="M159.976 129.761C157.312 129.184 154.541 129.467 151.846 129.872C146.723 130.634 141.621 131.826 136.939 134.039C131.268 134.791 123.374 134.805 121.903 136.949C136.545 142.942 153.861 136.538 160.495 132.489C161.039 132.156 161.641 131.683 161.605 131.057C161.555 130.312 160.703 129.918 159.976 129.761Z" fill="#407BFF"/>
<g opacity="0.2">
<path d="M159.976 129.761C157.312 129.184 154.541 129.467 151.846 129.872C146.723 130.634 141.621 131.826 136.939 134.039C131.268 134.791 123.374 134.805 121.903 136.949C136.545 142.942 153.861 136.538 160.495 132.489C161.039 132.156 161.641 131.683 161.605 131.057C161.555 130.312 160.703 129.918 159.976 129.761Z" fill="black"/>
</g>
<path d="M142.788 85.0823C142.788 85.0823 143.862 85.3723 144.908 87.5274C145.624 89.0131 149.372 97.5228 149.662 98.9834C150.12 101.246 150.317 114.202 150.317 114.202H147.983C147.983 114.202 145.667 100.462 145.62 100.322C145.574 100.183 140.465 90.0298 140.465 90.0298L142.788 85.0823Z" fill="#B97964"/>
<path d="M152.941 142.627C151.968 140.991 150.256 139.377 149.619 138.009C149.061 136.828 149.125 135.9 148.187 133.079C147.052 129.66 145.259 125.203 142.892 122.185C142.892 122.185 144.525 117.009 140.408 112.913L137.705 110.339L127.402 113.175L143.046 139.688L157.903 161.526L160.685 160.337C159.002 155.261 155.644 147.399 152.941 142.627Z" fill="#B97964"/>
<path opacity="0.2" d="M147.582 131.071L140.88 135.009V136.083L141.41 136.935L142.001 137.937C142.001 137.937 143.393 136.989 144.865 136.058C146.336 135.127 148.445 133.817 148.445 133.817L147.582 131.071Z" fill="black"/>
<path d="M158.845 169.205C159.011 168.718 159.253 168.261 159.561 167.848C159.561 167.848 160.019 165.98 158.401 162.811L159.711 161.222C159.919 160.969 160.187 160.771 160.489 160.647C160.792 160.522 161.121 160.473 161.447 160.506C161.527 160.519 161.604 160.544 161.676 160.581C161.983 160.802 162.272 161.047 162.539 161.315C163.421 162.233 164.231 163.218 164.963 164.261L164.673 164.508L163.058 162.718C162.532 162.095 162.468 163.388 162.836 164.215C163.205 165.042 163.416 166.105 161.615 167.623C159.561 169.373 158.63 170.05 158.845 169.205Z" fill="black"/>
<path d="M157.406 160.62C158.064 162.026 158.643 163.467 159.138 164.938C159.491 165.87 159.633 166.869 159.554 167.863C159.554 167.863 161.064 166.925 161.089 165.743C161.114 164.562 159.99 161.512 161.472 160.502C161.215 160.413 160.946 160.359 160.674 160.341L160.234 159.428C159.392 159.779 157.406 160.62 157.406 160.62Z" fill="#B97964"/>
<path d="M140.612 90.975L143.243 85.4797C142.058 83.6897 136.187 82.3472 136.187 82.3472L132.32 82.5584C132.32 82.5584 130.831 82.8913 129.56 83.3066C127.86 83.8615 126.943 84.3054 126.535 85.247C126.535 85.247 125.722 87.3484 126.252 91.6408C126.399 92.8294 126.8 99.6959 125.715 101.665L125.737 102.209C132.804 107.711 138.782 106.791 138.782 106.791C138.464 105.818 138.496 102.614 138.353 101.665C138.397 100.23 138.589 98.8037 138.926 97.4082C139.022 97.018 140.44 91.3723 140.612 90.975Z" fill="#B97964"/>
<path d="M142.756 80.2314C143.085 77.1741 140.855 77.9258 141.149 74.0165C141.467 69.7205 137.375 68.6465 137.375 68.6465C137.375 68.6465 135.943 66.7563 133.999 66.2264C131.493 65.5498 125.071 67.2038 126.546 72.6418C127.423 75.8853 126.886 75.7528 126.399 77.1096C125.708 79.0285 127.366 81.6598 125.54 82.8376C125.54 82.8376 132.56 82.6944 140.067 83.1276C140.067 83.1025 142.556 82.0965 142.756 80.2314Z" fill="#263238"/>
<path d="M137.146 82.9629C136.142 83.5017 135.203 84.154 134.347 84.9068C134.027 85.1862 133.675 85.4265 133.298 85.6228C132.285 86.1634 131.365 86.4677 131.114 85.9808C131.056 85.8673 131.011 85.7471 130.982 85.6228C130.77 84.8066 130.86 83.6574 131.519 83.1168C132.263 82.5226 132.621 82.0178 132.489 81.2159C132.402 80.7396 132.257 80.2757 132.059 79.834L132.922 79.3185L135.986 76.2253C135.636 78.1514 135.532 81.8388 137.146 82.9629Z" fill="#B97964"/>
<path opacity="0.2" d="M132.514 81.4199C133.355 80.9187 134.279 80.0524 134.168 79.0607C134.133 78.6944 134.054 78.3337 133.931 77.9867L132.217 80.2528C132.358 80.6299 132.457 81.0213 132.514 81.4199Z" fill="black"/>
<path d="M136.577 72.7671C136.291 75.9175 136.219 77.2492 134.608 78.9032C132.166 81.3841 128.404 80.55 127.759 77.4282C127.176 74.6215 127.759 69.9425 130.835 68.6179C131.489 68.3103 132.214 68.1835 132.934 68.2508C133.654 68.318 134.342 68.5768 134.929 69.0003C135.515 69.4238 135.977 69.9965 136.266 70.6589C136.556 71.3213 136.664 72.0492 136.577 72.7671Z" fill="#B97964"/>
<path d="M132.499 73.791C132.499 74.1239 132.303 74.3996 132.098 74.4031C131.894 74.4067 131.74 74.1418 131.74 73.8089C131.74 73.4759 131.934 73.2003 132.141 73.1967C132.349 73.1931 132.514 73.458 132.499 73.791Z" fill="#263238"/>
<path d="M129.396 73.7838C129.378 74.106 129.199 74.3709 128.991 74.3745C128.783 74.3781 128.633 74.1203 128.633 73.7981C128.633 73.4759 128.83 73.211 129.034 73.2074C129.238 73.2039 129.41 73.458 129.396 73.7838Z" fill="#263238"/>
<path d="M133.176 72.6311C133.156 72.6335 133.135 72.6316 133.115 72.6254C133.095 72.6192 133.077 72.609 133.061 72.5953C132.926 72.4658 132.761 72.3716 132.58 72.321C132.4 72.2704 132.21 72.265 132.027 72.3053C132.008 72.3118 131.988 72.3142 131.968 72.3124C131.949 72.3106 131.929 72.3046 131.912 72.2948C131.895 72.2849 131.88 72.2715 131.868 72.2554C131.856 72.2393 131.848 72.2209 131.844 72.2015C131.836 72.1608 131.843 72.1186 131.865 72.0829C131.886 72.0472 131.919 72.0206 131.959 72.0081C132.191 71.9514 132.433 71.9545 132.664 72.0171C132.894 72.0797 133.105 72.1998 133.276 72.3661C133.305 72.3955 133.32 72.4346 133.32 72.4753C133.32 72.516 133.305 72.5552 133.276 72.5845C133.25 72.6125 133.214 72.6292 133.176 72.6311Z" fill="#263238"/>
<path d="M128.35 72.2014C128.334 72.1964 128.319 72.1876 128.306 72.1758C128.294 72.164 128.284 72.1495 128.279 72.1334C128.266 72.0961 128.267 72.0556 128.282 72.0189C128.296 71.9823 128.323 71.9519 128.357 71.9329C128.545 71.8111 128.76 71.7392 128.983 71.7242C129.206 71.7091 129.43 71.7514 129.632 71.847C129.647 71.8578 129.661 71.8715 129.671 71.8874C129.681 71.9033 129.688 71.9211 129.692 71.9398C129.695 71.9584 129.694 71.9776 129.69 71.996C129.686 72.0145 129.679 72.032 129.668 72.0475C129.649 72.0808 129.618 72.1059 129.582 72.1178C129.545 72.1297 129.506 72.1276 129.471 72.1119C129.31 72.0385 129.132 72.0071 128.956 72.0209C128.779 72.0347 128.609 72.0931 128.461 72.1907C128.444 72.2002 128.426 72.2061 128.407 72.208C128.388 72.2098 128.368 72.2076 128.35 72.2014Z" fill="#263238"/>
<path d="M130.241 73.6298C129.957 74.301 129.605 74.9415 129.192 75.5415C129.172 75.5717 129.16 75.6059 129.155 75.6415C129.15 75.6771 129.153 75.7134 129.164 75.7476C129.175 75.7818 129.194 75.8132 129.218 75.8395C129.243 75.8657 129.273 75.8862 129.306 75.8995C129.583 75.9768 129.875 75.9768 130.151 75.8995L130.241 73.6298Z" fill="#A24E3F"/>
<path d="M132.27 73.211L131.554 73.0392C131.554 73.0392 131.944 73.5798 132.27 73.211Z" fill="#263238"/>
<path d="M129.123 73.2146L128.407 73.0427C128.407 73.0427 128.798 73.5797 129.123 73.2146Z" fill="#263238"/>
<path d="M135.485 73.8554C135.485 73.8554 133.86 71.4103 133.946 69.4305C133.946 69.4305 130.835 68.6179 128.357 71.9365C127.96 72.4628 127.727 73.3435 127.373 74.0845C127.373 74.0845 126.779 68.0916 132.095 67.6011C137.411 67.1107 138.446 74.575 135.857 77.0846C136.031 76.5512 136.088 75.9866 136.024 75.4294C135.959 74.8721 135.776 74.3353 135.485 73.8554Z" fill="#263238"/>
<path d="M137.529 75.334C137.365 75.6229 137.146 75.8767 136.883 76.0807C136.621 76.2846 136.321 76.4348 136.001 76.5225C135.166 76.7337 134.737 75.3912 135.02 74.5571C135.155 74.1833 135.42 73.87 135.766 73.6732C136.111 73.4764 136.516 73.409 136.906 73.4831C137.705 73.6335 137.955 74.5965 137.529 75.334Z" fill="#B97964"/>
<path opacity="0.2" d="M135.772 75.2552C135.76 75.2543 135.748 75.251 135.738 75.2457C135.727 75.2403 135.718 75.233 135.71 75.224C135.703 75.215 135.697 75.2046 135.693 75.1933C135.69 75.1821 135.688 75.1703 135.689 75.1585C135.7 74.9973 135.741 74.8397 135.813 74.6947C135.884 74.5497 135.983 74.4202 136.105 74.3136C136.352 74.1014 136.671 73.9925 136.996 74.0093C137.008 74.0102 137.019 74.0135 137.03 74.0188C137.04 74.0242 137.05 74.0315 137.057 74.0405C137.065 74.0495 137.071 74.0599 137.074 74.0712C137.078 74.0824 137.079 74.0942 137.078 74.106C137.078 74.1178 137.076 74.1294 137.071 74.1402C137.066 74.151 137.059 74.1606 137.051 74.1684C137.042 74.1762 137.031 74.182 137.02 74.1854C137.009 74.1889 136.997 74.1899 136.985 74.1883C136.707 74.1731 136.433 74.2669 136.223 74.4497C136.016 74.6333 135.887 74.8898 135.865 75.1657C135.866 75.178 135.864 75.1905 135.86 75.2022C135.856 75.2138 135.849 75.2243 135.84 75.2329C135.831 75.2416 135.82 75.248 135.808 75.2519C135.796 75.2557 135.784 75.2569 135.772 75.2552Z" fill="black"/>
<path d="M131.157 76.97C131.06 76.9703 130.962 76.9607 130.867 76.9413C130.844 76.9362 130.823 76.9221 130.81 76.9021C130.796 76.8821 130.791 76.8576 130.795 76.8339C130.798 76.8224 130.803 76.8115 130.81 76.8018C130.816 76.7921 130.825 76.7839 130.835 76.7776C130.845 76.7712 130.856 76.767 130.868 76.765C130.879 76.763 130.891 76.7633 130.903 76.7659C131.131 76.8227 131.371 76.7953 131.58 76.6888C131.79 76.5822 131.953 76.4036 132.041 76.186C132.043 76.1729 132.048 76.1605 132.056 76.1495C132.063 76.1386 132.073 76.1295 132.084 76.1228C132.096 76.1161 132.109 76.112 132.122 76.1109C132.135 76.1097 132.148 76.1115 132.161 76.1161C132.173 76.1207 132.184 76.128 132.194 76.1374C132.203 76.1469 132.21 76.1583 132.214 76.1708C132.219 76.1833 132.22 76.1966 132.219 76.2097C132.217 76.2229 132.213 76.2355 132.206 76.2468C132.121 76.4568 131.977 76.6373 131.79 76.7659C131.604 76.8945 131.383 76.9654 131.157 76.97Z" fill="#263238"/>
<path d="M124.362 110.583L123.206 137.615L124.133 163.81L127.391 164.648C128.823 159.471 130.004 149.297 130.341 143.991C130.42 142.173 129.832 140.075 130.036 138.643C130.215 137.383 130.803 136.584 131.572 133.727C132.503 130.269 133.445 125.644 133.069 122.064C133.069 122.064 137.443 118.126 136.148 112.913L124.362 110.583Z" fill="#B97964"/>
<path opacity="0.2" d="M123.206 137.615C123.206 137.615 124.477 136.405 126.814 136.756C129.152 137.107 130.258 137.698 130.258 137.698L130.892 135.933L125.522 134.415L123.195 135.567L123.206 137.615Z" fill="black"/>
<path d="M120.03 169.971C120.477 169.711 120.959 169.519 121.462 169.402C121.462 169.402 123.02 168.271 123.825 164.809L125.848 164.451C126.169 164.39 126.5 164.41 126.812 164.507C127.124 164.604 127.408 164.777 127.638 165.009C127.69 165.07 127.732 165.139 127.763 165.213C127.855 165.579 127.917 165.951 127.949 166.327C128.032 167.599 128.017 168.876 127.903 170.147H127.523L127.434 167.748C127.434 166.932 126.549 167.881 126.299 168.75C126.048 169.62 125.522 170.569 123.166 170.569C120.471 170.562 119.329 170.472 120.03 169.971Z" fill="black"/>
<path d="M124.205 163.567C123.866 164.699 123.465 165.811 123.005 166.9C122.675 167.841 122.139 168.697 121.437 169.406C121.437 169.406 123.195 169.667 123.979 168.779C124.763 167.891 125.862 164.841 127.649 165.017C127.508 164.784 127.338 164.57 127.144 164.379C126.854 164.054 124.205 163.567 124.205 163.567Z" fill="#B97964"/>
<path d="M123.206 110.479C121.674 117.757 121.656 130.638 121.896 136.949C121.896 136.949 125.239 134.153 130.595 136.029C135.951 137.905 138.235 137.937 140.93 137.103C143.626 136.269 145.738 132.191 153.514 130.756C161.29 129.32 161.587 130.946 161.587 130.946C161.587 130.946 162.521 129.088 158.63 127.792C154.738 126.496 150.084 122.078 147.833 119.214C145.581 116.35 140.386 107.146 139.266 104.969C138.564 103.631 138.265 102.117 138.406 100.612L126.317 99.7316C125.028 103.236 123.988 106.828 123.206 110.479Z" fill="#263238"/>
<path d="M140.98 91.3258L143.164 85.2398C141.546 83.6001 137.336 82.655 137.336 82.655L131.984 91.6265L129.56 83.3066C127.86 83.8615 126.943 84.3054 126.535 85.2469C126.535 85.2469 125.722 87.3484 126.252 91.6408C126.399 92.8294 126.8 99.6958 125.715 101.665L125.737 102.209C132.804 107.711 138.782 106.791 138.782 106.791C138.464 105.818 138.535 102.449 138.392 101.497C138.496 100.287 138.41 99.5311 138.926 97.4082C139.022 97.018 140.809 91.7232 140.98 91.3258Z" fill="#263238"/>
<path d="M125.59 101.622L138.628 102.717L138.632 100.186L126.285 99.1302L125.59 101.622Z" fill="#407BFF"/>
<path d="M151.81 116.487L146.533 118.284C145.7 118.568 145.255 119.473 145.539 120.306L147.057 124.762C147.34 125.595 148.246 126.04 149.078 125.756L154.355 123.959C155.188 123.675 155.633 122.77 155.349 121.937L153.831 117.481C153.548 116.648 152.642 116.203 151.81 116.487Z" fill="#407BFF"/>
<path opacity="0.3" d="M151.37 121.681C151.058 121.671 150.749 121.624 150.449 121.541C148.755 121.067 147.122 120.399 145.581 119.55C145.56 119.539 145.544 119.52 145.537 119.497C145.529 119.475 145.531 119.45 145.541 119.429C145.547 119.418 145.555 119.409 145.564 119.402C145.573 119.394 145.583 119.389 145.595 119.386C145.606 119.382 145.618 119.381 145.63 119.382C145.641 119.384 145.653 119.387 145.663 119.393C147.193 120.231 148.813 120.891 150.492 121.362C150.978 121.534 151.507 121.534 151.992 121.362C152.434 121.111 152.759 120.695 152.895 120.206C153.271 119.055 153.301 117.818 152.981 116.651C152.974 116.628 152.976 116.603 152.986 116.582C152.997 116.561 153.015 116.544 153.038 116.536C153.061 116.529 153.085 116.531 153.107 116.542C153.128 116.553 153.144 116.571 153.152 116.593C153.48 117.801 153.448 119.077 153.063 120.266C152.988 120.531 152.862 120.779 152.691 120.994C152.52 121.21 152.308 121.39 152.068 121.523C151.849 121.627 151.611 121.68 151.37 121.681Z" fill="black"/>
<path d="M146.726 118.33C142.309 108.771 137.998 93.9284 140.404 83.5536L140.762 83.6359C138.378 93.9213 142.667 108.674 147.063 118.179L146.726 118.33Z" fill="#407BFF"/>
<path d="M148.108 114.13C147.604 114.439 147.224 114.914 147.034 115.473C146.83 116.293 146.451 116.905 146.343 117.517C146.236 118.129 146.895 117.599 147.188 117.241C147.482 116.883 147.815 116.482 148.047 116.744C148.28 117.005 148.896 119.966 149.261 120.295C149.626 120.625 149.676 120.113 149.676 120.113C149.676 120.113 149.848 120.829 150.149 120.829C150.228 120.829 150.414 120.71 150.389 120.37C150.328 119.611 150.124 118.022 150.124 118.022C150.124 118.115 150.528 120.059 150.625 120.342C150.75 120.7 150.983 120.821 151.212 120.739C151.513 120.625 151.108 118.201 151.162 118.086C151.162 118.086 151.348 119.49 151.738 119.64C152.129 119.79 152.057 118.899 151.849 118.126C151.656 117.41 151.463 115.978 151.198 115.262C150.868 114.399 150.453 113.891 149.59 113.83C149.079 113.8 148.568 113.904 148.108 114.13Z" fill="#B97964"/>
</svg>
