<svg width="233" height="233" viewBox="0 0 233 233" fill="none" xmlns="http://www.w3.org/2000/svg">
<path d="M233 178.198H0V178.315H233V178.198Z" fill="#EBEBEB"/>
<path d="M209.653 185.696H194.219V185.813H209.653V185.696Z" fill="#EBEBEB"/>
<path d="M154.349 186.964H150.299V187.08H154.349V186.964Z" fill="#EBEBEB"/>
<path d="M193.754 181.372H184.811V181.488H193.754V181.372Z" fill="#EBEBEB"/>
<path d="M44.5728 182.155H24.4463V182.271H44.5728V182.155Z" fill="#EBEBEB"/>
<path d="M51.6746 182.155H48.7249V182.271H51.6746V182.155Z" fill="#EBEBEB"/>
<path d="M104.92 184.121H61.2651V184.238H104.92V184.121Z" fill="#EBEBEB"/>
<path d="M110.442 157.415H20.4621C19.7572 157.414 19.0816 157.133 18.5836 156.634C18.0856 156.135 17.8059 155.459 17.8059 154.754V28.2676C17.812 27.5667 18.0945 26.8966 18.5918 26.4027C19.0891 25.9089 19.7612 25.6312 20.4621 25.63H110.442C111.148 25.63 111.825 25.9103 112.324 26.4094C112.823 26.9084 113.103 27.5852 113.103 28.2909V154.754C113.103 155.46 112.823 156.136 112.324 156.635C111.825 157.134 111.148 157.415 110.442 157.415ZM20.4621 25.7232C19.7881 25.7244 19.1421 25.993 18.666 26.4701C18.1898 26.9471 17.9224 27.5936 17.9224 28.2676V154.754C17.9224 155.428 18.1898 156.074 18.666 156.551C19.1421 157.028 19.7881 157.297 20.4621 157.298H110.442C111.116 157.297 111.763 157.029 112.24 156.552C112.717 156.075 112.985 155.428 112.986 154.754V28.2676C112.985 27.5931 112.717 26.9467 112.24 26.4698C111.763 25.9929 111.116 25.7244 110.442 25.7232H20.4621Z" fill="#EBEBEB"/>
<path d="M211.242 157.415H121.258C120.552 157.414 119.876 157.133 119.378 156.634C118.879 156.135 118.598 155.459 118.597 154.754V28.2676C118.604 27.5663 118.888 26.8962 119.386 26.4024C119.884 25.9087 120.556 25.6312 121.258 25.63H211.242C211.942 25.6324 212.613 25.9107 213.11 26.4044C213.606 26.8981 213.888 27.5675 213.894 28.2676V154.754C213.894 155.458 213.615 156.133 213.118 156.632C212.621 157.131 211.946 157.412 211.242 157.415ZM121.258 25.7232C120.583 25.7244 119.937 25.9929 119.46 26.4698C118.983 26.9467 118.715 27.5931 118.713 28.2676V154.754C118.715 155.428 118.983 156.075 119.46 156.552C119.937 157.029 120.583 157.297 121.258 157.298H211.242C211.917 157.297 212.563 157.029 213.04 156.552C213.517 156.075 213.786 155.428 213.787 154.754V28.2676C213.786 27.5931 213.517 26.9467 213.04 26.4698C212.563 25.9929 211.917 25.7244 211.242 25.7232H121.258Z" fill="#EBEBEB"/>
<path d="M156.296 88.4654C166.99 88.4654 175.659 79.7966 175.659 69.1031C175.659 58.4096 166.99 49.7408 156.296 49.7408C145.603 49.7408 136.934 58.4096 136.934 69.1031C136.934 79.7966 145.603 88.4654 156.296 88.4654Z" fill="#F5F5F5"/>
<path d="M190.85 65.2867C190.85 64.4499 190.518 63.6475 189.926 63.0559C189.335 62.4642 188.532 62.1318 187.696 62.1318C187.389 62.1309 187.084 62.1765 186.792 62.267C186.836 61.9458 186.86 61.622 186.861 61.2977C186.863 60.3148 186.648 59.3436 186.23 58.4537C185.813 57.5638 185.204 56.7773 184.447 56.1503C183.69 55.5233 182.803 55.0714 181.851 54.827C180.899 54.5826 179.905 54.5516 178.939 54.7364C178.281 53.655 177.289 52.817 176.112 52.3487C174.936 51.8804 173.639 51.8072 172.418 52.1401C171.196 52.473 170.116 53.1939 169.339 54.1943C168.563 55.1946 168.133 56.4202 168.114 57.6862H168.016C166.617 57.7274 165.289 58.3123 164.313 59.3167C163.338 60.3212 162.792 61.6661 162.792 63.0662C162.792 64.4662 163.338 65.8112 164.313 66.8156C165.289 67.8201 166.617 68.4049 168.016 68.4461H187.798C188.618 68.4195 189.395 68.0747 189.965 67.485C190.534 66.8952 190.852 66.1067 190.85 65.2867Z" fill="#EBEBEB"/>
<path d="M141.016 82.6404C141.016 81.8045 140.685 81.0028 140.094 80.4113C139.503 79.8197 138.702 79.4868 137.866 79.4856C137.55 79.4827 137.236 79.5282 136.934 79.6207C137.077 78.6713 137.013 77.7022 136.747 76.7798C136.48 75.8575 136.017 75.0037 135.389 74.2772C134.761 73.5507 133.984 72.9687 133.11 72.5711C132.236 72.1734 131.286 71.9696 130.326 71.9737C129.914 71.9746 129.502 72.0136 129.096 72.0902C128.435 71.0193 127.445 70.1909 126.275 69.7287C125.104 69.2665 123.815 69.1951 122.601 69.5253C121.387 69.8555 120.311 70.5696 119.536 71.5609C118.761 72.5523 118.327 73.7677 118.299 75.026H118.201C116.802 75.0672 115.473 75.652 114.498 76.6565C113.523 77.6609 112.977 79.0059 112.977 80.4059C112.977 81.806 113.523 83.151 114.498 84.1554C115.473 85.1598 116.802 85.7447 118.201 85.7859H137.936C138.759 85.7677 139.541 85.4284 140.117 84.8406C140.693 84.2528 141.015 83.4631 141.016 82.6404Z" fill="#EBEBEB"/>
<path d="M54.0561 88.6099C54.0561 87.774 53.7243 86.9723 53.1337 86.3807C52.543 85.7892 51.7418 85.4563 50.9059 85.4551C50.5906 85.4533 50.2766 85.4972 49.9739 85.5856C50.0224 85.2663 50.0473 84.9439 50.0485 84.6209C50.0459 83.6392 49.8275 82.67 49.4088 81.782C48.99 80.8941 48.3811 80.109 47.6253 79.4826C46.8694 78.8561 45.985 78.4034 45.0348 78.1567C44.0845 77.91 43.0916 77.8753 42.1265 78.055C41.4688 76.9722 40.4766 76.1328 39.2997 75.6638C38.1228 75.1948 36.8252 75.1216 35.603 75.4553C34.3809 75.789 33.3005 76.5114 32.5253 77.5135C31.7501 78.5155 31.322 79.7426 31.3059 81.0094H31.2081C29.8086 81.0506 28.4803 81.6355 27.505 82.6399C26.5297 83.6444 25.9841 84.9893 25.9841 86.3894C25.9841 87.7895 26.5297 89.1344 27.505 90.1389C28.4803 91.1433 29.8086 91.7282 31.2081 91.7694H50.9618C51.7896 91.7559 52.5786 91.4166 53.1579 90.8252C53.7371 90.2337 54.0598 89.4377 54.0561 88.6099Z" fill="#EBEBEB"/>
<path d="M189.028 103.657C189.028 103.152 188.828 102.667 188.47 102.309C188.113 101.952 187.628 101.751 187.122 101.751C186.936 101.751 186.751 101.778 186.573 101.83C186.656 101.257 186.615 100.672 186.453 100.116C186.291 99.5598 186.011 99.045 185.632 98.6066C185.253 98.1681 184.784 97.8162 184.258 97.5748C183.731 97.3335 183.158 97.2082 182.579 97.2076C182.33 97.2071 182.082 97.2305 181.838 97.2775C181.437 96.6314 180.838 96.1322 180.13 95.8542C179.422 95.5763 178.643 95.5346 177.91 95.7353C177.176 95.9359 176.527 96.3682 176.06 96.9678C175.592 97.5673 175.33 98.302 175.314 99.0623H175.216C174.351 99.0623 173.521 99.4059 172.91 100.018C172.298 100.629 171.954 101.459 171.954 102.324C171.954 103.189 172.298 104.019 172.91 104.631C173.521 105.243 174.351 105.586 175.216 105.586H187.155C187.405 105.583 187.651 105.53 187.881 105.431C188.11 105.332 188.317 105.189 188.491 105.01C188.665 104.831 188.802 104.619 188.894 104.387C188.987 104.155 189.032 103.907 189.028 103.657Z" fill="#EBEBEB"/>
<path d="M73.8284 42.364C73.8307 42.0665 73.7628 41.7726 73.6302 41.5062C73.4976 41.2398 73.304 41.0085 73.0652 40.831C72.8264 40.6535 72.5491 40.5348 72.2558 40.4846C71.9625 40.4343 71.6615 40.454 71.3773 40.542C71.4608 39.9686 71.4201 39.384 71.2577 38.8277C71.0954 38.2715 70.8154 37.7567 70.4366 37.3182C70.0578 36.8798 69.5891 36.5279 69.0624 36.2865C68.5356 36.0451 67.9631 35.9199 67.3837 35.9193C67.1335 35.9188 66.8838 35.9422 66.6381 35.9892C66.237 35.343 65.6379 34.8438 64.9301 34.5659C64.2222 34.288 63.4435 34.2463 62.71 34.4469C61.9765 34.6476 61.3275 35.0799 60.8597 35.6795C60.3919 36.279 60.1304 37.0137 60.1141 37.7739H60.0581C59.193 37.7739 58.3633 38.1176 57.7516 38.7294C57.1398 39.3411 56.7961 40.1708 56.7961 41.0359C56.7961 41.9011 57.1398 42.7308 57.7516 43.3425C58.3633 43.9543 59.193 44.2979 60.0581 44.2979H71.9971C72.4944 44.2785 72.9644 44.0653 73.3066 43.704C73.6488 43.3426 73.8361 42.8617 73.8284 42.364Z" fill="#EBEBEB"/>
<path d="M41.8748 113.546L54.494 170.868L56.7868 169.792L43.5337 113.224L41.8748 113.546Z" fill="#EBEBEB"/>
<path d="M186.764 170.593C186.764 170.593 178.944 116.733 196.522 61.046L193.768 58.921C193.768 58.921 173.189 101.047 176.185 172.122L186.764 170.593Z" fill="#E6E6E6"/>
<path d="M201.312 46.4043C207.752 42.1823 217.282 48.8974 218.591 59.3917C217.645 58.8459 216.655 58.3784 215.632 57.9937C215.134 55.3515 214.654 53.0168 214.654 53.0168L214.998 57.756C214.43 57.551 213.81 57.3506 213.134 57.1689L212.668 54.6199L212.459 57.0011C211.547 56.7881 210.622 56.6325 209.691 56.5351L208.488 49.0791L207.883 56.386C206.929 56.3595 205.974 56.4016 205.026 56.5118L204.29 51.4511V56.6143C203.474 56.7462 202.668 56.9314 201.876 57.1689L200.995 49.6197C200.995 49.6197 201.018 53.8649 200.972 57.4671C198.693 58.2929 196.586 59.5314 194.755 61.1206L194.686 60.1886C194.686 60.1886 195.426 50.2534 201.312 46.4043Z" fill="#E0E0E0"/>
<path d="M192.407 43.0304C187.281 37.2753 176.339 41.2643 172.336 51.0503C173.391 50.767 174.469 50.5721 175.556 50.4678C176.726 48.0492 177.802 45.9196 177.802 45.9196L176.232 50.4025C176.833 50.3559 177.481 50.328 178.175 50.328L179.27 47.998L178.851 50.3513C179.787 50.3767 180.721 50.4608 181.647 50.6029L184.755 43.7341L183.441 50.9571C184.37 51.1778 185.281 51.4675 186.167 51.8238L188.203 47.1312L186.866 52.0988C187.621 52.4363 188.352 52.8272 189.052 53.2684L191.88 46.2085C191.88 46.2085 190.743 50.3 189.848 53.7857C191.832 55.1808 193.541 56.9296 194.891 58.9443L195.203 58.0636C195.203 58.0636 197.071 48.2869 192.407 43.0304Z" fill="#E0E0E0"/>
<path d="M187.481 56.6796C192.607 51.6794 196.456 56.0319 196.456 56.0319C194.532 56.5305 192.812 57.7654 191.33 59.3358L190.636 58.4318L190.748 59.9742C190.394 60.3843 190.049 60.813 189.718 61.2557L188.544 58.5856L189.047 62.2017C188.581 62.8914 188.115 63.5997 187.728 64.308L187.211 61.6612L187.253 65.1702C186.824 65.9624 186.442 66.7406 186.102 67.4722L185.543 62.6118L185.468 68.8982C184.648 70.8367 184.219 72.1974 184.219 72.1974C184.219 72.1974 182.355 61.6845 187.481 56.6796Z" fill="#E0E0E0"/>
<path d="M201.312 68.5021L200.254 69.1125C200.101 68.297 199.919 67.4442 199.718 66.5775L200.436 65.2587L199.532 65.8179C199.462 65.529 199.383 65.2447 199.308 64.9558L200.24 62.3742L198.842 63.404C198.097 61.074 197.146 59.0283 195.958 58.0497C195.958 58.0497 207.71 61.8056 201.084 74.4762C201.084 74.4762 200.869 72.4724 200.399 69.8395L201.312 68.5021Z" fill="#E0E0E0"/>
<path d="M189.755 58.1335L187.891 54.5919L188.665 58.2826C188.478 58.3106 188.287 58.3479 188.096 58.3852L185.659 55.3515L186.26 58.8418C185.427 59.094 184.61 59.3959 183.814 59.7459C182.945 60.1351 182.098 60.5691 181.274 61.046L180.086 57.9471L180.64 61.4141C179.834 61.8801 179.046 62.4067 178.31 62.938L177.723 60.2072L177.779 63.3154C176.847 63.9865 175.98 64.6668 175.179 65.3332L175.253 60.3843L174.531 65.8784C173.711 66.5774 172.97 67.2485 172.341 67.8449L172.252 64.4105L171.381 68.7723C170.477 69.6717 169.959 70.2449 169.959 70.2449C170.425 58.2267 175.085 53.4689 182.793 52.1641C190.501 50.8593 196.055 58.8791 196.055 58.8791C196.055 58.8791 193.66 57.7421 189.755 58.1335Z" fill="#E0E0E0"/>
<path d="M212.235 72.8218L211.531 76.424C211.191 75.5339 210.73 74.3922 210.133 73.1201L210.767 67.8776L209.612 72.011C208.708 70.1314 207.661 68.3241 206.48 66.6054L207.58 62.9706L205.8 65.6687C205.441 65.2027 205.073 64.7367 204.691 64.308L205.315 62.0199L204.35 63.9352C204.089 63.6463 203.819 63.3713 203.544 63.1057L204.304 60.0534L203.097 62.6956C202.346 62.0087 201.519 61.4098 200.632 60.9109L201.857 57.1829L199.937 60.566C198.73 59.9998 197.407 59.7237 196.074 59.7598C196.074 59.7598 198.404 56.0318 202.687 54.7503C206.969 53.4688 216.201 61.2231 212.193 78.3299C212.193 78.3299 212.072 77.9432 211.83 77.2768L212.235 72.8218Z" fill="#E0E0E0"/>
<path d="M205.17 39.582L205.902 41.7536C205.632 41.7689 205.364 41.8078 205.101 41.8701L204.22 39.0415L204.807 41.94C204.248 42.107 203.715 42.35 203.223 42.6623L202.011 38.8457L202.71 43.0071C202.514 43.1516 202.319 43.31 202.118 43.4731L200.748 39.8896L201.778 43.804C200.765 44.8176 199.901 45.9691 199.21 47.2244L198.852 41.94L198.246 49.1117C197.241 51.3543 196.43 53.6789 195.823 56.0598C195.823 56.0598 195.077 36.9538 199.676 34.8102C204.276 32.6666 207.011 41.8421 207.011 41.8421C206.807 41.7819 206.595 41.7474 206.382 41.7396L205.17 39.582Z" fill="#E0E0E0"/>
<path d="M198.6 60.8364L198.19 64.4572L196.792 60.9668L194.928 63.6976L194.191 61.1532L192.039 62.9613C192.039 62.9613 192.304 58.3433 193.679 56.2323C195.054 54.1213 199.182 55.6032 198.6 60.8364Z" fill="#E0E0E0"/>
<path d="M141.198 119.058V93.8104C141.198 93.8104 136.072 99.258 132.684 98.5124C129.296 97.7668 124.888 100.344 124.888 100.344C124.888 100.344 129.329 99.696 130.979 101.499C132.628 103.303 139.991 103.494 139.991 103.494V119.981L141.198 119.058Z" fill="#EBEBEB"/>
<path d="M163.799 111.318H162.634V112.907H158.794V111.318H155.02V112.907H151.18V111.318H147.41V112.907H143.565V111.318H139.795V112.907H135.956V111.318H132.181V112.907H128.341V111.318H124.566V112.907H120.727V111.318H119.436L115.694 141.235L167.667 141.021L163.799 111.318Z" fill="#E0E0E0"/>
<path d="M172.066 133.034H170.468V135.215H165.192V133.034H160.01V135.215H154.731V133.034H149.549V135.215H144.274V133.034H139.092V135.215H133.812V133.034H128.63V135.215H123.35V133.034H118.168V135.215H112.893V133.034H111.118L105.973 174.14L177.388 173.841L172.066 133.034Z" fill="#EBEBEB"/>
<path d="M198.446 169.298C197.342 168.054 196.302 166.781 195.147 165.57C195.087 165.509 195.032 165.444 194.984 165.374C194.603 165.128 194.206 164.908 193.795 164.717C193.721 164.694 193.479 164.596 193.232 164.503C192.766 164.335 192.3 164.153 191.834 163.967C188.94 162.802 186.339 161.45 184.154 159.153C182.956 157.895 182.001 156.427 180.761 155.206C180.729 155.248 180.486 155.117 180.37 155.024L179.438 154.903C178.939 154.903 178.436 154.903 177.937 154.936C177.224 154.968 176.511 155.024 175.798 155.089C173.002 159.153 169.507 164.703 167.96 165.435C165.56 166.572 143.444 172.425 141.813 172.066C140.182 171.707 131.645 172.411 129.501 172.331C127.358 172.252 123.476 171.302 117.851 168.715C112.227 166.129 109.16 166.115 102.39 163.957C95.6185 161.8 91.0797 160.98 87.1187 164.298C83.1577 167.616 72.2766 160.612 68.8841 159.614C65.4916 158.617 59.0049 152.871 54.5779 155.551C50.1509 158.23 46.4695 159.507 40.9381 164.298C35.4067 169.088 24.4324 178.348 24.4324 178.348H211.298L209.15 174.596C207.103 174.472 205.101 173.939 203.263 173.029C201.424 172.119 199.787 170.85 198.446 169.298Z" fill="#F5F5F5"/>
<path d="M20.1218 123.49C20.1218 123.49 25.56 113.704 40.295 105.26C40.295 105.26 52.2898 104.24 65.8318 110.144C65.8318 110.144 68.5765 114.701 65.4543 116.5C62.3321 118.299 59.7458 114.683 59.7458 114.683C59.7458 114.683 59.168 120.191 55.0858 120.349C51.0036 120.508 49.82 116.5 49.82 116.5C49.82 116.5 49.4192 121.556 44.5589 122.833C40.3555 123.956 37.7459 120.349 37.7459 120.349C37.7459 120.349 36.9071 124.506 33.1279 125.704C30.0896 126.663 28.0019 124.049 28.0019 124.049C28.0019 124.049 27.1305 128.56 23.9057 128.56C21.133 128.56 20.1218 123.49 20.1218 123.49Z" fill="#E0E0E0"/>
<path d="M116.5 199.243C166.4 199.243 206.853 196.881 206.853 193.968C206.853 191.054 166.4 188.693 116.5 188.693C66.5995 188.693 26.1472 191.054 26.1472 193.968C26.1472 196.881 66.5995 199.243 116.5 199.243Z" fill="#F5F5F5"/>
<path d="M178.944 170.98C178.944 170.98 180.971 168.012 182.816 167.182C184.662 166.353 184.96 163.198 185.962 163.025C186.964 162.853 188.068 165.761 189.82 166.609C191.572 167.457 194.224 170.961 194.224 170.961L178.944 170.98Z" fill="#407BFF"/>
<path opacity="0.8" d="M178.944 170.98C178.944 170.98 180.971 168.012 182.816 167.182C184.662 166.353 184.96 163.198 185.962 163.025C186.964 162.853 188.068 165.761 189.82 166.609C191.572 167.457 194.224 170.961 194.224 170.961L178.944 170.98Z" fill="white"/>
<path d="M193.679 192.351H178.935L177.071 170.961H195.543L193.679 192.351Z" fill="#407BFF"/>
<path d="M196.433 169.852H176.176V172.103H196.433V169.852Z" fill="#407BFF"/>
<path opacity="0.2" d="M196.433 169.852H176.176V172.103H196.433V169.852Z" fill="white"/>
<path d="M185.435 171.437C186.777 173.543 192.523 182.234 196.083 182.868L196.521 181.815C196.521 181.815 193.334 182.197 186.269 170.906C186.202 170.796 186.096 170.716 185.972 170.682C185.848 170.649 185.716 170.663 185.603 170.724C185.543 170.758 185.491 170.804 185.45 170.859C185.408 170.914 185.379 170.977 185.363 171.044C185.347 171.111 185.346 171.18 185.358 171.248C185.37 171.315 185.397 171.38 185.435 171.437Z" fill="#263238"/>
<path d="M164.456 164.689C164.607 164.641 164.767 164.624 164.925 164.639C165.083 164.654 165.237 164.7 165.376 164.775C165.516 164.85 165.64 164.953 165.739 165.077C165.839 165.2 165.913 165.343 165.957 165.495L168.473 174.298L171.735 172.988C171.735 172.988 173.706 180.328 169.983 181.488C166.362 182.621 163.566 175.845 163.566 175.845L166.893 174.913L163.715 166.217C163.662 166.069 163.638 165.911 163.647 165.753C163.655 165.595 163.695 165.44 163.764 165.297C163.833 165.155 163.93 165.028 164.049 164.923C164.167 164.819 164.306 164.739 164.456 164.689Z" fill="#407BFF"/>
<path opacity="0.4" d="M169.997 181.488C166.362 182.621 163.566 175.845 163.566 175.845L166.893 174.913C166.893 174.913 167.466 175.892 168.109 175.649C168.752 175.407 168.492 174.284 168.492 174.284L171.754 172.974C171.754 172.974 173.72 180.342 169.997 181.488Z" fill="white"/>
<path d="M197.896 194.159C196.065 193.25 194.191 192.393 193.59 192.351C192.304 192.267 191.563 191.694 190.645 190.599C189.727 189.504 189.354 188.236 187.695 186.475C186.036 184.713 187.877 184.005 184.373 183.553C180.868 183.101 182.225 183.385 180.072 181.833C177.919 180.281 178.357 180.286 175.836 179.177C173.315 178.068 174.787 177.648 171.837 177.401C169.801 177.229 166.581 178.301 164.908 179.494C164.167 180.02 163.79 180.892 163.044 181.358C162.219 181.884 160.938 180.892 161.073 182.667C161.162 183.12 161.183 183.583 161.133 184.042C160.896 185.039 156.79 185.035 155.746 185.347C155.498 185.391 155.275 185.528 155.122 185.729C154.884 186.153 155.243 186.903 154.782 187.057C154.637 187.108 154.474 187.057 154.316 187.08C153.761 187.187 153.906 188.185 153.384 188.413C152.862 188.641 152.261 188.175 151.683 188.413C151.24 188.581 151.091 189.177 150.704 189.415C150.029 189.825 149.33 190.128 148.663 190.566C147.508 191.321 146.506 192.248 145.266 192.896L141.948 193.8L140.956 194.15L197.896 194.159Z" fill="#407BFF"/>
<path opacity="0.8" d="M197.896 194.159C196.065 193.25 194.191 192.393 193.59 192.351C192.304 192.267 191.563 191.694 190.645 190.599C189.727 189.504 189.354 188.236 187.695 186.475C186.036 184.713 187.877 184.005 184.373 183.553C180.868 183.101 182.225 183.385 180.072 181.833C177.919 180.281 178.357 180.286 175.836 179.177C173.315 178.068 174.787 177.648 171.837 177.401C169.801 177.229 166.581 178.301 164.908 179.494C164.167 180.02 163.79 180.892 163.044 181.358C162.219 181.884 160.938 180.892 161.073 182.667C161.162 183.12 161.183 183.583 161.133 184.042C160.896 185.039 156.79 185.035 155.746 185.347C155.498 185.391 155.275 185.528 155.122 185.729C154.884 186.153 155.243 186.903 154.782 187.057C154.637 187.108 154.474 187.057 154.316 187.08C153.761 187.187 153.906 188.185 153.384 188.413C152.862 188.641 152.261 188.175 151.683 188.413C151.24 188.581 151.091 189.177 150.704 189.415C150.029 189.825 149.33 190.128 148.663 190.566C147.508 191.321 146.506 192.248 145.266 192.896L141.948 193.8L140.956 194.15L197.896 194.159Z" fill="white"/>
<path d="M158.789 185.678C158.792 185.712 158.792 185.746 158.789 185.78C158.776 187.359 158.317 188.901 157.466 190.23C157.396 190.338 157.326 190.445 157.247 190.552C156.758 191.247 156.167 191.864 155.495 192.383C155.345 192.505 155.19 192.618 155.029 192.724C154.992 192.752 154.953 192.777 154.912 192.798L154.758 192.896C154.679 192.95 154.596 193 154.511 193.045C154.381 193.12 154.246 193.194 154.111 193.259C152.488 194.076 150.646 194.349 148.856 194.037C147.067 193.724 145.426 192.844 144.176 191.526C143.605 190.937 143.126 190.266 142.754 189.536C142.14 188.341 141.821 187.017 141.822 185.673V185.645C141.822 185.407 141.822 185.179 141.855 184.937C141.946 183.844 142.252 182.78 142.754 181.805C142.878 181.56 143.015 181.322 143.164 181.092C143.653 180.335 144.256 179.659 144.954 179.088C145.175 178.907 145.407 178.739 145.648 178.585C145.732 178.525 145.819 178.469 145.909 178.417C146.576 178.007 147.298 177.693 148.053 177.485L148.248 177.434C148.922 177.267 149.614 177.182 150.308 177.182C150.526 177.182 150.74 177.192 150.951 177.21H151.114C152.057 177.3 152.977 177.549 153.836 177.947L153.943 177.998C155.219 178.602 156.323 179.515 157.155 180.654C157.988 181.794 158.522 183.123 158.71 184.522C158.765 184.905 158.791 185.291 158.789 185.678Z" fill="#407BFF"/>
<path opacity="0.6" d="M158.789 185.678C158.791 187.254 158.352 188.8 157.522 190.14C156.692 191.481 155.504 192.563 154.092 193.264C153.899 193.108 153.74 192.913 153.626 192.691C155.192 188.124 153.626 185.678 153.626 185.678V185.631L153.738 184.9V184.764C153.98 183.408 154.591 180.869 155.914 179.331C156.816 180.124 157.539 181.101 158.035 182.195C158.531 183.289 158.788 184.476 158.789 185.678Z" fill="white"/>
<path opacity="0.6" d="M143.803 184.21C143.803 184.21 142.316 185.696 142.754 189.541C141.868 187.811 141.603 185.829 142.004 183.927C142.404 182.026 143.446 180.319 144.954 179.093C144.131 180.669 143.735 182.433 143.803 184.21Z" fill="white"/>
<path opacity="0.2" d="M155.937 179.331C154.073 181.493 153.607 185.678 153.607 185.678C148.481 186.931 143.789 184.21 143.789 184.21C143.721 182.43 144.117 180.664 144.94 179.084C146.501 177.814 148.463 177.14 150.475 177.184C152.487 177.227 154.419 177.985 155.923 179.321L155.937 179.331Z" fill="white"/>
<path opacity="0.2" d="M154.087 193.264C152.467 194.075 150.629 194.344 148.845 194.031C147.06 193.718 145.423 192.84 144.176 191.526C145.765 192.458 149.013 193.795 153.621 192.686C153.734 192.91 153.893 193.106 154.087 193.264Z" fill="white"/>
<g opacity="0.2">
<path d="M153.948 178.012C153.726 178.323 153.522 178.647 153.337 178.981C152.992 179.623 152.695 180.29 152.447 180.976C152.186 181.661 151.981 182.374 151.795 183.068C151.608 183.762 151.45 184.494 151.329 185.216C151.377 184.481 151.48 183.751 151.636 183.031C151.794 182.308 151.996 181.595 152.242 180.896C152.496 180.204 152.808 179.533 153.174 178.893C153.377 178.57 153.598 178.259 153.836 177.961L153.948 178.012Z" fill="black"/>
<path d="M151.114 177.229C150.998 177.439 150.891 177.653 150.788 177.867C150.446 178.59 150.164 179.34 149.945 180.109C149.698 180.873 149.511 181.656 149.334 182.439C149.157 183.222 149.008 184.014 148.868 184.806C148.916 184 149.012 183.197 149.157 182.402C149.297 181.605 149.483 180.818 149.716 180.044C149.949 179.264 150.253 178.507 150.625 177.784C150.728 177.593 150.835 177.401 150.947 177.22L151.114 177.229Z" fill="black"/>
<path d="M148.249 177.443L148.104 177.821C147.847 178.513 147.637 179.221 147.475 179.941C147.293 180.659 147.153 181.386 147.009 182.117C146.864 182.849 146.762 183.581 146.655 184.317C146.671 183.571 146.732 182.828 146.837 182.089C146.938 181.345 147.078 180.606 147.256 179.876C147.426 179.146 147.655 178.43 147.941 177.737C147.978 177.653 148.016 177.565 148.057 177.481L148.249 177.443Z" fill="black"/>
<path d="M145.909 178.422C145.751 178.944 145.601 179.466 145.494 179.997C145.387 180.528 145.261 181.19 145.168 181.791C145.075 182.392 145.01 182.998 144.954 183.609C144.922 182.996 144.934 182.383 144.991 181.773C145.05 181.161 145.142 180.552 145.266 179.95C145.37 179.491 145.497 179.036 145.648 178.59C145.732 178.53 145.819 178.474 145.909 178.422Z" fill="black"/>
<path d="M156.007 188.506C156.032 189.384 155.917 190.26 155.667 191.102C155.543 191.521 155.387 191.931 155.201 192.327C155.141 192.463 155.071 192.598 155.001 192.728C154.964 192.756 154.925 192.781 154.884 192.803C155.139 192.241 155.341 191.655 155.485 191.055C155.704 190.226 155.798 189.368 155.765 188.511C155.752 187.654 155.62 186.802 155.374 185.981C155.132 185.15 154.788 184.353 154.348 183.609C154.869 184.316 155.272 185.103 155.541 185.939C155.825 186.766 155.982 187.632 156.007 188.506Z" fill="black"/>
<path d="M157.68 188.264L157.657 188.968L157.559 189.667C157.538 189.856 157.505 190.045 157.461 190.23C157.391 190.338 157.321 190.445 157.242 190.552C157.312 190.253 157.358 189.949 157.382 189.643L157.452 188.954V188.264C157.468 188.033 157.468 187.801 157.452 187.57C157.429 187.341 157.429 187.104 157.387 186.885C157.28 185.968 157.05 185.069 156.702 184.214C156.365 183.35 155.904 182.54 155.332 181.81C155.976 182.49 156.495 183.279 156.865 184.14C157.246 185.003 157.5 185.916 157.62 186.852C157.657 187.085 157.652 187.318 157.671 187.556C157.69 187.791 157.694 188.028 157.68 188.264Z" fill="black"/>
<path d="M158.789 185.678C158.792 185.712 158.792 185.746 158.789 185.78L158.761 185.622C158.563 184.656 158.25 183.717 157.829 182.826C157.417 181.923 156.874 181.086 156.217 180.342C156.942 181.035 157.541 181.848 157.988 182.746C158.284 183.329 158.53 183.935 158.724 184.559C158.772 184.93 158.794 185.304 158.789 185.678Z" fill="black"/>
<path d="M143.388 182.868C143.014 183.293 142.693 183.762 142.433 184.266C142.191 184.714 141.986 185.181 141.822 185.664C141.822 185.426 141.822 185.198 141.855 184.955C141.98 184.686 142.121 184.424 142.279 184.172C142.57 183.676 142.945 183.234 143.388 182.868Z" fill="black"/>
<path d="M143.789 180.612C143.435 181.013 143.09 181.409 142.754 181.81C142.878 181.565 143.015 181.327 143.164 181.097C143.363 180.924 143.572 180.762 143.789 180.612Z" fill="black"/>
<path d="M143.789 186.009C144.562 186.307 145.345 186.568 146.119 186.801C146.909 187.035 147.712 187.226 148.523 187.374C150.138 187.722 151.811 187.701 153.416 187.313C152.635 187.606 151.809 187.764 150.975 187.779C150.139 187.796 149.304 187.73 148.481 187.584C147.663 187.429 146.856 187.217 146.068 186.95C145.285 186.694 144.523 186.38 143.789 186.009Z" fill="black"/>
<path d="M143.789 188.036C144.568 188.345 145.364 188.606 146.175 188.819C146.983 189.032 147.805 189.187 148.635 189.285C149.463 189.398 150.299 189.437 151.133 189.401L151.757 189.373L152.382 189.299C152.801 189.271 153.202 189.149 153.621 189.089C152.818 189.354 151.986 189.52 151.142 189.583C150.297 189.643 149.448 189.621 148.607 189.518C147.768 189.406 146.939 189.229 146.128 188.986C145.32 188.745 144.536 188.427 143.789 188.036Z" fill="black"/>
<path d="M143.994 189.788C144.727 190.129 145.486 190.413 146.263 190.636C147.038 190.858 147.83 191.013 148.631 191.102C149.031 191.167 149.432 191.176 149.833 191.204C150.234 191.232 150.639 191.204 151.044 191.181C151.851 191.136 152.653 191.02 153.44 190.836C152.67 191.107 151.871 191.284 151.058 191.363C150.241 191.444 149.418 191.435 148.603 191.335C147.79 191.234 146.989 191.053 146.212 190.794C145.437 190.545 144.692 190.207 143.994 189.788Z" fill="black"/>
<path d="M144.343 191.107C145.035 191.426 145.75 191.693 146.482 191.903C147.21 192.121 147.955 192.277 148.71 192.369C149.462 192.481 150.225 192.511 150.984 192.458L151.552 192.416L152.111 192.323C152.494 192.286 152.852 192.155 153.23 192.081C152.515 192.369 151.764 192.557 150.998 192.64C150.224 192.732 149.442 192.732 148.668 192.64C147.902 192.542 147.148 192.369 146.417 192.122C145.689 191.865 144.993 191.524 144.343 191.107Z" fill="black"/>
</g>
<path d="M53.0261 172.345C53.0261 172.345 54.6851 169.852 57.6349 169.671C60.5846 169.489 63.0731 173.249 63.0731 173.249H62.1411C62.1411 173.249 59.7598 170.682 58.0543 170.682C56.3487 170.682 54.6897 172.802 54.6897 172.802L53.0261 172.345Z" fill="#263238"/>
<path d="M27.9973 192.02C29.0179 190.319 40.4488 191.423 43.0305 190.408L44.4285 192.807C44.4285 192.807 42.4573 193.898 39.186 193.511C35.9147 193.124 30.9704 193.022 29.6796 194.159L27.9973 192.02Z" fill="#263238"/>
<path opacity="0.3" d="M27.9973 192.02C29.0179 190.319 40.4488 191.423 43.0305 190.408L44.4285 192.807C44.4285 192.807 42.4573 193.898 39.186 193.511C35.9147 193.124 30.9704 193.022 29.6796 194.159L27.9973 192.02Z" fill="black"/>
<path d="M76.1444 186.833C76.0512 187.239 75.9487 187.635 75.8322 188.022C74.9002 191.195 73.4649 193.763 72.4211 194.159H42.7881C42.3806 194.159 41.9786 194.066 41.6127 193.886C41.2468 193.707 40.9268 193.446 40.6771 193.124L40.6538 193.092C40.5444 192.948 40.4521 192.791 40.3789 192.626C38.3332 188.352 36.2688 179.806 39.172 175.91C39.4757 175.504 39.826 175.135 40.2158 174.811L40.2997 174.745C40.9146 174.244 41.595 173.828 42.3221 173.51H42.3454C44.3865 172.578 46.8936 172.164 49.3354 171.982C50.0484 171.926 50.7334 171.893 51.4511 171.879C53.2685 171.828 54.9647 171.879 56.3161 171.912C61.0786 172.033 64.8253 173.45 67.3789 173.203C68.3168 173.105 69.2646 173.181 70.1749 173.427C70.4371 173.5 70.6953 173.587 70.9485 173.687C72.1106 174.179 73.1916 174.843 74.1546 175.659C77.0718 177.975 77.1137 182.723 76.1444 186.833Z" fill="#263238"/>
<path opacity="0.1" d="M76.1444 186.833C76.0512 187.239 75.9487 187.635 75.8322 188.022C74.9002 191.195 73.4649 193.763 72.4211 194.159H42.7881C42.3806 194.159 41.9786 194.066 41.6127 193.886C41.2468 193.707 40.9268 193.446 40.6771 193.124L40.6538 193.092C40.5444 192.948 40.4521 192.791 40.3789 192.626C38.3332 188.352 36.2688 179.806 39.172 175.91C39.4757 175.504 39.826 175.135 40.2158 174.811L40.2997 174.745C40.9146 174.244 41.595 173.828 42.3221 173.51H42.3454C44.3865 172.578 46.8936 172.164 49.3354 171.982C50.0484 171.926 50.7334 171.893 51.4511 171.879C53.2685 171.828 54.9647 171.879 56.3161 171.912C61.0786 172.033 64.8253 173.45 67.3789 173.203C68.3168 173.105 69.2646 173.181 70.1749 173.427C70.4371 173.5 70.6953 173.587 70.9485 173.687C72.1106 174.179 73.1916 174.843 74.1546 175.659C77.0718 177.975 77.1137 182.723 76.1444 186.833Z" fill="white"/>
<path opacity="0.2" d="M71.6056 186.54C69.4853 186.54 65.2447 187.551 58.977 186.172C56.0548 185.477 53.0131 185.455 50.081 186.106C50.0111 185.174 49.9366 184.135 49.8527 183.007C49.2981 175.435 44.9783 172.257 42.3454 173.515H42.3221C41.6078 173.857 40.9301 174.271 40.2997 174.75L40.2158 174.815C39.826 175.14 39.4757 175.509 39.172 175.915C36.2688 179.811 38.3332 188.357 40.3789 192.63C40.4521 192.796 40.5444 192.952 40.6538 193.096L40.6771 193.129C40.929 193.415 41.2388 193.643 41.5859 193.8C41.933 193.957 42.3095 194.038 42.6903 194.038H47.998C50.1649 194.038 50.4212 192.053 50.1789 187.789C50.547 187.579 50.999 187.323 51.5023 186.978C52.8211 186.12 57.9518 186.544 60.1653 187.374C62.3788 188.203 68.1851 188.572 70.9951 188.115C72.5938 187.878 74.2165 187.848 75.8229 188.026C75.9394 187.64 76.0419 187.243 76.1351 186.838C75.1751 186.731 73.162 186.54 71.6056 186.54Z" fill="black"/>
<path opacity="0.2" d="M52.3411 175.845C53.632 180.547 54.5174 182.206 54.8575 182.667C55.1977 183.129 64.583 184.242 66.3444 184.238C68.3775 184.22 70.4049 184.02 72.4024 183.641C73.6001 183.338 73.9868 177.308 70.9672 173.692C70.714 173.592 70.4558 173.505 70.1936 173.431C71.8386 177.122 71.8759 181.642 71.6802 182.285C71.4006 183.18 68.6372 183.049 67.3464 183.021C66.0555 182.994 58.0263 182.495 57.2062 182.169C56.4143 181.84 55.7402 181.28 55.2723 180.561C54.6245 179.732 54.536 176.875 53.3663 174.41C52.8698 173.473 52.2228 172.625 51.4511 171.898C50.7567 171.898 50.0531 171.945 49.3354 172.001C50.0724 172.402 50.7192 172.951 51.2362 173.612C51.7531 174.273 52.1292 175.033 52.3411 175.845Z" fill="black"/>
<path d="M43.0305 180.174L40.4488 180.808C40.4488 180.808 38.6175 186.064 39.7126 188.264C40.8077 190.463 32.2566 193.525 27.9973 191.992L29.6656 194.131C29.6656 194.131 39.8058 193.492 41.7397 189.634C43.6736 185.776 40.9102 185.179 40.7284 184.093C40.5467 183.007 43.0305 180.174 43.0305 180.174Z" fill="#263238"/>
<path opacity="0.1" d="M43.0305 180.174L40.4488 180.808C40.4488 180.808 38.6175 186.064 39.7126 188.264C40.8077 190.463 32.2566 193.525 27.9973 191.992L29.6656 194.131C29.6656 194.131 39.8058 193.492 41.7397 189.634C43.6736 185.776 40.9102 185.179 40.7284 184.093C40.5467 183.007 43.0305 180.174 43.0305 180.174Z" fill="white"/>
<path d="M65.8318 71.764C65.8318 71.764 55.8594 66.172 53.7951 64.7367C51.7307 63.3015 40.6865 52.4576 40.0714 52.1547C40.0714 52.1547 40.4814 50.9152 39.5541 50.1929C38.6268 49.4706 35.0106 47.0986 34.498 47.0986C33.9854 47.0986 32.634 52.1547 32.8437 53.3943C33.0534 54.6339 38.1095 54.9414 38.1095 54.9414C38.1095 54.9414 48.6364 67.1972 50.2861 68.9214C51.9357 70.6456 63.1849 77.9665 63.1849 77.9665L65.8318 71.764Z" fill="#E4897B"/>
<path d="M69.9233 72.7939C69.9233 72.7939 72.1089 77.2069 66.8011 84.2155L55.0999 75.6132L59.7599 67.1553L69.9233 72.7939Z" fill="#407BFF"/>
<path opacity="0.6" d="M66.8011 84.2155L61.2743 80.152L60.552 79.6208L57.4345 77.356L55.1045 75.6365L56.824 72.5283L57.784 70.7388L59.7645 67.1553L61.6751 68.2178L63.3247 69.1498L69.914 72.8125C70.1303 73.324 70.264 73.8667 70.3101 74.4202C70.5291 76.2796 70.2122 79.7093 66.8011 84.2155Z" fill="white"/>
<path opacity="0.2" d="M66.8012 84.2154L61.2744 80.1519C63.171 76.2282 68.078 74.8442 70.3195 74.4015C70.5292 76.2795 70.2123 79.7092 66.8012 84.2154Z" fill="black"/>
<g opacity="0.2">
<path d="M63.334 69.131L61.6843 70.091V68.2177L63.334 69.131Z" fill="white"/>
<path d="M59.7458 71.3166L57.6768 74.2198L56.8193 72.5049L57.7933 70.7388L59.7458 71.3166Z" fill="white"/>
<path d="M61.2744 75.683L60.5521 79.6207L57.4346 77.3326L61.2744 75.683Z" fill="white"/>
<path d="M62.7048 73.4368L63.8559 76.3866L66.2464 73.1339L62.7048 73.4368Z" fill="white"/>
</g>
<path d="M91.6716 70.7062C91.6716 70.7062 101.644 65.1141 103.708 63.6789C105.773 62.2436 116.817 51.3998 117.437 51.0969C117.437 51.0969 117.022 49.8573 117.949 49.135C118.877 48.4127 122.493 46.0408 123.005 46.0408C123.518 46.0408 124.869 51.0969 124.66 52.3364C124.45 53.576 119.394 53.8835 119.394 53.8835C119.394 53.8835 108.867 66.144 107.217 67.8636C105.568 69.5831 94.3185 76.89 94.3185 76.89L91.6716 70.7062Z" fill="#E4897B"/>
<path d="M79.756 129.758C79.756 129.758 79.5416 133.276 79.2201 137.983C79.0057 140.909 78.7541 144.288 78.4512 147.554C78.0597 151.944 77.617 156.129 77.1743 158.738C76.7689 161.129 71.3866 190.818 71.3866 190.818H67.7798C68.9168 163.133 70.6783 152.396 70.7435 150.784C70.7435 150.257 70.7855 149.525 70.8088 148.654C70.8787 145.495 70.9393 140.504 70.9765 136.874C71.0045 134.255 71.0185 132.349 71.0185 132.349L79.756 129.758Z" fill="#E4897B"/>
<path d="M93.666 152.158C93.5402 154.577 92.1002 190.687 92.1002 190.687H88.1346C86.1075 161.926 86.8764 151.939 86.5129 149.945C85.8931 146.552 85.3106 142.093 84.9099 138.761C84.5883 136.1 84.3879 134.185 84.3879 134.185L92.473 130.69C92.473 130.69 92.9623 134.884 93.3305 139.907C93.5122 142.424 93.6707 145.159 93.7173 147.703C93.7545 149.297 93.7452 150.816 93.666 152.158Z" fill="#E4897B"/>
<path opacity="0.2" d="M70.9578 136.864L79.22 137.983C79.0056 140.909 78.754 144.288 78.4511 147.554L70.79 148.654C70.8599 145.485 70.9205 140.494 70.9578 136.864Z" fill="black"/>
<path opacity="0.2" d="M93.7219 147.722L86.5176 149.94C85.8978 146.548 85.3153 142.088 84.9146 138.756L93.3352 139.902C93.5169 142.424 93.666 145.159 93.7219 147.722Z" fill="black"/>
<path d="M72.23 189.699H67.4628C67.3847 189.7 67.3092 189.728 67.2484 189.776C67.1876 189.825 67.145 189.893 67.1273 189.969L66.3584 193.455C66.3265 193.605 66.3553 193.761 66.4382 193.889C66.5212 194.018 66.6517 194.108 66.8011 194.14C66.8444 194.145 66.8882 194.145 66.9316 194.14C68.4694 194.117 69.5924 194.019 71.5216 194.019C72.7146 194.019 76.3075 194.145 77.9478 194.145C79.5881 194.145 79.8118 192.523 79.1361 192.369C76.1164 191.712 73.8423 190.804 72.8777 189.937C72.7002 189.778 72.4683 189.693 72.23 189.699Z" fill="#407BFF"/>
<path d="M92.3986 189.578H87.6407C87.5629 189.577 87.487 189.603 87.426 189.652C87.3649 189.7 87.3223 189.768 87.3052 189.844L86.5317 193.334C86.5168 193.41 86.5171 193.488 86.5326 193.563C86.548 193.639 86.5783 193.71 86.6216 193.774C86.665 193.838 86.7205 193.892 86.7851 193.934C86.8496 193.976 86.9219 194.005 86.9977 194.019H87.1235C88.6659 193.996 89.7843 193.903 91.7182 193.903C92.9065 193.903 96.4994 194.024 98.1444 194.024C99.7894 194.024 100.008 192.402 99.328 192.253C96.3083 191.596 94.0389 190.683 93.0743 189.816C92.9829 189.734 92.8762 189.67 92.7602 189.629C92.6442 189.589 92.5213 189.571 92.3986 189.578Z" fill="#407BFF"/>
<path d="M80.0822 145.518C80.1195 145.201 80.1567 144.87 80.194 144.497C80.66 139.725 81.168 133.998 81.592 128.481C83.1997 132.805 83.8941 138.887 84.7329 145.518H94.5189C93.708 128.355 91.5831 114.394 90.4554 108.438H69.6997C69.6718 110.572 69.4341 131.272 68.8982 145.518H80.0822Z" fill="#263238"/>
<path opacity="0.2" d="M80.0822 145.518C80.1195 145.201 80.1567 144.87 80.194 144.497C80.66 139.725 81.168 133.998 81.592 128.481C83.1997 132.805 83.8941 138.887 84.7329 145.518H94.5189C93.708 128.355 91.5831 114.394 90.4554 108.438H69.6997C69.6718 110.572 69.4341 131.272 68.8982 145.518H80.0822Z" fill="white"/>
<path d="M82.948 65.9343C82.9026 66.1221 82.8466 66.3073 82.7802 66.4888C82.409 67.525 81.7332 68.4249 80.8417 69.0705C80.6175 69.2349 80.3807 69.3814 80.1334 69.5085C79.1883 70.014 78.1039 70.1965 77.0455 70.0283C75.9871 69.86 75.0127 69.3501 74.2711 68.5765C72.3092 66.596 72.3605 64.3079 72.1368 60.4355C72.0777 59.6033 72.2133 58.7689 72.5329 57.9983C72.8002 57.355 73.1916 56.7707 73.6848 56.2788C74.178 55.7868 74.7633 55.3969 75.4072 55.1312C76.0511 54.8655 76.7411 54.7292 77.4377 54.7302C78.1343 54.7312 78.8238 54.8695 79.467 55.1371C83.2509 56.6842 83.7728 62.4439 82.948 65.9343Z" fill="#E4897B"/>
<path opacity="0.2" d="M80.8276 69.0705C80.6034 69.235 80.3666 69.3815 80.1193 69.5086C79.4704 69.8546 78.7524 70.0509 78.0178 70.0831C77.2832 70.1154 76.5507 69.9828 75.874 69.695C76.0493 69.2295 76.2826 68.788 76.5684 68.3809C78.0249 68.1982 79.5032 68.4376 80.8276 69.0705Z" fill="black"/>
<path d="M73.0315 74.0939C74.9421 75.8274 79.6161 75.189 79.6161 75.189C79.6161 75.189 82.5332 74.3875 81.9181 73.4788C80.2032 73.1945 79.3691 72.393 79.0243 71.3632C78.8381 70.7269 78.7795 70.0602 78.8518 69.4013C78.8793 69.0338 78.9276 68.6682 78.9963 68.3062L73.2179 64.0283C73.9728 66.8523 74.9002 72.0482 73.0315 74.0939Z" fill="#E4897B"/>
<path d="M80.8277 62.4114L81.6618 62.7236L81.2471 61.018C81.2471 61.018 82.468 59.154 81.2471 57.537C81.2471 57.537 84.6209 56.5118 82.715 54.741C82.0066 54.0793 81.1259 54.741 78.7959 53.7298C77.533 53.1753 73.5814 53.1333 73.3856 54.741C73.3856 54.741 70.5384 54.741 70.2308 59.5874C70.1409 61.0074 70.3644 62.4297 70.8854 63.7536C71.4065 65.0775 72.2123 66.2707 73.2458 67.2485C73.2458 67.2485 76.6849 68.0593 78.3718 66.6799C80.0588 65.3006 80.8277 62.4114 80.8277 62.4114Z" fill="#263238"/>
<path d="M78.6283 62.6862C78.701 63.0506 78.8542 63.3941 79.0768 63.6916C79.2993 63.9891 79.5855 64.2331 79.9145 64.4058C80.702 64.7413 81.2239 63.6322 81.1074 62.4672C81.0002 61.4327 80.4643 59.9788 79.6209 60.1745C78.7774 60.3702 78.3534 61.6424 78.6283 62.6862Z" fill="#E4897B"/>
<path opacity="0.2" d="M81.6107 128.458C81.168 133.975 80.6787 139.716 80.2127 144.488C79.5043 137.596 78.6376 132.684 78.6376 132.684C78.6376 132.684 77.8267 132.018 75.5946 128.458C73.3625 124.897 75.5946 118.243 75.5946 118.243C75.4921 124.422 81.6107 128.458 81.6107 128.458Z" fill="black"/>
<path d="M95.2411 144.712L94.8123 146.329H84.3926V144.833L95.2411 144.712Z" fill="#407BFF"/>
<path d="M80.5853 144.935L80.2731 146.431H68.474L67.761 144.935H80.5853Z" fill="#407BFF"/>
<path d="M82.0393 72.9709C82.0393 72.9709 80.3431 70.2914 76.0699 70.1004C71.7967 69.9093 71.4705 72.8498 71.4705 72.8498L82.0393 72.9709Z" fill="#407BFF"/>
<path opacity="0.5" d="M82.0393 72.9709C82.0393 72.9709 80.3431 70.2914 76.0699 70.1004C71.7967 69.9093 71.4705 72.8498 71.4705 72.8498L82.0393 72.9709Z" fill="white"/>
<path d="M66.694 71.298C67.983 85.8059 67.8269 100.406 66.228 114.883L91.2662 113.354C90.9866 87.8037 87.5615 71.7081 87.5615 71.7081C87.5615 71.7081 81.1074 73.0641 75.8556 72.8684C72.7487 72.7241 69.6716 72.1967 66.694 71.298Z" fill="#407BFF"/>
<path d="M87.5801 71.7267C87.5801 71.7267 90.926 79.5462 91.2848 87.4588C91.6437 95.3715 77.6963 106.248 77.6963 106.248C77.6963 106.248 66.9457 98.8479 58.6509 99.5189C50.3561 100.19 47.7744 103.14 47.7744 103.14C47.7744 103.14 54.2239 89.3415 65.4545 84.5324C65.4545 84.5324 63.1245 76.5871 66.694 71.3352C66.694 71.298 74.4576 73.8423 87.5801 71.7267Z" fill="#407BFF"/>
<path opacity="0.6" d="M91.2848 87.4589C91.2964 87.6824 91.2964 87.9064 91.2848 88.1299C91.2656 88.4756 91.2235 88.8196 91.159 89.1598C91.0071 89.9601 90.768 90.7415 90.446 91.4898C89.4501 93.6799 88.1512 95.7192 86.5875 97.5478C85.7953 98.517 84.9565 99.449 84.127 100.316C82.118 102.434 79.9696 104.416 77.6962 106.248C74.8728 104.379 71.8711 102.795 68.7351 101.518C67.7798 101.136 66.7872 100.777 65.7759 100.474C63.4794 99.7308 61.066 99.4149 58.6555 99.5422C56.3547 99.6954 54.0826 100.14 51.8938 100.866C51.5164 100.996 51.1669 101.136 50.8453 101.271L50.5564 101.397C49.856 101.701 49.1879 102.074 48.5619 102.511C48.492 102.557 48.4268 102.609 48.3662 102.655C48.3056 102.702 48.1472 102.823 48.0633 102.897L47.9515 102.995C47.9229 103.018 47.8964 103.043 47.8722 103.07L47.8163 103.126L47.7837 103.158C47.7837 103.135 47.8396 103.037 47.9235 102.869L48.054 102.613C48.1845 102.352 48.3662 102.003 48.6039 101.579L48.7064 101.392L48.8881 101.071C48.9487 100.959 49.0139 100.842 49.0838 100.726C49.3541 100.26 49.671 99.7193 50.0158 99.1461C51.9314 96.0465 54.1988 93.1787 56.7728 90.5997C57.6906 89.6872 58.6616 88.8298 59.6807 88.032C61.4421 86.6301 63.3782 85.4631 65.4404 84.5603C64.9058 82.5139 64.6627 80.4023 64.7181 78.288C64.7317 77.622 64.7862 76.9575 64.8812 76.2982C65.095 74.5147 65.7151 72.8041 66.694 71.298C67.8391 71.6309 69.0073 71.8785 70.189 72.0389C71.7332 72.2744 73.2886 72.43 74.849 72.5049C77.9874 72.6454 81.1321 72.5348 84.2529 72.1741C85.3153 72.0591 86.4198 71.9038 87.5661 71.7081L87.6733 71.969C88.4148 73.8293 89.0542 75.7288 89.5886 77.6589C89.7936 78.3998 89.9986 79.192 90.1944 80.0215C90.3901 80.851 90.5392 81.5919 90.6883 82.4167C90.9965 84.0827 91.1958 85.767 91.2848 87.4589Z" fill="white"/>
<g opacity="0.2">
<path d="M88.0742 93.8104L86.6016 97.5757C85.8094 98.545 84.9706 99.477 84.1412 100.344L81.1448 94.7517L88.0742 93.8104Z" fill="white"/>
<path d="M62.7051 90.213L56.7869 90.5531C57.7046 89.6406 58.6756 88.7832 59.6947 87.9855L62.7051 90.213Z" fill="white"/>
<path d="M69.5319 75.3055L68.8981 81.4567L64.7041 78.2833C64.7177 77.6173 64.7722 76.9528 64.8672 76.2935L69.5319 75.3055Z" fill="white"/>
<path d="M71.4705 91.513L69.532 85.6041L75.4269 84.5137L71.4705 91.513Z" fill="white"/>
<path d="M81.6106 85.8838V90.3061L85.8419 88.787L81.6106 85.8838Z" fill="white"/>
<path d="M70.7248 98.6942L68.735 101.49C67.7797 101.108 66.7871 100.749 65.7759 100.446L64.2754 97.0259L70.7248 98.6942Z" fill="white"/>
<path d="M55.6079 94.4535L58.6509 95.7443L55.6079 97.818V94.4535Z" fill="white"/>
<path d="M51.8892 100.824C48.8602 101.881 47.7744 103.121 47.7744 103.121C48.4507 101.742 49.202 100.401 50.0252 99.1041L51.8892 100.824Z" fill="white"/>
<path d="M76.7549 95.1012L74.136 97.818L78.097 98.5123L76.7549 95.1012Z" fill="white"/>
<path d="M76.7549 78.0456L79.8351 82.193L82.0393 77.4957L76.7549 78.0456Z" fill="white"/>
<path d="M90.7023 82.4353L86.7646 79.8444L89.6026 77.6775C90.0033 79.1128 90.4041 80.7298 90.7023 82.4353Z" fill="white"/>
<path d="M91.2802 88.1299C91.1952 89.2957 90.9115 90.4383 90.4414 91.5084L88.7917 87.4496L91.2802 88.1299Z" fill="white"/>
<path d="M87.6873 71.9876L85.1942 74.56L84.2622 72.1927C85.3247 72.0777 86.4291 71.9224 87.5755 71.7267L87.6873 71.9876Z" fill="white"/>
<path d="M74.8629 72.5095L73.0316 76.3866L70.189 72.0575C71.7381 72.2888 73.2982 72.4397 74.8629 72.5095Z" fill="white"/>
</g>
<path opacity="0.2" d="M91.2847 87.4588C91.2963 87.6823 91.2963 87.9063 91.2847 88.1298C91.2654 88.4755 91.2234 88.8196 91.1588 89.1597C87.8968 83.9871 88.6704 79.3085 88.6704 79.3085L90.2129 80.0401C90.3899 80.809 90.5577 81.6105 90.7068 82.4353C91.0079 84.0956 91.201 85.7736 91.2847 87.4588Z" fill="black"/>
<path d="M78.069 51.1342C83.6004 49.2282 84.9891 56.5957 79.4949 61.5772C74.0008 66.5588 67.6911 67.1692 66.9735 64.6435C66.2559 62.1178 69.625 54.056 78.069 51.1342Z" fill="#407BFF"/>
<path d="M72.5282 50.7614C75.3662 50.7614 79.3971 53.6506 79.3971 53.6506C79.3971 53.6506 79.9749 56.7262 77.1463 59.429C74.3177 62.1318 71.764 62.5605 70.1889 61.512C68.6138 60.4635 68.1758 56.386 68.1758 56.386C68.3194 55.9037 68.5774 55.4632 68.9279 55.1022C69.2785 54.7411 69.7111 54.4701 70.1889 54.3123C70.1889 54.3123 70.6549 50.794 72.5282 50.7614Z" fill="#407BFF"/>
<path opacity="0.2" d="M77.1463 59.4289C74.3177 62.1317 71.7733 62.5604 70.1889 61.5166C69.9128 61.3228 69.6783 61.0756 69.4992 60.7896C68.474 59.2472 68.1758 56.3999 68.1758 56.3999C70.8786 59.6619 74.0101 56.2927 74.4435 54.0187C74.5718 53.4785 74.5734 52.916 74.4481 52.3752C74.3228 51.8343 74.074 51.3298 73.7212 50.9011C75.5852 51.3019 77.6263 52.4948 78.6794 53.1705C79.1454 53.4548 79.3971 53.6365 79.3971 53.6365C79.3971 53.6365 79.9749 56.7261 77.1463 59.4289Z" fill="black"/>
<path opacity="0.6" d="M77.1463 59.4289C74.3177 62.1317 71.7733 62.5604 70.1889 61.5166C69.9128 61.3228 69.6783 61.0756 69.4993 60.7896C72.3325 61.6331 75.7064 60.2304 77.5191 57.7094C78.4803 56.4043 78.8964 54.7767 78.6795 53.1705C79.1455 53.4548 79.3971 53.6365 79.3971 53.6365C79.3971 53.6365 79.9749 56.7261 77.1463 59.4289Z" fill="white"/>
<path d="M87.58 71.7267C87.58 71.7267 85.3945 76.1443 90.7022 83.1483L102.403 74.5599L97.7435 66.1021L87.58 71.7267Z" fill="#407BFF"/>
<path opacity="0.6" d="M102.404 74.56L99.3513 76.8015L94.8358 80.1241L90.7024 83.1624C90.4321 82.8082 90.1851 82.4587 89.9521 82.1185C89.4788 81.4252 89.0493 80.7031 88.6659 79.9563C87.7207 78.2214 87.1986 76.2879 87.1421 74.313C87.1105 73.4275 87.2694 72.5455 87.6081 71.7267L90.2084 70.2821L94.6867 67.7984L96.6532 66.7033L97.7623 66.0881L102.404 74.56Z" fill="white"/>
<g opacity="0.2">
<path d="M99.3513 76.7875L94.8358 80.1101L92.8459 75.6831L99.3513 76.7875Z" fill="white"/>
<path d="M98.9319 69.667L94.7659 71.3166L94.6587 67.7983L96.6252 66.7032L98.9319 69.667Z" fill="white"/>
<path d="M91.6716 73.134L87.1421 74.313C87.1105 73.4275 87.2694 72.5455 87.6081 71.7267L90.2084 70.2821L91.6716 73.134Z" fill="white"/>
<path d="M90.7023 78.7866L89.938 82.1045C89.4647 81.4112 89.0352 80.6891 88.6519 79.9423L90.7023 78.7866Z" fill="white"/>
</g>
<path d="M119.501 151.268L112.306 150.7L114.683 120.359L121.901 120.922L119.501 151.268ZM113.783 149.404L118.215 149.749L120.372 122.195L115.945 121.85L113.783 149.404Z" fill="#263238"/>
<path d="M114.529 190.38L115.461 190.454C115.72 190.45 115.977 190.501 116.216 190.602C116.455 190.704 116.67 190.854 116.848 191.043C117.025 191.233 117.161 191.457 117.247 191.702C117.333 191.947 117.366 192.207 117.346 192.465C117.325 192.724 117.251 192.976 117.128 193.204C117.004 193.432 116.835 193.632 116.63 193.791C116.424 193.95 116.188 194.065 115.937 194.127C115.685 194.19 115.423 194.199 115.167 194.154L114.235 194.08C113.975 194.084 113.718 194.034 113.479 193.933C113.239 193.832 113.024 193.682 112.846 193.493C112.668 193.304 112.532 193.08 112.446 192.835C112.359 192.59 112.325 192.33 112.346 192.071C112.366 191.812 112.44 191.56 112.563 191.332C112.686 191.103 112.856 190.903 113.061 190.744C113.266 190.584 113.502 190.47 113.754 190.407C114.006 190.344 114.268 190.335 114.524 190.38H114.529Z" fill="#263238"/>
<path opacity="0.1" d="M112.502 192.048C112.471 192.421 112.553 192.795 112.735 193.122C112.917 193.449 113.193 193.715 113.526 193.885C113.859 194.056 114.236 194.123 114.608 194.08C114.98 194.036 115.33 193.883 115.615 193.64C115.9 193.397 116.107 193.075 116.208 192.714C116.31 192.354 116.302 191.971 116.186 191.615C116.071 191.259 115.852 190.945 115.557 190.714C115.263 190.482 114.907 190.343 114.533 190.314C114.285 190.291 114.035 190.318 113.798 190.394C113.561 190.469 113.341 190.591 113.152 190.752C112.962 190.914 112.807 191.112 112.696 191.334C112.584 191.557 112.518 191.799 112.502 192.048Z" fill="white"/>
<path d="M109.44 189.984L110.372 190.053C110.632 190.049 110.889 190.099 111.128 190.2C111.368 190.301 111.583 190.451 111.761 190.64C111.939 190.829 112.075 191.053 112.161 191.298C112.248 191.543 112.282 191.803 112.262 192.062C112.241 192.321 112.167 192.573 112.044 192.801C111.921 193.03 111.751 193.23 111.546 193.39C111.341 193.549 111.105 193.663 110.853 193.726C110.601 193.789 110.339 193.798 110.083 193.753L109.151 193.684C108.891 193.688 108.634 193.638 108.395 193.537C108.155 193.436 107.94 193.286 107.762 193.097C107.584 192.908 107.448 192.684 107.362 192.439C107.275 192.194 107.241 191.934 107.262 191.675C107.282 191.416 107.356 191.164 107.479 190.936C107.602 190.707 107.772 190.507 107.977 190.347C108.182 190.188 108.418 190.074 108.67 190.011C108.922 189.948 109.184 189.939 109.44 189.984Z" fill="#263238"/>
<path opacity="0.2" d="M107.413 191.652C107.383 192.025 107.466 192.398 107.649 192.725C107.831 193.051 108.107 193.316 108.441 193.486C108.774 193.656 109.151 193.723 109.523 193.679C109.894 193.634 110.244 193.481 110.529 193.238C110.813 192.994 111.019 192.672 111.12 192.312C111.222 191.951 111.214 191.569 111.098 191.213C110.982 190.857 110.763 190.544 110.468 190.313C110.174 190.081 109.818 189.942 109.445 189.914C108.945 189.876 108.451 190.038 108.07 190.364C107.69 190.689 107.453 191.152 107.413 191.652Z" fill="white"/>
<path d="M108.592 190.543L115.802 191.108C116.492 191.162 117.096 190.646 117.15 189.956L120.584 146.132C120.638 145.442 120.122 144.839 119.432 144.785L112.221 144.22C111.531 144.166 110.928 144.682 110.874 145.372L107.44 189.195C107.386 189.885 107.902 190.489 108.592 190.543Z" fill="#263238"/>
<path opacity="0.2" d="M112.192 190.819L115.806 191.102C116.496 191.156 117.1 190.64 117.154 189.95L120.587 146.127C120.641 145.436 120.126 144.833 119.435 144.779L115.821 144.496C115.131 144.442 114.527 144.957 114.473 145.647L111.04 189.471C110.986 190.161 111.501 190.765 112.192 190.819Z" fill="white"/>
<path d="M115.019 121.374L121.1 121.861C121.615 121.902 122.066 121.518 122.107 121.004L122.153 120.43C122.194 119.916 121.81 119.465 121.295 119.424L115.214 118.937C114.699 118.896 114.249 119.28 114.208 119.795L114.162 120.368C114.121 120.883 114.504 121.333 115.019 121.374Z" fill="#263238"/>
<path opacity="0.2" d="M115.019 121.374L121.1 121.861C121.615 121.902 122.066 121.518 122.107 121.004L122.153 120.43C122.194 119.916 121.81 119.465 121.295 119.424L115.214 118.937C114.699 118.896 114.249 119.28 114.208 119.795L114.162 120.368C114.121 120.883 114.504 121.333 115.019 121.374Z" fill="white"/>
<path opacity="0.2" d="M115.159 121.98L115.665 122.019C116.178 122.06 116.627 121.676 116.667 121.163L116.712 120.591C116.752 120.078 116.368 119.63 115.855 119.59L115.349 119.55C114.835 119.51 114.387 119.893 114.347 120.407L114.302 120.978C114.262 121.491 114.646 121.94 115.159 121.98Z" fill="black"/>
<path d="M133.993 149.418L130.89 189.028C130.835 189.728 130.505 190.377 129.972 190.833C129.439 191.289 128.747 191.515 128.047 191.461L113.601 190.328C113.111 190.287 112.658 190.053 112.339 189.679C112.021 189.305 111.863 188.819 111.9 188.329L115.102 147.149C115.142 146.659 115.375 146.205 115.748 145.886C116.122 145.566 116.606 145.407 117.096 145.443L131.542 146.576C131.89 146.6 132.23 146.694 132.542 146.85C132.853 147.007 133.131 147.223 133.359 147.487C133.587 147.751 133.76 148.058 133.869 148.389C133.978 148.721 134.02 149.07 133.993 149.418Z" fill="#407BFF"/>
<path opacity="0.2" d="M133.993 149.418L130.89 189.028C130.835 189.728 130.505 190.377 129.972 190.833C129.439 191.289 128.747 191.515 128.047 191.461L113.601 190.328C113.111 190.287 112.658 190.053 112.339 189.679C112.021 189.305 111.863 188.819 111.9 188.329L115.102 147.149C115.142 146.659 115.375 146.205 115.748 145.886C116.122 145.566 116.606 145.407 117.096 145.443L131.542 146.576C131.89 146.6 132.23 146.694 132.542 146.85C132.853 147.007 133.131 147.223 133.359 147.487C133.587 147.751 133.76 148.058 133.869 148.389C133.978 148.721 134.02 149.07 133.993 149.418Z" fill="white"/>
<path opacity="0.2" d="M124.058 145.988V146.044L123.541 146.002C123.05 145.966 122.565 146.126 122.191 146.446C121.818 146.767 121.586 147.222 121.547 147.713L118.322 188.879C118.292 189.292 118.402 189.704 118.632 190.048C118.862 190.392 119.201 190.65 119.594 190.78L113.587 190.314C113.097 190.274 112.643 190.042 112.324 189.668C112.005 189.295 111.846 188.81 111.882 188.32L115.102 147.153C115.141 146.663 115.373 146.208 115.747 145.887C116.12 145.567 116.605 145.407 117.096 145.443L124.058 145.988Z" fill="black"/>
<path opacity="0.2" d="M123.936 147.431L123.722 147.415C123.443 147.393 123.198 147.602 123.176 147.881L120.014 188.239C119.992 188.519 120.201 188.763 120.481 188.785L120.695 188.802C120.974 188.824 121.219 188.615 121.241 188.335L124.403 147.977C124.425 147.698 124.216 147.453 123.936 147.431Z" fill="black"/>
<path opacity="0.2" d="M126.83 147.856L126.616 147.84C126.336 147.818 126.092 148.027 126.07 148.306L122.908 188.664C122.886 188.944 123.095 189.188 123.375 189.21L123.588 189.227C123.868 189.249 124.112 189.04 124.134 188.76L127.296 148.403C127.318 148.123 127.109 147.878 126.83 147.856Z" fill="black"/>
<path opacity="0.2" d="M129.724 148.03L129.511 148.014C129.231 147.992 128.987 148.201 128.965 148.48L125.803 188.838C125.781 189.118 125.99 189.362 126.269 189.384L126.483 189.401C126.763 189.423 127.007 189.214 127.029 188.934L130.191 148.576C130.213 148.297 130.004 148.052 129.724 148.03Z" fill="black"/>
<path opacity="0.2" d="M132.61 148.2L132.397 148.183C132.117 148.161 131.873 148.37 131.851 148.65L128.689 189.007C128.667 189.287 128.876 189.531 129.155 189.553L129.369 189.57C129.649 189.592 129.893 189.383 129.915 189.103L133.077 148.746C133.099 148.466 132.89 148.222 132.61 148.2Z" fill="black"/>
</svg>
