<svg width="40" height="32" viewBox="0 0 40 32" fill="none" xmlns="http://www.w3.org/2000/svg">
<path d="M21.184 21.272C21.184 18.392 22.464 14.744 25.024 10.328C27.584 5.848 29.92 2.552 32.032 0.439999L37.216 3.224C34.528 7.384 32.896 11.128 32.32 14.456L39.424 19.256C39.424 21.688 38.784 24.056 37.504 26.36C36.224 28.6 34.56 30.456 32.512 31.928C24.96 30.712 21.184 27.16 21.184 21.272ZM0.64 21.272C0.64 18.392 1.92 14.744 4.48 10.328C7.04 5.848 9.376 2.552 11.488 0.439999L16.672 3.224C13.984 7.384 12.352 11.128 11.776 14.456L18.88 19.256C18.88 21.688 18.24 24.056 16.96 26.36C15.68 28.6 14.016 30.456 11.968 31.928C4.416 30.712 0.64 27.16 0.64 21.272Z" fill="#479FD1"/>
</svg>
