<svg width="224" height="224" viewBox="0 0 224 224" fill="none" xmlns="http://www.w3.org/2000/svg">
<g clip-path="url(#clip0_357_7366)">
<path d="M202.357 123.881C200.413 140.318 192.909 159.434 177.914 168.233C155.263 181.507 157.158 201.918 112.954 210.793C106.506 212.118 99.9324 212.74 93.3497 212.648C90.1285 212.59 86.9143 212.327 83.7267 211.859C55.6281 207.756 36.7136 188.223 29.7785 164.644C20.6483 133.634 38.8774 113.335 50.96 101.1C63.0425 88.8653 71.886 50.736 115.284 41.664C121.908 40.2527 128.673 39.6108 135.444 39.751C150.882 40.1318 167.722 45.1987 179.379 55.785C180.251 56.5794 181.102 57.4022 181.933 58.2534C198.123 74.8832 205.005 101.468 202.357 123.881Z" fill="#407BFF"/>
<path opacity="0.7" d="M202.357 123.881C200.413 140.318 192.909 159.434 177.914 168.233C155.263 181.507 157.158 201.918 112.954 210.793C106.506 212.118 99.9324 212.74 93.3497 212.648C90.1285 212.59 86.9143 212.327 83.7267 211.859C55.6281 207.756 36.7136 188.223 29.7785 164.644C20.6483 133.634 38.8774 113.335 50.96 101.1C63.0425 88.8653 71.886 50.736 115.284 41.664C121.908 40.2527 128.673 39.6108 135.444 39.751C150.882 40.1318 167.722 45.1987 179.379 55.785C180.251 56.5794 181.102 57.4022 181.933 58.2534C198.123 74.8832 205.005 101.468 202.357 123.881Z" fill="white"/>
<g opacity="0.15">
<path d="M144.296 43.904C142.173 45.3779 136.465 46.368 136.461 46.368C136.456 46.368 136.949 42.4077 137.012 42.1613C137.746 39.3075 140.838 34.2227 144.135 34.0211C146.505 33.8777 148.248 35.9385 148.167 38.2189C148.086 40.4992 146.106 42.6361 144.296 43.904Z" fill="black"/>
<path d="M128.576 115.723C128.576 115.857 128.576 115.983 128.576 116.117L126.605 117.376C126.605 116.838 126.605 116.296 126.605 115.732C126.605 114.146 126.636 112.448 126.681 110.705C125.046 110.4 123.43 109.997 121.843 109.5C120.539 111.619 116.709 114.558 116.211 114.934C117.067 116.243 117.918 117.501 118.733 118.684C119.298 119.495 119.845 120.27 120.373 121.018L118.227 121.439C117.86 120.902 117.493 120.351 117.116 119.777C116.22 118.456 115.324 117.022 114.406 115.544C113.823 115.79 109.03 117.784 106.611 117.716C104.411 117.658 101.624 116.968 100.271 115.073C98.9184 113.178 99.2768 110.539 101.342 109.361C104.209 107.722 109.581 110.284 111.754 112.273C111.884 112.39 113.133 113.819 113.909 114.733C113.537 114.128 113.165 113.541 112.789 112.914C112.036 111.673 111.324 110.414 110.549 109.066L109.482 107.05C109.115 106.382 108.81 105.634 108.465 104.917C107.699 103.246 107.009 101.517 106.351 99.7606C105.267 100.419 101.373 102.695 99.1828 102.968C96.992 103.242 94.1428 102.968 92.5165 101.315C90.8903 99.662 90.8455 96.983 92.7092 95.4911C95.2941 93.4393 100.993 95.1596 103.461 96.7948C103.618 96.8934 105.253 98.2688 106.122 99.0348C105.733 97.9731 105.343 96.9158 104.984 95.8316C103.954 92.6956 103.009 89.4969 102.05 86.3072C101.751 85.3305 101.453 84.3569 101.154 83.3862C100.773 83.6236 96.226 86.4326 93.7485 86.7372C91.5623 87.015 88.704 86.7372 87.0823 85.0841C85.4605 83.431 85.4112 80.7519 87.2749 79.2601C89.8599 77.2083 95.5584 78.9286 98.0269 80.5638C98.2106 80.6892 100.549 82.6649 101.118 83.198C100.455 81.0521 99.7741 78.9241 99.0215 76.8544C98.0002 74.0658 96.7985 71.3467 95.424 68.7142C95.2448 68.8217 90.496 71.774 87.9783 72.0876C85.792 72.3609 82.9338 72.0876 81.3076 70.4345C79.6813 68.7814 79.6365 66.1024 81.5002 64.6105C84.0852 62.5587 89.7837 64.279 92.2522 65.9142C92.4404 66.0441 94.9402 68.1542 95.3882 68.6022C95.312 68.4499 95.2448 68.2841 95.1642 68.1542C93.7245 65.5374 92.0559 63.0532 90.178 60.7308C89.161 59.4316 88.1127 58.2534 87.042 57.1468C86.2132 57.7875 82.3962 60.6726 80.1607 61.2057C78.0192 61.7164 75.1476 61.7747 73.3511 60.3097C71.5546 58.8448 71.2141 56.1881 72.9031 54.5171C75.2506 52.192 81.1015 53.2761 83.7178 54.6336C83.8612 54.7052 85.2231 55.6147 86.2087 56.2912C85.7293 55.7894 85.241 55.2652 84.7751 54.7948C83.0144 53.0028 81.2986 51.5065 79.7664 50.176C78.8704 49.4278 78.082 48.7692 77.3159 48.16C76.178 48.3616 71.568 49.1276 69.3773 48.5811C67.1866 48.0345 64.6688 46.7891 63.7549 44.6342C62.841 42.4793 63.7549 39.9929 66.0308 39.2851C69.1668 38.304 73.8752 41.9731 75.5732 44.3699C75.721 44.5804 77.6384 48.0972 77.5802 48.1107H77.513C78.2567 48.6796 79.0496 49.3024 79.9053 50.0012C81.4688 51.3004 83.225 52.7788 85.026 54.5216C86.9891 56.3759 88.8411 58.3446 90.5722 60.4172C92.5273 62.7246 94.2711 65.2031 95.7824 67.8227L95.8317 67.9212C95.6256 66.976 95.1463 64.3148 95.1328 64.1043C94.9402 61.1654 96.2932 55.3683 99.362 54.1497C101.571 53.2537 103.869 54.6873 104.492 56.8825C105.114 59.0777 103.936 61.6806 102.592 63.4368C101.096 65.4214 96.3648 67.984 95.9885 68.19C97.4609 70.8919 98.751 73.6892 99.8503 76.5632C100.5 78.2342 101.105 79.9411 101.687 81.6569C101.539 80.8326 101.409 80.0934 101.405 79.9904C101.212 77.0515 102.565 71.2544 105.634 70.0358C107.843 69.1398 110.141 70.5734 110.764 72.7686C111.386 74.9638 110.208 77.616 108.864 79.3721C107.52 81.1283 103.528 83.4041 102.462 84.0089C102.682 84.672 102.91 85.326 103.121 85.9891C104.147 89.1609 105.159 92.3328 106.257 95.3971C106.637 96.4812 107.054 97.534 107.471 98.5913C107.336 97.8611 107.233 97.2473 107.224 97.1488C107.032 94.2099 108.385 88.4128 111.453 87.1942C113.662 86.3206 115.96 87.7318 116.583 89.927C117.206 92.1222 116.032 94.7923 114.688 96.5484C113.344 98.3046 109.76 100.379 108.479 101.078C108.927 102.148 109.375 103.219 109.881 104.214C110.23 104.899 110.522 105.585 110.911 106.257C111.301 106.929 111.655 107.601 112.018 108.25C112.771 109.491 113.537 110.777 114.298 111.969C114.822 112.802 115.338 113.586 115.853 114.379C115.459 113.299 114.728 111.18 114.688 110.992C114.227 108.446 114.422 105.825 115.257 103.376C115.193 103.093 115.155 102.805 115.145 102.516C115.064 100.24 116.816 98.1881 119.177 98.3449C122.47 98.56 125.534 103.663 126.251 106.521C126.296 106.687 126.551 108.568 126.699 109.755C126.726 109.048 126.739 108.353 126.771 107.623C126.829 106.176 126.923 104.729 127.021 103.174C127.098 102.426 127.174 101.669 127.25 100.907C127.326 100.146 127.469 99.3529 127.573 98.5689C127.859 96.7769 128.236 94.9312 128.657 93.0988C127.389 93.0496 122.886 92.8032 120.906 91.822C118.926 90.8409 116.691 89.0489 116.256 86.7641C115.821 84.4793 117.255 82.2259 119.621 82.0243C122.909 81.7375 126.717 86.3161 127.859 89.031C127.931 89.2012 128.531 91.2441 128.84 92.3686C129.1 91.271 129.356 90.1734 129.656 89.0758C130.525 85.8905 131.501 82.7007 132.46 79.511C132.756 78.5344 133.038 77.5577 133.325 76.5766C132.877 76.5766 127.501 76.3884 125.297 75.2864C123.325 74.3097 121.081 72.5177 120.646 70.2284C120.212 67.9392 121.645 65.6947 124.015 65.4886C127.299 65.2064 131.107 69.7804 132.25 72.4998C132.335 72.7014 133.195 75.6358 133.379 76.4019C134.006 74.247 134.615 72.0966 135.126 69.9552C135.834 67.0637 136.351 64.129 136.676 61.1699C136.465 61.1699 130.852 61.0041 128.612 59.8752C126.636 58.8985 124.396 57.1065 123.962 54.8172C123.527 52.528 124.956 50.2835 127.326 50.0774C130.614 49.7952 134.418 54.3692 135.56 57.0886C135.654 57.2992 136.577 60.462 136.703 61.0489C136.703 60.8787 136.757 60.6995 136.774 60.5292C137.02 57.5466 136.999 54.5481 136.712 51.5692C136.577 49.9251 136.353 48.3616 136.102 46.8473C135.059 46.9235 130.278 47.2236 128.124 46.4352C126.054 45.6825 123.644 44.1459 122.949 41.9193C122.255 39.6928 123.442 37.3004 125.772 36.839C129.011 36.1939 133.293 40.3244 134.732 42.9004C134.808 43.0393 135.444 44.5491 135.892 45.6601C135.766 44.9747 135.654 44.2668 135.525 43.6172C135.036 41.1712 134.44 38.958 133.894 37.0048C133.576 35.8937 133.267 34.8992 132.966 33.9673C131.9 33.5193 127.635 31.6064 126.112 29.9353C124.589 28.2643 123.178 25.8316 123.599 23.5379C124.02 21.2441 126.157 19.712 128.442 20.366C131.613 21.2889 133.509 26.9292 133.598 29.8771C133.598 30.128 133.262 34.1241 133.208 34.1017L133.141 34.0748C133.45 34.9708 133.768 35.9161 134.095 36.9689C134.682 38.9132 135.327 41.1174 135.887 43.568C136.502 46.197 136.963 48.8596 137.267 51.5424C137.62 54.5469 137.706 57.5768 137.523 60.5964V60.704C137.877 59.808 138.943 57.3171 139.046 57.12C140.506 54.5619 144.834 50.4761 148.064 51.1526C150.389 51.6409 151.527 54.087 150.837 56.2643C150.147 58.4416 147.701 59.9916 145.613 60.7443C143.27 61.5686 137.908 61.0982 137.482 61.0579C137.22 64.126 136.753 67.1733 136.085 70.1792C135.704 71.9308 135.269 73.687 134.808 75.4387C135.139 74.6681 135.439 73.9827 135.489 73.8931C136.949 71.335 141.277 67.2448 144.507 67.9257C146.837 68.414 147.97 70.8601 147.28 73.0329C146.59 75.2057 144.144 76.7648 142.056 77.5129C139.969 78.2611 135.372 77.9609 134.158 77.8489C133.979 78.5209 133.8 79.1929 133.616 79.8604C132.72 83.0771 131.824 86.2803 131.027 89.4521C130.749 90.5676 130.516 91.6921 130.278 92.7852C130.57 92.1043 130.821 91.5308 130.87 91.4412C132.33 88.8832 136.658 84.7974 139.888 85.4739C142.213 85.9622 143.351 88.4083 142.661 90.5855C141.971 92.7628 139.525 94.3129 137.437 95.0656C135.35 95.8182 131.197 95.5135 129.759 95.415C129.548 96.5619 129.338 97.7087 129.185 98.8243C129.1 99.5903 128.961 100.321 128.921 101.096C128.881 101.871 128.8 102.619 128.742 103.367C128.684 104.819 128.612 106.31 128.589 107.726C128.589 108.712 128.563 109.648 128.558 110.593C128.822 109.478 129.387 107.305 129.454 107.13C130.511 104.379 134.172 99.6844 137.464 99.8636C139.839 99.9936 141.331 102.243 140.977 104.496C140.623 106.749 138.432 108.658 136.497 109.697C134.36 110.84 129.199 111.198 128.554 111.238C128.513 112.766 128.522 114.289 128.576 115.723Z" fill="black"/>
<path d="M87.0554 56.4749C87.0106 56.5152 85.2634 52.8909 85.1917 52.6579C84.2285 49.8759 84.0045 43.9264 86.6432 41.9418C88.5428 40.5127 91.1232 41.2698 92.3149 43.2231C93.5066 45.1763 93.0452 48.048 92.2298 50.0954C91.2711 52.4922 87.0599 56.4704 87.0554 56.4749Z" fill="black"/>
</g>
<g opacity="0.15">
<path d="M57.3127 126.905C56.9453 128.186 54.9921 130.449 54.9921 130.453C54.9921 130.458 53.8945 128.71 53.8362 128.594C53.1956 127.214 52.77 124.177 54.0154 123.016C54.2289 122.831 54.479 122.692 54.7495 122.609C55.02 122.526 55.3049 122.501 55.5857 122.535C55.8666 122.569 56.1371 122.662 56.3798 122.808C56.6225 122.953 56.832 123.148 56.9946 123.379C57.7159 124.338 57.6218 125.812 57.3127 126.905Z" fill="black"/>
<path d="M74.5159 160.702L74.6458 160.854L74.2785 162.001L73.7409 161.347C73.2212 160.715 72.6791 160.03 72.1281 159.318C71.3751 159.73 70.5988 160.098 69.8029 160.42C69.9777 161.692 69.4087 164.116 69.3325 164.425C70.1031 164.667 70.8513 164.895 71.5725 165.097C72.0653 165.24 72.5357 165.37 72.9927 165.491L72.2714 166.387L71.2858 166.087C70.5018 165.845 69.673 165.572 68.8218 165.281C68.6695 165.572 67.4106 167.933 66.425 168.699C65.529 169.393 64.185 170.043 63.0292 169.716C62.7541 169.651 62.4959 169.529 62.2711 169.357C62.0463 169.186 61.8601 168.969 61.7245 168.721C61.5888 168.473 61.5069 168.2 61.4839 167.918C61.461 167.636 61.4975 167.353 61.5911 167.086C62.1959 165.496 65.1751 164.761 66.6938 164.846C66.7834 164.846 67.7511 165.012 68.3559 165.124C68.011 165.003 67.6705 164.891 67.3165 164.761C66.6132 164.515 65.9143 164.246 65.1662 163.959L64.082 163.511C63.7146 163.368 63.3473 163.171 62.9799 162.996C62.1287 162.579 61.2865 162.1 60.4487 161.629C60.2292 162.248 59.4228 164.425 58.6567 165.254C57.8906 166.083 56.6497 166.907 55.458 166.772C55.1762 166.75 54.9023 166.669 54.654 166.534C54.4056 166.399 54.1884 166.213 54.0165 165.989C53.8446 165.765 53.7217 165.507 53.6559 165.232C53.5901 164.957 53.5829 164.671 53.6346 164.394C53.993 162.731 56.8289 161.553 58.3431 161.405C58.4372 161.405 59.5348 161.405 60.1351 161.428C59.6333 161.132 59.1316 160.841 58.6343 160.532C57.2007 159.636 55.7761 158.655 54.3514 157.696C53.9034 157.4 53.4554 157.114 53.0388 156.8C52.9626 157.019 52.0577 159.631 51.1796 160.559C50.4001 161.383 49.1726 162.212 47.9809 162.077C47.6991 162.055 47.4252 161.974 47.1768 161.839C46.9285 161.704 46.7113 161.518 46.5394 161.294C46.3674 161.07 46.2446 160.812 46.1788 160.537C46.113 160.262 46.1058 159.976 46.1575 159.699C46.5159 158.036 49.3518 156.858 50.866 156.71C50.978 156.71 52.5594 156.71 52.9582 156.746C51.995 156.11 51.0273 155.483 50.0506 154.905C48.7333 154.114 47.3654 153.411 45.9559 152.799C45.9246 152.902 44.9927 155.635 44.0922 156.58C43.3082 157.405 42.0852 158.238 40.889 158.104C40.6072 158.081 40.3333 157.999 40.0851 157.864C39.837 157.728 39.6201 157.542 39.4486 157.317C39.277 157.092 39.1547 156.834 39.0895 156.559C39.0243 156.284 39.0177 155.998 39.0702 155.72C39.4286 154.058 42.2644 152.88 43.7742 152.732C43.8951 152.732 45.593 152.732 45.9022 152.772C45.8215 152.741 45.7364 152.696 45.6558 152.66C44.2285 152.08 42.7515 151.63 41.243 151.316C40.4097 151.133 39.6078 151.003 38.8238 150.895C38.7028 151.419 38.1204 153.821 37.4036 154.762C36.6868 155.702 35.5892 156.63 34.3886 156.625C34.1062 156.634 33.8252 156.584 33.5637 156.477C33.3022 156.37 33.0661 156.209 32.8709 156.005C32.6756 155.801 32.5255 155.558 32.4304 155.292C32.3353 155.026 32.2973 154.743 32.3188 154.461C32.4935 152.768 35.1815 151.285 36.6689 150.971C36.7495 150.971 37.5918 150.873 38.2055 150.819C37.8471 150.779 37.4842 150.725 37.1438 150.689C35.8625 150.559 34.6798 150.515 33.6359 150.488C33.0401 150.488 32.5025 150.488 32.0007 150.488C31.611 150.936 30.0205 152.75 28.9722 153.247C27.9239 153.745 26.5037 154.067 25.4375 153.512C25.1823 153.39 24.9557 153.215 24.7724 153C24.5891 152.785 24.4533 152.533 24.3738 152.262C24.2943 151.99 24.273 151.705 24.3111 151.425C24.3493 151.145 24.4461 150.876 24.5953 150.635C25.5316 149.215 28.6004 149.139 30.0654 149.547C30.1908 149.578 32.1082 150.358 32.0903 150.38L32.0634 150.407C32.5473 150.407 33.067 150.38 33.6359 150.38C34.6842 150.38 35.8759 150.403 37.1572 150.51C38.5462 150.61 39.9283 150.789 41.2967 151.048C42.8238 151.332 44.3229 151.75 45.7767 152.298L45.8305 152.32C45.4407 152.011 44.379 151.106 44.3028 151.03C43.2634 149.919 41.9105 147.163 42.7348 145.654C42.8795 145.411 43.0736 145.201 43.3047 145.037C43.5357 144.874 43.7985 144.761 44.0759 144.706C44.3534 144.65 44.6394 144.654 44.9154 144.716C45.1914 144.778 45.4513 144.898 45.6782 145.067C46.6638 145.752 47.0222 147.186 47.0804 148.319C47.1297 149.601 46.0814 152.168 45.9962 152.351C47.4681 152.946 48.8976 153.64 50.2746 154.43C51.081 154.878 51.8785 155.366 52.6714 155.859C52.3444 155.581 52.0532 155.326 52.0174 155.286C50.978 154.179 49.6206 151.424 50.4494 149.937C50.5931 149.693 50.7866 149.483 51.0172 149.319C51.2478 149.155 51.5103 149.042 51.7877 148.987C52.065 148.931 52.3509 148.935 52.6267 148.997C52.9025 149.06 53.162 149.18 53.3882 149.35C54.3738 150.035 54.7322 151.469 54.7905 152.602C54.8487 153.736 53.9885 155.962 53.7556 156.545L54.6516 157.118C56.0986 158.045 57.5412 158.982 58.9838 159.855C59.49 160.16 60.0007 160.447 60.5114 160.751C60.2202 160.5 59.9783 160.303 59.9425 160.254C58.9031 159.143 57.5502 156.388 58.3745 154.9C58.5187 154.657 58.7125 154.447 58.9431 154.284C59.1737 154.121 59.4361 154.008 59.7132 153.953C59.9903 153.897 60.276 153.901 60.5517 153.963C60.8273 154.025 61.0868 154.145 61.3134 154.314C62.299 154.999 62.6573 156.433 62.7201 157.566C62.7828 158.699 61.9943 160.702 61.721 161.405C62.2542 161.683 62.7873 161.961 63.3114 162.207C63.6788 162.364 64.0148 162.543 64.3911 162.682L65.4842 163.13C66.1876 163.381 66.9134 163.641 67.6077 163.869C68.0916 164.031 68.553 164.174 69.0145 164.317C68.5082 164.017 67.5226 163.421 67.4465 163.345C66.4263 162.481 65.6457 161.368 65.1796 160.115C65.0601 160.025 64.9505 159.923 64.8525 159.811C64.6582 159.605 64.5094 159.361 64.4159 159.094C64.3224 158.828 64.2864 158.544 64.3101 158.263C64.3337 157.981 64.4167 157.707 64.5534 157.46C64.6901 157.213 64.8775 156.997 65.1034 156.827C66.4833 155.837 69.3773 156.867 70.5959 157.772C70.6676 157.826 71.3844 158.493 71.8324 158.919C71.6084 158.628 71.3844 158.35 71.1604 158.045C70.7124 157.45 70.2644 156.84 69.8164 156.191L69.1668 155.21C68.9428 154.891 68.7457 154.52 68.5306 154.175C68.0513 153.355 67.6033 152.504 67.1866 151.639C66.667 152.033 64.7898 153.404 63.6788 153.659C62.5677 153.915 61.0938 153.933 60.1709 153.162C59.9481 152.988 59.7643 152.77 59.6316 152.52C59.4989 152.271 59.4203 151.996 59.4009 151.714C59.3814 151.432 59.4216 151.149 59.5188 150.884C59.6159 150.619 59.768 150.377 59.9649 150.174C61.1834 148.982 64.194 149.565 65.538 150.277C65.6231 150.322 66.5326 150.94 67.0209 151.285C66.77 150.765 66.5101 150.241 66.2727 149.704C65.5783 148.154 64.9287 146.568 64.2612 144.973C64.0596 144.489 63.8535 144.005 63.6474 143.521C63.4638 143.665 61.2686 145.345 60.0276 145.631C58.921 145.887 57.4382 145.905 56.5198 145.134C56.297 144.96 56.1134 144.741 55.9807 144.491C55.8479 144.241 55.7691 143.967 55.7493 143.685C55.7294 143.402 55.769 143.119 55.8654 142.854C55.9619 142.588 56.1131 142.345 56.3092 142.141C57.5278 140.954 60.5428 141.537 61.8868 142.244C61.9898 142.298 63.2935 143.19 63.6116 143.432C63.1636 142.37 62.7156 141.313 62.2004 140.296C61.5417 138.912 60.7934 137.572 59.9604 136.286C59.8708 136.353 57.5905 138.114 56.3137 138.41C55.2071 138.665 53.7287 138.683 52.8058 137.912C52.5828 137.738 52.399 137.519 52.2663 137.269C52.1335 137.019 52.0549 136.744 52.0355 136.462C52.016 136.18 52.0562 135.896 52.1534 135.631C52.2507 135.365 52.4027 135.123 52.5998 134.92C53.8183 133.732 56.8334 134.315 58.1773 135.023C58.2804 135.081 59.6826 136.04 59.9245 136.232C59.8753 136.156 59.8349 136.075 59.7857 135.999C58.9093 134.734 57.9228 133.548 56.8378 132.456C56.2465 131.842 55.6462 131.291 55.0458 130.771C54.6561 131.143 52.8462 132.823 51.7306 133.213C50.6151 133.603 49.1905 133.768 48.187 133.105C47.9467 132.956 47.7404 132.758 47.5814 132.524C47.4225 132.29 47.3144 132.026 47.2641 131.748C47.2139 131.469 47.2226 131.184 47.2897 130.909C47.3569 130.634 47.4809 130.377 47.6538 130.153C48.7335 128.84 51.7933 129.087 53.209 129.647C53.2852 129.674 54.0333 130.095 54.553 130.368C54.2797 130.135 54.0065 129.889 53.7377 129.674C52.7431 128.858 51.7844 128.168 50.9287 127.568C50.4404 127.227 49.9879 126.932 49.5847 126.672C49.0068 126.833 46.6862 127.469 45.5527 127.304C44.4193 127.138 43.0394 126.627 42.4615 125.574C42.3157 125.331 42.2229 125.06 42.1894 124.779C42.1558 124.498 42.1823 124.212 42.2669 123.942C42.3515 123.671 42.4925 123.422 42.6805 123.21C42.8684 122.998 43.0992 122.828 43.3575 122.712C44.921 122.044 47.5239 123.67 48.523 124.817C48.6081 124.916 49.7774 126.609 49.746 126.609H49.7146C50.1268 126.865 50.5658 127.142 51.0586 127.456C51.9278 128.038 52.9044 128.706 53.9214 129.503C55.018 130.354 56.0651 131.266 57.0574 132.236C58.1795 133.319 59.2035 134.498 60.1172 135.762L60.1485 135.811C59.9917 135.336 59.6065 134.019 59.5885 133.889C59.3332 132.388 59.7229 129.347 61.2327 128.563C61.4869 128.438 61.7645 128.369 62.0473 128.359C62.3301 128.349 62.6118 128.399 62.8739 128.506C63.1361 128.613 63.3728 128.773 63.5686 128.978C63.7644 129.182 63.9149 129.425 64.0103 129.691C64.4583 130.807 63.9745 132.209 63.3876 133.181C62.7201 134.275 60.4308 135.838 60.2516 135.963C61.149 137.273 61.9587 138.641 62.6753 140.058C63.0964 140.883 63.4951 141.725 63.8849 142.571C63.7639 142.159 63.6609 141.787 63.6519 141.734C63.3965 140.233 63.7863 137.191 65.2961 136.407C65.5503 136.283 65.8278 136.213 66.1106 136.204C66.3934 136.194 66.6751 136.244 66.9373 136.35C67.1994 136.457 67.4361 136.618 67.632 136.822C67.8278 137.026 67.9783 137.27 68.0737 137.536C68.5217 138.651 68.0378 140.054 67.4465 141.026C66.8551 141.998 64.9242 143.382 64.409 143.741C64.5524 144.068 64.7047 144.39 64.857 144.722C65.5514 146.294 66.2369 147.858 66.9582 149.39C67.2135 149.928 67.4823 150.447 67.7511 150.967C67.6436 150.6 67.5585 150.286 67.5495 150.237C67.2942 148.74 67.6839 145.694 69.1937 144.91C69.4483 144.787 69.726 144.718 70.0088 144.709C70.2917 144.7 70.5732 144.75 70.8352 144.857C71.0972 144.964 71.3338 145.125 71.5295 145.329C71.7253 145.534 71.8758 145.777 71.9713 146.043C72.4193 147.159 71.9354 148.557 71.3441 149.529C70.7527 150.501 69.01 151.769 68.4007 152.181C68.6874 152.705 68.9786 153.229 69.2967 153.727C69.5117 154.058 69.6999 154.394 69.9329 154.717C70.1658 155.039 70.3809 155.362 70.6049 155.684C71.0529 156.28 71.5009 156.899 71.9713 157.476C72.2849 157.875 72.5895 158.251 72.8942 158.628C72.6343 158.099 72.1505 157.046 72.1191 156.952C71.6442 155.514 71.5681 152.445 72.9389 151.437C73.1721 151.278 73.4361 151.168 73.714 151.117C73.992 151.066 74.2776 151.073 74.5525 151.139C74.8273 151.205 75.0853 151.328 75.3098 151.499C75.5342 151.671 75.7201 151.888 75.8554 152.136C76.4647 153.171 76.2004 154.632 75.7658 155.68C75.2865 156.831 73.3466 158.664 73.1047 158.888C73.5303 159.537 74.0321 160.142 74.5159 160.702Z" fill="black"/>
<path d="M38.5952 150.636C38.5952 150.667 36.7181 149.793 36.6061 149.74C35.3114 148.947 33.2775 146.644 33.6807 144.991C33.7546 144.717 33.8857 144.461 34.0654 144.242C34.2451 144.022 34.4692 143.843 34.7231 143.716C34.977 143.589 35.2549 143.517 35.5385 143.505C35.8221 143.493 36.105 143.541 36.3687 143.647C37.5021 144.045 38.2413 145.331 38.5818 146.411C38.976 147.67 38.5952 150.636 38.5952 150.636Z" fill="black"/>
</g>
<g opacity="0.15">
<path d="M166.616 126.905C166.979 128.186 168.932 130.449 168.936 130.453C168.941 130.458 170.034 128.71 170.092 128.594C170.733 127.214 171.158 124.177 169.909 123.016C169.695 122.831 169.446 122.692 169.176 122.609C168.905 122.526 168.621 122.501 168.34 122.535C168.06 122.57 167.79 122.662 167.547 122.808C167.305 122.953 167.096 123.148 166.934 123.379C166.208 124.338 166.302 125.812 166.616 126.905Z" fill="black"/>
<path d="M149.413 160.702L149.283 160.854L149.65 162.001L150.188 161.347C150.707 160.715 151.249 160.03 151.8 159.318C152.553 159.731 153.329 160.099 154.126 160.42C153.951 161.692 154.52 164.116 154.596 164.425C153.825 164.667 153.073 164.895 152.356 165.097C151.868 165.24 151.397 165.37 150.94 165.491L151.662 166.387L152.647 166.087C153.427 165.845 154.26 165.572 155.111 165.281C155.263 165.572 156.518 167.933 157.508 168.699C158.404 169.393 159.748 170.043 160.904 169.716C161.179 169.651 161.437 169.529 161.662 169.357C161.887 169.186 162.073 168.969 162.209 168.721C162.344 168.473 162.426 168.2 162.449 167.918C162.472 167.636 162.435 167.353 162.342 167.086C161.733 165.496 158.758 164.761 157.235 164.846C157.145 164.846 156.182 165.012 155.573 165.124C155.922 165.003 156.258 164.891 156.616 164.761C157.32 164.515 158.019 164.246 158.767 163.959L159.851 163.511C160.214 163.368 160.581 163.171 160.953 162.996C161.804 162.579 162.646 162.1 163.48 161.629C163.699 162.248 164.51 164.425 165.294 165.254C166.078 166.083 167.301 166.907 168.493 166.772C168.775 166.75 169.049 166.669 169.297 166.534C169.545 166.399 169.762 166.213 169.934 165.989C170.106 165.765 170.229 165.507 170.295 165.232C170.361 164.957 170.368 164.671 170.316 164.394C169.953 162.731 167.122 161.553 165.608 161.405C165.514 161.405 164.416 161.405 163.816 161.428C164.313 161.132 164.815 160.841 165.312 160.532C166.75 159.636 168.175 158.655 169.599 157.696C170.047 157.4 170.473 157.114 170.912 156.8C170.988 157.019 171.889 159.631 172.771 160.559C173.551 161.383 174.778 162.212 175.97 162.077C176.252 162.055 176.526 161.974 176.774 161.839C177.022 161.704 177.24 161.518 177.412 161.294C177.583 161.07 177.706 160.812 177.772 160.537C177.838 160.262 177.845 159.976 177.793 159.699C177.43 158.036 174.599 156.858 173.085 156.71C172.973 156.71 171.391 156.71 170.993 156.746C171.956 156.11 172.924 155.483 173.9 154.905C175.217 154.115 176.583 153.412 177.99 152.799C178.026 152.902 178.958 155.635 179.859 156.58C180.643 157.405 181.866 158.238 183.057 158.104C183.34 158.081 183.614 158 183.863 157.865C184.111 157.73 184.329 157.544 184.501 157.319C184.673 157.094 184.796 156.835 184.861 156.56C184.926 156.285 184.933 155.998 184.881 155.72C184.522 154.058 181.686 152.88 180.172 152.732C180.056 152.732 178.358 152.732 178.049 152.772C178.129 152.741 178.21 152.696 178.295 152.66C179.722 152.08 181.199 151.63 182.708 151.316C183.537 151.133 184.343 151.003 185.127 150.895C185.248 151.419 185.83 153.821 186.547 154.762C187.264 155.702 188.339 156.63 189.562 156.625C189.844 156.634 190.125 156.582 190.386 156.475C190.648 156.368 190.883 156.208 191.078 156.004C191.274 155.8 191.424 155.557 191.519 155.291C191.614 155.026 191.653 154.743 191.632 154.461C191.457 152.768 188.769 151.285 187.282 150.971C187.201 150.971 186.359 150.873 185.745 150.819C186.104 150.779 186.467 150.725 186.807 150.689C188.088 150.559 189.267 150.515 190.315 150.488C190.911 150.488 191.448 150.488 191.95 150.488C192.34 150.936 193.926 152.75 194.979 153.247C196.031 153.745 197.447 154.067 198.513 153.512C198.768 153.389 198.994 153.215 199.177 152.999C199.36 152.784 199.495 152.532 199.574 152.261C199.653 151.989 199.674 151.704 199.636 151.424C199.597 151.144 199.5 150.875 199.351 150.635C198.419 149.215 195.35 149.139 193.886 149.547C193.756 149.578 191.843 150.358 191.861 150.38L191.883 150.407C191.399 150.407 190.879 150.38 190.315 150.38C189.267 150.38 188.075 150.403 186.794 150.51C185.405 150.609 184.022 150.789 182.654 151.048C181.12 151.332 179.613 151.75 178.152 152.298L178.102 152.32C178.492 152.011 179.554 151.106 179.63 151.03C180.665 149.919 182.022 147.163 181.194 145.654C181.05 145.41 180.856 145.2 180.626 145.036C180.395 144.872 180.133 144.759 179.855 144.704C179.578 144.648 179.292 144.652 179.016 144.715C178.741 144.777 178.481 144.897 178.255 145.067C177.269 145.752 176.911 147.186 176.853 148.319C176.803 149.601 177.852 152.168 177.937 152.351C176.464 152.947 175.033 153.641 173.654 154.43C172.852 154.878 172.054 155.366 171.257 155.859C171.589 155.581 171.88 155.326 171.916 155.286C172.955 154.179 174.308 151.424 173.484 149.937C173.34 149.693 173.146 149.483 172.916 149.319C172.685 149.155 172.423 149.042 172.145 148.987C171.868 148.931 171.582 148.935 171.306 148.997C171.03 149.06 170.771 149.18 170.545 149.35C169.559 150.035 169.201 151.469 169.142 152.602C169.084 153.736 169.944 155.962 170.177 156.545L169.281 157.118C167.834 158.045 166.396 158.982 164.954 159.855C164.447 160.16 163.937 160.447 163.426 160.751C163.717 160.5 163.959 160.303 163.995 160.254C165.034 159.143 166.387 156.388 165.563 154.9C165.418 154.657 165.224 154.447 164.993 154.284C164.762 154.121 164.499 154.008 164.222 153.952C163.944 153.897 163.658 153.901 163.382 153.963C163.106 154.025 162.846 154.145 162.62 154.314C161.634 154.999 161.276 156.433 161.217 157.566C161.159 158.699 161.943 160.702 162.216 161.405C161.683 161.683 161.15 161.961 160.622 162.207C160.259 162.364 159.918 162.543 159.546 162.682L158.453 163.13C157.745 163.381 157.024 163.641 156.33 163.869C155.846 164.031 155.384 164.174 154.923 164.317C155.429 164.017 156.415 163.421 156.491 163.345C157.511 162.481 158.292 161.368 158.758 160.115C158.876 160.024 158.986 159.922 159.085 159.811C159.279 159.605 159.427 159.361 159.52 159.094C159.613 158.827 159.649 158.544 159.625 158.263C159.601 157.981 159.519 157.708 159.383 157.461C159.246 157.213 159.059 156.997 158.834 156.827C157.45 155.837 154.56 156.867 153.342 157.772C153.265 157.826 152.553 158.493 152.105 158.919C152.329 158.628 152.553 158.35 152.777 158.045C153.225 157.45 153.673 156.84 154.121 156.191L154.771 155.21C154.995 154.891 155.192 154.52 155.407 154.175C155.886 153.355 156.33 152.504 156.751 151.639C157.275 152.033 159.152 153.404 160.263 153.659C161.374 153.915 162.848 153.933 163.771 153.162C163.994 152.988 164.178 152.77 164.31 152.52C164.443 152.271 164.522 151.996 164.541 151.714C164.561 151.432 164.52 151.149 164.423 150.884C164.326 150.619 164.174 150.377 163.977 150.174C162.758 148.982 159.743 149.565 158.399 150.277C158.319 150.322 157.409 150.94 156.917 151.285C157.172 150.765 157.432 150.241 157.669 149.704C158.364 148.154 159.013 146.568 159.676 144.973C159.878 144.489 160.084 144.005 160.29 143.521C160.478 143.665 162.669 145.345 163.914 145.631C165.021 145.887 166.499 145.905 167.422 145.134C167.645 144.96 167.829 144.741 167.962 144.491C168.094 144.241 168.173 143.966 168.193 143.684C168.212 143.401 168.172 143.118 168.075 142.852C167.977 142.587 167.825 142.344 167.628 142.141C166.41 140.954 163.399 141.537 162.055 142.244C161.952 142.298 160.648 143.19 160.33 143.432C160.778 142.37 161.226 141.313 161.737 140.296C162.398 138.913 163.146 137.573 163.977 136.286C164.062 136.353 166.347 138.114 167.619 138.41C168.726 138.665 170.209 138.683 171.127 137.912C171.35 137.738 171.534 137.519 171.667 137.269C171.799 137.019 171.878 136.744 171.897 136.462C171.917 136.18 171.877 135.896 171.78 135.631C171.682 135.365 171.53 135.123 171.333 134.92C170.119 133.732 167.104 134.315 165.76 135.023C165.653 135.081 164.25 136.04 164.013 136.232C164.058 136.156 164.102 136.075 164.152 135.999C165.028 134.734 166.015 133.548 167.1 132.456C167.691 131.842 168.291 131.291 168.892 130.771C169.281 131.143 171.091 132.823 172.207 133.213C173.322 133.603 174.747 133.768 175.75 133.105C175.991 132.956 176.197 132.758 176.356 132.524C176.515 132.29 176.623 132.026 176.673 131.748C176.724 131.469 176.715 131.184 176.648 130.909C176.581 130.634 176.457 130.377 176.284 130.153C175.204 128.84 172.144 129.087 170.728 129.647C170.652 129.674 169.904 130.095 169.384 130.368C169.653 130.135 169.931 129.889 170.195 129.674C171.19 128.858 172.153 128.168 173.009 127.568C173.497 127.227 173.95 126.932 174.353 126.672C174.926 126.833 177.251 127.469 178.385 127.304C179.518 127.138 180.894 126.627 181.476 125.574C181.62 125.331 181.712 125.06 181.745 124.779C181.778 124.498 181.751 124.213 181.666 123.943C181.582 123.673 181.441 123.424 181.254 123.212C181.067 123 180.837 122.829 180.58 122.712C179.012 122.044 176.414 123.67 175.414 124.817C175.329 124.916 174.16 126.609 174.187 126.609H174.223C173.811 126.865 173.372 127.142 172.879 127.456C172.01 128.038 171.029 128.706 170.016 129.503C168.919 130.354 167.872 131.266 166.88 132.236C165.758 133.319 164.734 134.498 163.82 135.762L163.789 135.811C163.941 135.336 164.331 134.019 164.349 133.889C164.6 132.388 164.21 129.347 162.7 128.563C162.446 128.438 162.169 128.369 161.887 128.359C161.604 128.35 161.323 128.4 161.061 128.506C160.799 128.613 160.563 128.773 160.367 128.978C160.172 129.182 160.022 129.425 159.927 129.691C159.479 130.807 159.963 132.209 160.55 133.181C161.213 134.275 163.507 135.838 163.686 135.963C162.787 137.272 161.977 138.64 161.262 140.058C160.841 140.883 160.442 141.725 160.053 142.571C160.174 142.159 160.277 141.787 160.286 141.734C160.541 140.233 160.151 137.191 158.641 136.407C158.387 136.283 158.11 136.213 157.827 136.204C157.544 136.194 157.262 136.244 157 136.35C156.738 136.457 156.501 136.618 156.305 136.822C156.11 137.026 155.959 137.27 155.864 137.536C155.416 138.651 155.9 140.054 156.486 141.026C157.073 141.998 159.013 143.382 159.528 143.741C159.381 144.068 159.233 144.39 159.08 144.722C158.386 146.294 157.696 147.858 156.979 149.39C156.724 149.928 156.455 150.447 156.186 150.967C156.294 150.6 156.379 150.286 156.388 150.237C156.643 148.74 156.254 145.694 154.739 144.91C154.485 144.787 154.208 144.719 153.925 144.711C153.643 144.702 153.362 144.753 153.1 144.86C152.839 144.966 152.603 145.127 152.408 145.331C152.212 145.535 152.062 145.778 151.966 146.043C151.518 147.159 152.002 148.557 152.589 149.529C153.176 150.501 154.927 151.769 155.537 152.181C155.246 152.705 154.959 153.229 154.641 153.727C154.421 154.058 154.238 154.394 154.005 154.717L153.328 155.684C152.88 156.28 152.432 156.899 151.984 157.476C151.67 157.875 151.366 158.251 151.061 158.628C151.317 158.099 151.805 157.046 151.832 156.952C152.311 155.514 152.387 152.445 151.016 151.437C150.783 151.278 150.519 151.168 150.241 151.117C149.963 151.066 149.678 151.073 149.403 151.139C149.128 151.205 148.87 151.328 148.646 151.499C148.421 151.671 148.235 151.888 148.1 152.136C147.491 153.171 147.755 154.632 148.19 155.68C148.664 156.831 150.609 158.664 150.851 158.888C150.398 159.537 149.896 160.142 149.413 160.702Z" fill="black"/>
<path d="M185.333 150.635C185.333 150.667 187.21 149.793 187.322 149.739C188.617 148.946 190.651 146.644 190.248 144.991C190.174 144.717 190.043 144.461 189.863 144.241C189.683 144.022 189.459 143.842 189.205 143.716C188.952 143.589 188.674 143.517 188.39 143.505C188.106 143.493 187.823 143.541 187.56 143.647C186.426 144.045 185.687 145.331 185.347 146.411C184.953 147.67 185.333 150.635 185.333 150.635Z" fill="black"/>
</g>
<path d="M146.63 134.857L116.95 122.416L141.989 62.2585L171.669 74.6995L146.63 134.857Z" fill="#D1D1D1" stroke="#263238" stroke-linecap="round" stroke-linejoin="round"/>
<path d="M165.711 80.8415C165.201 80.6306 164.743 80.3132 164.366 79.9106C163.99 79.508 163.704 79.0295 163.527 78.5072C163.351 77.9849 163.288 77.4308 163.343 76.8823C163.398 76.3337 163.57 75.8033 163.847 75.3267L146.823 68.1855C146.779 68.3377 146.727 68.4873 146.666 68.6335C146.47 69.1067 146.183 69.5364 145.82 69.8979C145.457 70.2593 145.026 70.5453 144.552 70.7394C144.078 70.9335 143.57 71.0318 143.058 71.0287C142.546 71.0256 142.04 70.9211 141.568 70.7212C141.492 70.6899 141.42 70.6495 141.349 70.6137L122.461 116.104C122.537 116.131 122.613 116.153 122.685 116.184C123.197 116.392 123.658 116.708 124.037 117.11C124.415 117.512 124.703 117.992 124.879 118.515C125.056 119.039 125.117 119.594 125.059 120.144C125.002 120.693 124.826 121.224 124.544 121.699L141.591 128.84C141.632 128.688 141.682 128.538 141.743 128.392C141.94 127.922 142.228 127.495 142.591 127.136C142.953 126.777 143.383 126.493 143.855 126.3C144.327 126.107 144.832 126.009 145.343 126.011C145.853 126.013 146.357 126.116 146.828 126.314C146.975 126.376 147.119 126.452 147.276 126.529L166.181 81.0028C166.021 80.9613 165.863 80.9074 165.711 80.8415ZM141.568 104.469C140.408 103.982 139.418 103.163 138.724 102.114C138.029 101.065 137.662 99.8333 137.667 98.5753C137.672 97.3172 138.051 96.089 138.754 95.0459C139.457 94.0029 140.454 93.1918 141.619 92.7151C142.783 92.2385 144.062 92.1178 145.295 92.3683C146.528 92.6188 147.659 93.2292 148.545 94.1223C149.431 95.0154 150.032 96.1512 150.273 97.3861C150.513 98.6209 150.382 99.8994 149.896 101.06C149.574 101.831 149.103 102.531 148.51 103.12C147.916 103.709 147.213 104.175 146.439 104.492C145.666 104.808 144.837 104.969 144.001 104.965C143.166 104.962 142.339 104.793 141.568 104.469Z" fill="white" stroke="#263238" stroke-linecap="round" stroke-linejoin="round"/>
<path d="M146.241 135.009L118.079 119.432L149.484 62.3347L177.645 77.9162L146.241 135.009Z" fill="#D1D1D1" stroke="#263238" stroke-linecap="round" stroke-linejoin="round"/>
<path d="M171.055 83.3728C170.609 83.1264 170.215 82.7943 169.897 82.3955C169.579 81.9968 169.343 81.5392 169.202 81.049C169.061 80.5589 169.018 80.0457 169.075 79.5388C169.133 79.032 169.289 78.5415 169.537 78.0954C169.618 77.9566 169.706 77.8221 169.801 77.6922L153.628 68.7322C153.57 68.8852 153.502 69.0348 153.427 69.1802C152.927 70.0804 152.091 70.7456 151.101 71.0295C150.112 71.3135 149.05 71.1929 148.149 70.6944C148.078 70.6569 148.009 70.615 147.943 70.569L124.244 113.747C124.317 113.778 124.389 113.812 124.459 113.85C125.36 114.349 126.026 115.185 126.311 116.175C126.596 117.164 126.476 118.226 125.978 119.128C125.898 119.268 125.81 119.402 125.713 119.531L141.882 128.491C141.942 128.338 142.01 128.188 142.088 128.043C142.334 127.596 142.666 127.203 143.065 126.885C143.464 126.567 143.921 126.33 144.412 126.189C144.902 126.048 145.415 126.005 145.922 126.063C146.429 126.12 146.919 126.277 147.365 126.524C147.505 126.604 147.639 126.693 147.768 126.789L171.512 83.5744C171.355 83.5182 171.203 83.4509 171.055 83.3728ZM144.507 104.254C143.405 103.645 142.509 102.722 141.931 101.603C141.354 100.484 141.121 99.2188 141.263 97.9676C141.405 96.7163 141.914 95.5352 142.727 94.5736C143.54 93.612 144.62 92.9131 145.83 92.5653C147.04 92.2174 148.327 92.2363 149.526 92.6195C150.725 93.0027 151.784 93.733 152.569 94.7181C153.353 95.7032 153.828 96.8987 153.933 98.1535C154.037 99.4084 153.768 100.666 153.158 101.768C152.34 103.244 150.969 104.336 149.347 104.802C147.725 105.268 145.984 105.071 144.507 104.254Z" fill="white" stroke="#263238" stroke-linecap="round" stroke-linejoin="round"/>
<path d="M145.721 135.144L119.988 115.817L158.991 63.616L184.724 82.9427L145.721 135.144Z" fill="#D1D1D1" stroke="#263238" stroke-linecap="round" stroke-linejoin="round"/>
<path d="M177.444 87.4361C177.033 87.1302 176.688 86.7461 176.426 86.3059C176.165 85.8658 175.993 85.3782 175.921 84.8714C175.849 84.3646 175.878 83.8485 176.006 83.353C176.135 82.8574 176.36 82.3921 176.669 81.984C176.766 81.8559 176.873 81.7347 176.987 81.6211L162.203 70.5197C162.122 70.6602 162.034 70.7963 161.939 70.9273C161.32 71.7494 160.4 72.2923 159.381 72.4368C158.362 72.5813 157.327 72.3155 156.504 71.6979C156.437 71.6486 156.379 71.5949 156.316 71.5456L126.869 111.023C126.936 111.068 127.004 111.108 127.066 111.158C127.889 111.777 128.433 112.697 128.579 113.717C128.724 114.736 128.459 115.772 127.841 116.596C127.744 116.725 127.637 116.846 127.523 116.959L142.307 128.056C142.384 127.916 142.471 127.781 142.567 127.653C142.874 127.245 143.257 126.902 143.697 126.643C144.136 126.383 144.622 126.213 145.127 126.141C145.632 126.07 146.146 126.098 146.64 126.226C147.134 126.353 147.598 126.576 148.006 126.883C148.134 126.978 148.255 127.083 148.369 127.196L177.856 87.7004C177.713 87.6211 177.576 87.5328 177.444 87.4361ZM148.261 104.46C147.255 103.704 146.495 102.666 146.078 101.478C145.661 100.29 145.606 99.0054 145.919 97.786C146.233 96.5666 146.901 95.4676 147.839 94.6278C148.776 93.7879 149.942 93.2451 151.189 93.0678C152.435 92.8906 153.706 93.0869 154.841 93.6319C155.976 94.1769 156.924 95.0463 157.565 96.1299C158.206 97.2136 158.511 98.4629 158.442 99.72C158.372 100.977 157.932 102.185 157.176 103.192C156.673 103.86 156.044 104.422 155.323 104.847C154.603 105.271 153.806 105.549 152.978 105.665C152.15 105.781 151.307 105.733 150.498 105.523C149.688 105.313 148.928 104.946 148.261 104.442V104.46Z" fill="white" stroke="#263238" stroke-linecap="round" stroke-linejoin="round"/>
<path d="M145.206 135.202L122.286 112.605L167.919 66.089L190.839 88.6861L145.206 135.202Z" fill="#D1D1D1" stroke="#263238" stroke-linecap="round" stroke-linejoin="round"/>
<path d="M183.021 92.1671C182.288 91.444 181.871 90.4592 181.864 89.4292C181.856 88.3992 182.258 87.4083 182.981 86.6746C183.096 86.5614 183.217 86.4552 183.344 86.3565L170.186 73.3645C170.088 73.4906 169.983 73.6117 169.873 73.7274C169.15 74.461 168.165 74.8774 167.135 74.885C166.105 74.8925 165.114 74.4906 164.38 73.7677C164.323 73.7113 164.269 73.6514 164.219 73.5885L129.754 108.779C129.812 108.833 129.875 108.882 129.933 108.94C130.667 109.663 131.083 110.648 131.091 111.678C131.099 112.708 130.697 113.699 129.974 114.433C129.857 114.545 129.736 114.652 129.611 114.751L142.769 127.743C142.866 127.613 142.972 127.49 143.087 127.375C143.444 127.012 143.87 126.723 144.339 126.525C144.809 126.326 145.313 126.222 145.822 126.218C146.332 126.214 146.837 126.311 147.31 126.503C147.782 126.694 148.212 126.977 148.575 127.335C148.688 127.45 148.794 127.571 148.893 127.698L183.389 92.4807C183.26 92.3834 183.138 92.2787 183.021 92.1671ZM151.832 105.114C150.936 104.231 150.323 103.101 150.069 101.869C149.816 100.637 149.933 99.3573 150.407 98.1919C150.88 97.0265 151.689 96.0276 152.73 95.3215C153.771 94.6155 154.998 94.2339 156.256 94.2252C157.514 94.2164 158.746 94.5808 159.797 95.2723C160.848 95.9637 161.67 96.9513 162.16 98.11C162.65 99.2687 162.785 100.547 162.549 101.782C162.312 103.018 161.715 104.155 160.832 105.052C160.245 105.647 159.547 106.121 158.777 106.446C158.007 106.772 157.181 106.942 156.345 106.948C155.509 106.954 154.68 106.795 153.906 106.48C153.131 106.166 152.427 105.701 151.832 105.114Z" fill="white" stroke="#263238" stroke-linecap="round" stroke-linejoin="round"/>
<path d="M116.063 130.162L74.8474 156.352L31.0195 87.1271L72.2355 60.937C72.9563 60.4794 73.8292 60.3266 74.6625 60.5123C75.4958 60.6979 76.2214 61.2068 76.6797 61.9271L117.071 125.718C117.297 126.076 117.45 126.475 117.522 126.892C117.593 127.309 117.582 127.736 117.488 128.149C117.395 128.561 117.221 128.952 116.976 129.297C116.732 129.643 116.421 129.936 116.063 130.162Z" fill="#A8A8A8" stroke="#263238" stroke-linecap="round" stroke-linejoin="round"/>
<path d="M114.903 130.207L73.6869 156.397L29.8635 87.1719L71.0795 60.9818C71.8003 60.5242 72.6732 60.3714 73.5065 60.5571C74.3398 60.7427 75.0654 61.2516 75.5237 61.9719L115.911 125.763C116.137 126.121 116.29 126.519 116.361 126.937C116.433 127.354 116.421 127.781 116.328 128.194C116.234 128.606 116.06 128.996 115.816 129.342C115.571 129.687 115.261 129.981 114.903 130.207Z" fill="white" stroke="#263238" stroke-linecap="round" stroke-linejoin="round"/>
<path d="M113.559 131.121L72.343 157.311L28.5151 88.0858L69.7311 61.8957C70.4526 61.4379 71.3262 61.285 72.1602 61.4706C72.9943 61.6562 73.7206 62.1652 74.1798 62.8858L114.567 126.677C114.793 127.034 114.946 127.433 115.017 127.851C115.089 128.268 115.077 128.695 114.984 129.107C114.89 129.52 114.716 129.91 114.472 130.256C114.227 130.601 113.917 130.895 113.559 131.121Z" fill="#A8A8A8" stroke="#263238" stroke-linecap="round" stroke-linejoin="round"/>
<path d="M50.5387 96.6919L47.3713 91.7101L48.6078 90.944C48.8499 90.7749 49.1331 90.6743 49.4277 90.6528C49.6765 90.6464 49.92 90.7255 50.1176 90.8768C50.3577 91.0567 50.5602 91.2819 50.7134 91.5399C50.8706 91.7702 50.9718 92.0341 51.0091 92.3104C51.0427 92.5537 50.9988 92.8013 50.8837 93.0183C50.7475 93.2609 50.5497 93.4634 50.3102 93.6051L49.7592 93.9501L51.2331 96.2707L50.5387 96.6919ZM49.4456 93.4304L49.7637 93.2288C49.9339 93.1343 50.0857 93.0099 50.2117 92.8615C50.2547 92.8063 50.2857 92.7427 50.3026 92.6748C50.3196 92.6069 50.3222 92.5362 50.3102 92.4672C50.2691 92.2784 50.1899 92.1001 50.0773 91.9431C49.967 91.755 49.833 91.5818 49.6785 91.4279C49.6287 91.3782 49.5678 91.3409 49.5009 91.3191C49.434 91.2973 49.3628 91.2916 49.2933 91.3024C49.0905 91.3506 48.8988 91.4373 48.7288 91.5578L48.4017 91.7639L49.4456 93.4304Z" fill="white"/>
<path d="M52.9895 95.1328L50.8794 89.4791L51.5514 89.0535L55.7805 93.3587L55.122 93.7754L54.096 92.6688L53.0836 93.3139L53.6391 94.7207L52.9895 95.1328ZM52.864 92.736L53.6928 92.2119L51.8471 90.2317L52.864 92.736Z" fill="white"/>
<path d="M57.4962 92.3463C57.2508 92.5162 56.9613 92.6111 56.663 92.6196C56.3914 92.6161 56.1268 92.5336 55.9014 92.3821C55.6459 92.2086 55.4243 91.99 55.2473 91.737L55.758 91.1815C55.8811 91.3419 56.0175 91.4918 56.1657 91.6295C56.2922 91.7525 56.4456 91.8445 56.6137 91.8983C56.7016 91.9169 56.7924 91.917 56.8804 91.8985C56.9683 91.88 57.0515 91.8433 57.1244 91.7908C57.203 91.7484 57.2716 91.6896 57.3257 91.6186C57.3798 91.5475 57.4181 91.4657 57.438 91.3786C57.4591 91.194 57.4094 91.0084 57.2991 90.8589C57.1857 90.6601 57.0114 90.503 56.8018 90.4109C56.5897 90.3346 56.3706 90.2791 56.1478 90.2452L54.8441 90.0391C54.6086 90.0058 54.3827 89.9234 54.181 89.7972C53.9717 89.6508 53.796 89.4614 53.6658 89.2416C53.5578 89.092 53.4818 88.9216 53.4424 88.7413C53.4031 88.5609 53.4014 88.3744 53.4374 88.1933C53.5384 87.8349 53.7766 87.5306 54.1004 87.3466C54.2749 87.2321 54.4672 87.1474 54.6694 87.0957C54.8415 87.0532 55.0214 87.0532 55.1935 87.0957C55.374 87.1464 55.5428 87.2316 55.6908 87.3466C55.8706 87.4916 56.033 87.6569 56.1746 87.8394L55.6863 88.377C55.5781 88.2302 55.4567 88.0938 55.3234 87.9693C55.2119 87.8629 55.0718 87.7913 54.9202 87.7632C54.7496 87.7522 54.58 87.7969 54.4369 87.8906C54.2939 87.9843 54.1852 88.122 54.1273 88.2829C54.1101 88.37 54.1116 88.4598 54.1316 88.5463C54.1517 88.6328 54.1899 88.7141 54.2438 88.7847C54.3207 88.916 54.4283 89.0267 54.5574 89.1072C54.6958 89.184 54.8481 89.2327 55.0054 89.2506L56.318 89.4567C56.6286 89.5 56.9308 89.5906 57.214 89.7255C57.5167 89.875 57.7701 90.1083 57.9442 90.3975C58.0881 90.6175 58.1744 90.8701 58.1951 91.1322C58.2057 91.3683 58.1498 91.6027 58.0338 91.8087C57.901 92.0289 57.7165 92.2135 57.4962 92.3463Z" fill="white"/>
<path d="M60.4038 90.496C60.1583 90.6659 59.8689 90.7609 59.5705 90.7693C59.3003 90.7663 59.0369 90.6837 58.8134 90.5319C58.556 90.3608 58.3339 90.1418 58.1593 89.8868L58.6879 89.3312C58.8098 89.4928 58.9463 89.6427 59.0956 89.7792C59.2219 89.9026 59.3753 89.9947 59.5436 90.048C59.6315 90.067 59.7224 90.0672 59.8104 90.0487C59.8984 90.0301 59.9815 89.9933 60.0543 89.9405C60.1334 89.8998 60.2024 89.8421 60.2566 89.7717C60.3108 89.7012 60.3488 89.6197 60.3679 89.5329C60.3914 89.3474 60.3434 89.1599 60.2335 89.0087C60.1173 88.8105 59.9418 88.6538 59.7318 88.5607C59.5212 88.4844 59.3036 88.4288 59.0822 88.3949L57.774 88.1889C57.5385 88.1555 57.3126 88.0731 57.111 87.9469C56.9016 87.8006 56.7259 87.6112 56.5958 87.3914C56.4877 87.2417 56.4117 87.0714 56.3724 86.891C56.3331 86.7107 56.3313 86.5241 56.3673 86.3431C56.4704 85.9855 56.7102 85.6829 57.0348 85.5009C57.2081 85.386 57.3987 85.2998 57.5993 85.2455C57.7727 85.2007 57.9546 85.2007 58.1279 85.2455C58.3082 85.2943 58.4771 85.378 58.6252 85.4919C58.8046 85.6358 58.9656 85.8014 59.1046 85.9847L58.6162 86.5223C58.5081 86.3755 58.3866 86.2391 58.2534 86.1146C58.143 86.0066 58.0024 85.9348 57.8502 85.9085C57.6799 85.8996 57.5113 85.9452 57.3687 86.0386C57.2261 86.1321 57.117 86.2685 57.0572 86.4282C57.0411 86.5154 57.0432 86.6049 57.0632 86.6912C57.0832 86.7775 57.1208 86.8588 57.1737 86.93C57.2519 87.0615 57.3592 87.1733 57.4873 87.257C57.628 87.3285 57.7792 87.3769 57.9353 87.4004L59.2479 87.602C59.549 87.6496 59.8417 87.7401 60.117 87.8708C60.4189 88.0216 60.672 88.2545 60.8473 88.5428C60.9932 88.7618 61.0796 89.015 61.0982 89.2775C61.1088 89.5136 61.0529 89.748 60.9369 89.954C60.8072 90.1763 60.624 90.3627 60.4038 90.496Z" fill="white"/>
<path d="M62.1017 89.3402L58.9343 84.3584L60.1708 83.5744C60.4117 83.4023 60.6954 83.3 60.9906 83.2787C61.2392 83.2745 61.482 83.3533 61.6806 83.5027C61.9208 83.6843 62.1232 83.9111 62.2764 84.1703C62.4354 84.3996 62.5368 84.6639 62.5721 84.9408C62.6056 85.1826 62.5617 85.4288 62.4466 85.6442C62.3117 85.8878 62.1136 86.0905 61.8732 86.231L61.3222 86.5805L62.7961 88.8966L62.1017 89.3402ZM61.0086 86.0832L61.3266 85.8771C61.4979 85.7842 61.65 85.6595 61.7746 85.5098C61.8171 85.4543 61.8475 85.3906 61.8637 85.3227C61.8799 85.2547 61.8816 85.1842 61.8687 85.1155C61.8276 84.9275 61.75 84.7494 61.6402 84.5914C61.5313 84.4037 61.3971 84.2319 61.2415 84.0806C61.1917 84.0309 61.1308 83.9937 61.0639 83.9719C60.9969 83.9501 60.9258 83.9444 60.8562 83.9552C60.6529 83.9993 60.4608 84.0847 60.2918 84.2061L59.9647 84.4166L61.0086 86.0832Z" fill="white"/>
<path d="M66.3621 86.7104C66.0895 86.9019 65.7676 87.0107 65.4348 87.024C65.1471 87.0203 64.8691 86.9193 64.6463 86.7373C64.3789 86.517 64.1502 86.2535 63.9698 85.9578L62.7692 84.0717C62.5791 83.7882 62.4425 83.4724 62.366 83.1399C62.3004 82.8678 62.3304 82.5815 62.4511 82.329C62.6077 82.0365 62.8437 81.7942 63.132 81.6301C63.4031 81.4383 63.7233 81.328 64.0549 81.312C64.3346 81.3129 64.6059 81.4075 64.8255 81.5808C65.0919 81.7908 65.318 82.0473 65.493 82.3379L66.6981 84.233C66.8857 84.5183 67.0236 84.8334 67.1058 85.1648C67.1721 85.4445 67.147 85.7382 67.0341 86.0026C66.8847 86.2995 66.6509 86.5457 66.3621 86.7104ZM66.0172 86.1639C66.171 86.0785 66.2923 85.9446 66.3621 85.783C66.412 85.6379 66.412 85.4802 66.3621 85.335C66.2972 85.1546 66.2099 84.983 66.1023 84.8243L64.718 82.6381C64.6168 82.4762 64.4981 82.326 64.364 82.1901C64.261 82.085 64.125 82.0185 63.9788 82.0019C63.8029 82.0016 63.6316 82.0582 63.4904 82.1632C63.3374 82.2482 63.2139 82.378 63.1365 82.535C63.0818 82.6794 63.0818 82.8387 63.1365 82.983C63.199 83.1615 63.2832 83.3315 63.3874 83.4893L64.7762 85.671C64.8766 85.8347 64.997 85.9852 65.1346 86.119C65.239 86.2287 65.3785 86.2984 65.5288 86.3162C65.7037 86.3191 65.8749 86.2657 66.0172 86.1639Z" fill="white"/>
<path d="M68.3693 85.3575L65.2019 80.3757L66.2054 79.7351C66.4769 79.5498 66.7809 79.4176 67.1014 79.3453C67.3582 79.2943 67.6247 79.3355 67.8541 79.4618C68.12 79.6274 68.3402 79.8568 68.4947 80.1293C68.6109 80.3043 68.7028 80.4942 68.768 80.6938C68.8282 80.8615 68.8481 81.0411 68.8262 81.2179C68.7992 81.3831 68.728 81.538 68.6201 81.6659L70.9139 83.7133L70.2464 84.1389L68.1094 82.217L67.5674 82.5575L69.0502 84.896L68.3693 85.3575ZM67.2627 82.0781L67.527 81.9124C67.6992 81.815 67.8512 81.6858 67.975 81.5316C68.0634 81.4101 68.1019 81.2594 68.0825 81.1104C68.0474 80.9109 67.9695 80.7214 67.8541 80.5549C67.7308 80.3218 67.5339 80.1359 67.2941 80.0263C67.1602 80.0047 67.0232 80.0124 66.8925 80.0487C66.7618 80.0851 66.6405 80.1492 66.5369 80.2368L66.2278 80.4295L67.2627 82.0781Z" fill="white"/>
<path d="M72.1279 82.9787L69.2876 78.4987L68.4454 79.0363L68.0959 78.5345L70.4524 77.0337L70.7795 77.5534L69.9596 78.0731L72.7999 82.5531L72.1279 82.9787Z" fill="white"/>
<path d="M89.9691 113.976C91.9278 105.578 86.7084 97.1833 78.3111 95.2245C69.9138 93.2658 61.5186 98.4852 59.5598 106.883C57.6011 115.28 62.8205 123.675 71.2178 125.634C79.6151 127.593 88.0103 122.373 89.9691 113.976Z" stroke="white" stroke-miterlimit="10"/>
<path d="M83.1349 123.609C86.2546 121.626 85.034 114.119 80.4087 106.842C75.7833 99.5648 69.5047 95.2729 66.385 97.2558C63.2653 99.2386 64.4859 106.745 69.1113 114.023C73.7366 121.3 80.0152 125.592 83.1349 123.609Z" stroke="white" stroke-miterlimit="10"/>
<path d="M60.8025 103.636L74.6233 94.8506" stroke="white" stroke-miterlimit="10"/>
<path d="M59.248 112.542L83.346 97.2206" stroke="white" stroke-miterlimit="10"/>
<path d="M66.2546 123.572L90.357 108.25" stroke="white" stroke-miterlimit="10"/>
<path d="M61.5552 118.819L88.0544 101.978" stroke="white" stroke-miterlimit="10"/>
<path d="M75.1072 126.139L88.928 117.354" stroke="white" stroke-miterlimit="10"/>
<path d="M147.522 196.32C167.061 176.781 167.061 145.102 147.522 125.563C127.983 106.024 96.3043 106.024 76.7654 125.563C57.2264 145.102 57.2264 176.781 76.7654 196.32C96.3043 215.859 127.983 215.859 147.522 196.32Z" fill="#407BFF" stroke="#263238" stroke-linecap="round" stroke-linejoin="round"/>
<path d="M102.095 207.231C104.777 207.815 107.505 208.163 110.248 208.271" stroke="#263238" stroke-linecap="round" stroke-linejoin="round"/>
<path d="M95.9617 205.453C97.3206 205.946 98.7004 206.379 100.101 206.752" stroke="#263238" stroke-linecap="round" stroke-linejoin="round"/>
<path d="M66.5862 147.983C63.4028 159.197 64.4645 171.19 69.5681 181.67C74.6717 192.15 83.4592 200.381 94.2502 204.79" stroke="#263238" stroke-linecap="round" stroke-linejoin="round"/>
<path d="M72.9523 134.36C71.2413 136.882 69.7771 139.563 68.5798 142.365" stroke="#263238" stroke-linecap="round" stroke-linejoin="round"/>
<path d="M105.365 138.719L110.463 139.776L112.202 141.581L114.468 141.931L115.19 144.081L114.661 145.537L113.116 146.245L109.33 145.627L109.227 145.161L111.019 143.911L109.782 141.631L106.396 141.169L104.59 139.624L105.365 138.719Z" fill="white"/>
<path d="M146.469 185.786L142.437 185.105L137.536 184.486L133.952 185.284L130.435 185.333L126.909 186.968L124.849 187.551L123.572 187.833L121.448 189.764L119.334 191.206L115.75 189.93L115.839 186.502L113.689 186.131L111.373 186.646L110.79 185.678L110.562 183.541L109.491 182.564L107.919 183.156L107.713 184.419L105.768 184.97L103.564 183.272L102.251 180.643L103.273 177.009L106.682 176.494L107.793 177.103L109.182 176.794L110.692 175.365L112.3 175.491L115.185 178.627L115.969 178.331L115.145 175.715L114.141 174.478L113.886 172.238L117.761 169.434L117.389 165.016L118.908 163.094L119.804 160.093L120.915 159.604L123.191 157.275L123.101 156.321L121.274 156.849L120.722 155.998L119.446 156.28L117.578 157.176L118.169 155.46L121.968 153.4L122.667 152.154L124.853 154.34L126.13 155.156L127.649 154.331L126.618 152.987L123.8 151.787L120.324 149.278L116.986 147.934L114.101 148.091L112.448 147.002L110.477 146.944L110.347 147.459L110.862 150.873L111.583 151.926L111.364 155.868L108.631 154.524V152.822L105.943 152.203L104.599 151.16L104.532 148.136L107.354 144.955L106.969 142.119L105.719 142.518L104.675 141.658L103.936 140.009L103.098 140.072L103.04 142.016L101.817 142.531L100.352 138.616L99.2991 138.244L97.5071 137.908L95.8585 139.252L98.6675 140.941L99.5635 142.809L94.6937 140.605L91.1097 138.118L90.1823 135.041L86.9612 134.781L84.9811 136.801C84.4936 137.267 83.9822 137.706 83.4489 138.118C82.58 138.542 81.6817 138.903 80.7609 139.198L80.734 141.272L78.0908 141.98L78.606 143.203L83.0502 142.948L85.7919 144.892L86.6879 148.951L86.2086 152.826L87.2883 156.598L85.3036 163L86.4908 171.615L88.6143 176.252L90.9439 179.63L92.7359 179.473L91.7414 177.748L90.5094 176.561L89.3625 174.142L90.3526 173.694L92.9017 177.507L94.8863 180.961L95.5539 183.976L98.3494 186.153L102.959 188.16L109.348 188.442L111.588 189.786L113.38 191.332L115.75 192.143L118.438 192.273L120.96 191.587C120.96 191.587 121.103 192.774 121.229 193.352C121.354 193.93 120.171 196.264 120.171 196.264L119.414 198.867L120.906 201.21L123.688 201.685L128.106 204.597L129.898 204.933L130.283 206.671L130.664 207.437C139.359 203.979 146.905 198.141 152.436 190.593L152.311 189.737L154.179 183.362L152.441 182.654L146.469 185.786Z" fill="white"/>
<path d="M148.355 137.321L146.59 135.403L144.399 133.213L143.167 129.839L145.331 129.723L145.188 128.54L143.656 128.76L144.803 127.895L146.012 126.775L145.757 125.615L143.965 124.069L143.114 121.641C134.546 114.894 124.01 111.13 113.106 110.92C102.203 110.711 91.53 114.068 82.7097 120.481L85.8009 121.78L84.6451 124.23L82.544 125.18L82.992 128.361L82.1453 128.916L81.2493 130.449L81.8272 132.509L83.8521 132.303L83.4758 134.454L85.447 134.006L87.8573 128.97L87.7945 127.035L90.9888 126.085L91.4905 124.513L94.7744 123.419L94.6848 121.372L97.0905 120.714C97.0905 120.714 98.6272 119.401 98.9721 119.325C99.675 119.319 100.377 119.365 101.073 119.464L103.121 120.472L105.553 119.93L107.345 118.191L110.06 117.833C110.499 118.002 110.972 118.064 111.44 118.012C112.018 117.882 113.577 116.668 113.577 116.668L117.403 118.012L119.025 118.747L119.41 120.485L121.202 120.328L121.551 119.159L123.213 119.517L123.303 120.472L120.028 122.174L122.568 124.284L127.254 125.677L129.494 127.608L132.097 127.272L132.42 125.986L133.293 125.538L129.768 123.89L127.859 124.069L129.261 123.272L127.434 121.61L129.378 121.058L132.241 121.883L133.437 124.535L135.045 125.758L136.837 128.894L139.798 130.18L140.645 134.006L143.7 135.153L143.866 136.452V138.038L145.027 139.969L145.475 140.963L147.522 140.874L148.015 138.696L148.355 137.321Z" fill="white"/>
<path d="M147.266 125.31L147.414 125.978L147.249 127.958L147.956 129.503L149.336 129.687L149.825 131.887L148.306 131.618L149.345 137.953L148.521 140.815L150.17 143.853L151.984 144.91L153.377 151.182L155.962 155.716L158.408 159.067L161.231 159.17L161.643 156.643L161.956 156.267C161.76 154.187 161.435 152.12 160.984 150.08C158.904 140.67 154.139 132.066 147.266 125.31Z" fill="white"/>
<path d="M120.333 130.534L111.933 128.867L108.6 129.732L108.277 132.115L106.548 130.915L104.129 132.061L104.747 135.941L107.166 136.98L108.183 134.445L110.311 135.798L114.598 138.127L116.041 141.335L119.903 144.493L124.593 142.598L124.092 140.887L122.609 139.149L121.345 134.561L122.071 132.335L120.333 130.534Z" fill="white"/>
<path d="M127.156 131.69L125.315 131.613L124.092 133.226L125.651 136.407L127.156 136.071V131.69Z" fill="white"/>
<path d="M138.428 131.501L134.019 130.287L132.899 129.078L132.052 129.633L133.379 131.77L134.74 134.628L136.636 134.938L136.882 134.4L135.448 132.89L138.723 133.383L138.428 131.501Z" fill="white"/>
<path d="M113.873 180.862L113.51 181.431L117.219 181.7L118.971 183.012L121.224 182.757L121.753 181.301L118.984 181.431L113.873 180.862Z" fill="white"/>
<path d="M124.678 180.772L122.398 182.009L122.949 182.86L125.964 182.193L126.336 181.135L125.319 181.485L124.678 180.772Z" fill="white"/>
<path d="M105.365 138.719L110.463 139.776L112.202 141.581L114.468 141.931L115.19 144.081L114.661 145.537L113.116 146.245L109.33 145.627L109.227 145.161L111.019 143.911L109.782 141.631L106.396 141.169L104.59 139.624L105.365 138.719Z" stroke="#263238" stroke-linecap="round" stroke-linejoin="round"/>
<path d="M146.469 185.786L142.437 185.105L137.536 184.486L133.952 185.284L130.435 185.333L126.909 186.968L124.849 187.551L123.572 187.833L121.448 189.764L119.334 191.206L115.75 189.93L115.839 186.502L113.689 186.131L111.373 186.646L110.79 185.678L110.562 183.541L109.491 182.564L107.919 183.156L107.713 184.419L105.768 184.97L103.564 183.272L102.251 180.643L103.273 177.009L106.682 176.494L107.793 177.103L109.182 176.794L110.692 175.365L112.3 175.491L115.185 178.627L115.969 178.331L115.145 175.715L114.141 174.478L113.886 172.238L117.761 169.434L117.389 165.016L118.908 163.094L119.804 160.093L120.915 159.604L123.191 157.275L123.101 156.321L121.274 156.849L120.723 155.998L119.446 156.28L117.578 157.176L118.169 155.46L121.968 153.4L122.667 152.154L124.853 154.34L126.13 155.156L127.649 154.331L126.618 152.987L123.8 151.787L120.324 149.278L116.986 147.934L114.101 148.091L112.448 147.002L110.477 146.944L110.347 147.459L110.862 150.873L111.583 151.926L111.364 155.868L108.631 154.524V152.822L105.943 152.203L104.599 151.16L104.532 148.136L107.354 144.955L106.969 142.119L105.719 142.518L104.675 141.658L103.936 140.009L103.098 140.072L103.04 142.016L101.817 142.531L100.352 138.616L99.2991 138.244L97.5071 137.908L95.8585 139.252L98.6675 140.941L99.5635 142.809L94.6937 140.605L91.1097 138.118L90.1823 135.041L86.9612 134.781L84.9811 136.801C84.4936 137.267 83.9822 137.706 83.4489 138.118C82.58 138.542 81.6817 138.903 80.7609 139.198L80.734 141.272L78.0908 141.98L78.606 143.203L83.0502 142.948L85.7919 144.892L86.6879 148.951L86.2086 152.826L87.2883 156.598L85.3036 163L86.4908 171.615L88.6143 176.252L90.9439 179.63L92.7359 179.473L91.7414 177.748L90.5094 176.561L89.3625 174.142L90.3526 173.694L92.9017 177.507L94.8863 180.961L95.5539 183.976L98.3494 186.153L102.959 188.16L109.348 188.442L111.588 189.786L113.38 191.332L115.75 192.143L118.438 192.273L120.96 191.587C120.96 191.587 121.103 192.774 121.229 193.352C121.354 193.93 120.171 196.264 120.171 196.264L119.414 198.867L120.906 201.21L123.688 201.685L128.106 204.597L129.898 204.933L130.283 206.671L130.664 207.437C139.359 203.979 146.905 198.141 152.436 190.593L152.311 189.737L154.179 183.362L152.441 182.654L146.469 185.786Z" stroke="#263238" stroke-linecap="round" stroke-linejoin="round"/>
<path d="M148.355 137.321L146.59 135.403L144.399 133.213L143.167 129.839L145.331 129.723L145.188 128.54L143.656 128.76L144.803 127.895L146.012 126.775L145.757 125.615L143.965 124.069L143.114 121.641C134.546 114.894 124.01 111.13 113.106 110.92C102.203 110.711 91.53 114.068 82.7097 120.481L85.8009 121.78L84.6451 124.23L82.544 125.18L82.992 128.361L82.1453 128.916L81.2493 130.449L81.8272 132.509L83.8521 132.303L83.4758 134.454L85.447 134.006L87.8573 128.97L87.7945 127.035L90.9888 126.085L91.4905 124.513L94.7744 123.419L94.6848 121.372L97.0905 120.714C97.0905 120.714 98.6272 119.401 98.9721 119.325C99.675 119.319 100.377 119.365 101.073 119.464L103.121 120.472L105.553 119.93L107.345 118.191L110.06 117.833C110.499 118.002 110.972 118.064 111.44 118.012C112.018 117.882 113.577 116.668 113.577 116.668L117.403 118.012L119.025 118.747L119.41 120.485L121.202 120.328L121.551 119.159L123.213 119.517L123.303 120.472L120.028 122.174L122.568 124.284L127.254 125.677L129.494 127.608L132.097 127.272L132.42 125.986L133.293 125.538L129.768 123.89L127.859 124.069L129.261 123.272L127.434 121.61L129.378 121.058L132.241 121.883L133.437 124.535L135.045 125.758L136.837 128.894L139.798 130.18L140.645 134.006L143.7 135.153L143.866 136.452V138.038L145.027 139.969L145.475 140.963L147.522 140.874L148.015 138.696L148.355 137.321Z" stroke="#263238" stroke-linecap="round" stroke-linejoin="round"/>
<path d="M147.266 125.31L147.414 125.978L147.249 127.958L147.956 129.503L149.336 129.687L149.825 131.887L148.306 131.618L149.345 137.953L148.521 140.815L150.17 143.853L151.984 144.91L153.377 151.182L155.962 155.716L158.408 159.067L161.231 159.17L161.643 156.643L161.956 156.267C161.76 154.187 161.435 152.12 160.984 150.08C158.904 140.67 154.139 132.066 147.266 125.31Z" stroke="#263238" stroke-linecap="round" stroke-linejoin="round"/>
<path d="M120.333 130.534L111.933 128.867L108.6 129.732L108.277 132.115L106.548 130.915L104.129 132.061L104.747 135.941L107.166 136.98L108.183 134.445L110.311 135.798L114.598 138.127L116.041 141.335L119.903 144.493L124.593 142.598L124.092 140.887L122.609 139.149L121.345 134.561L122.071 132.335L120.333 130.534Z" stroke="#263238" stroke-linecap="round" stroke-linejoin="round"/>
<path d="M127.156 131.69L125.315 131.613L124.092 133.226L125.651 136.407L127.156 136.071V131.69Z" stroke="#263238" stroke-linecap="round" stroke-linejoin="round"/>
<path d="M138.428 131.501L134.019 130.287L132.899 129.078L132.052 129.633L133.379 131.77L134.74 134.628L136.636 134.938L136.882 134.4L135.448 132.89L138.723 133.383L138.428 131.501Z" stroke="#263238" stroke-linecap="round" stroke-linejoin="round"/>
<path d="M113.873 180.862L113.51 181.431L117.219 181.7L118.971 183.012L121.224 182.757L121.753 181.301L118.984 181.431L113.873 180.862Z" stroke="#263238" stroke-linecap="round" stroke-linejoin="round"/>
<path d="M124.678 180.772L122.398 182.009L122.949 182.86L125.964 182.193L126.336 181.135L125.319 181.485L124.678 180.772Z" stroke="#263238" stroke-linecap="round" stroke-linejoin="round"/>
<path d="M158.69 127.012C157.78 127.012 156.878 127.192 156.037 127.541C155.196 127.89 154.432 128.401 153.788 129.046C153.145 129.69 152.635 130.455 152.288 131.297C151.94 132.139 151.763 133.041 151.764 133.952C151.764 137.778 158.69 145.497 158.69 145.497C158.69 145.497 165.621 137.778 165.621 133.952C165.622 133.041 165.444 132.139 165.096 131.297C164.748 130.455 164.238 129.69 163.594 129.046C162.951 128.401 162.186 127.89 161.345 127.541C160.503 127.192 159.601 127.012 158.69 127.012ZM158.69 136.989C158.086 136.992 157.494 136.815 156.99 136.481C156.487 136.147 156.094 135.67 155.861 135.112C155.628 134.554 155.567 133.94 155.684 133.347C155.801 132.754 156.092 132.209 156.52 131.781C156.947 131.354 157.492 131.063 158.085 130.946C158.678 130.828 159.293 130.89 159.851 131.122C160.409 131.355 160.885 131.748 161.219 132.252C161.554 132.756 161.731 133.347 161.728 133.952C161.726 134.757 161.405 135.528 160.836 136.097C160.267 136.666 159.495 136.987 158.69 136.989Z" fill="#263238" stroke="#263238" stroke-miterlimit="10"/>
<path d="M104.944 144.794C103.341 144.794 101.804 145.43 100.671 146.564C99.5371 147.697 98.9004 149.234 98.9004 150.837C98.9004 154.175 104.944 160.908 104.944 160.908C104.944 160.908 110.987 154.188 110.987 150.837C110.987 149.234 110.351 147.697 109.217 146.564C108.084 145.43 106.547 144.794 104.944 144.794ZM104.944 153.498C104.418 153.498 103.903 153.342 103.465 153.05C103.028 152.757 102.687 152.342 102.485 151.855C102.284 151.369 102.231 150.834 102.334 150.318C102.437 149.802 102.69 149.328 103.062 148.955C103.434 148.583 103.909 148.33 104.425 148.227C104.941 148.124 105.476 148.177 105.962 148.379C106.449 148.58 106.864 148.921 107.157 149.359C107.449 149.796 107.605 150.311 107.605 150.837C107.605 151.543 107.325 152.22 106.826 152.719C106.327 153.218 105.65 153.498 104.944 153.498Z" fill="#263238" stroke="#263238" stroke-miterlimit="10"/>
<path d="M127.796 191.923C126.99 191.923 126.217 192.243 125.647 192.812C125.077 193.382 124.756 194.155 124.754 194.961C124.754 196.641 127.796 200.027 127.796 200.027C127.796 200.027 130.834 196.641 130.834 194.961C130.833 194.155 130.512 193.383 129.943 192.814C129.373 192.245 128.602 191.924 127.796 191.923ZM127.796 196.3C127.531 196.3 127.271 196.221 127.05 196.074C126.829 195.926 126.656 195.716 126.555 195.47C126.453 195.225 126.426 194.955 126.478 194.694C126.53 194.433 126.658 194.194 126.846 194.006C127.034 193.818 127.273 193.69 127.534 193.638C127.795 193.586 128.065 193.613 128.311 193.714C128.556 193.816 128.766 193.988 128.914 194.209C129.061 194.43 129.14 194.69 129.14 194.956C129.14 195.133 129.106 195.307 129.038 195.47C128.97 195.633 128.871 195.782 128.747 195.906C128.622 196.031 128.474 196.13 128.311 196.198C128.148 196.265 127.973 196.3 127.796 196.3Z" fill="#263238" stroke="#263238" stroke-miterlimit="10"/>
<path d="M89.9942 163.856C89.1882 163.857 88.4157 164.178 87.8462 164.748C87.2767 165.319 86.9568 166.092 86.9568 166.898C86.9568 168.578 89.9942 171.965 89.9942 171.965C89.9942 171.965 93.0361 168.578 93.0361 166.898C93.0361 166.091 92.7157 165.317 92.1452 164.747C91.5747 164.176 90.801 163.856 89.9942 163.856ZM89.9942 168.237C89.7284 168.237 89.4686 168.159 89.2475 168.011C89.0265 167.863 88.8543 167.653 88.7525 167.408C88.6508 167.162 88.6242 166.892 88.676 166.631C88.7279 166.37 88.8559 166.131 89.0439 165.943C89.2318 165.755 89.4713 165.627 89.732 165.575C89.9927 165.523 90.263 165.55 90.5085 165.652C90.7541 165.753 90.964 165.926 91.1117 166.147C91.2594 166.368 91.3382 166.628 91.3382 166.893C91.3382 167.25 91.1966 167.592 90.9446 167.844C90.6925 168.096 90.3507 168.237 89.9942 168.237Z" fill="#263238" stroke="#263238" stroke-miterlimit="10"/>
<path d="M100.746 176.651C100.347 176.651 99.9516 176.73 99.5828 176.883C99.214 177.035 98.8789 177.26 98.5968 177.542C98.3147 177.825 98.091 178.16 97.9387 178.529C97.7863 178.898 97.7082 179.294 97.7087 179.693C97.7087 181.373 100.746 184.76 100.746 184.76C100.746 184.76 103.788 181.373 103.788 179.693C103.788 178.886 103.468 178.112 102.897 177.542C102.327 176.971 101.553 176.651 100.746 176.651ZM100.746 181.032C100.48 181.032 100.221 180.953 99.9995 180.806C99.7785 180.658 99.6062 180.448 99.5045 180.203C99.4028 179.957 99.3761 179.687 99.428 179.426C99.4799 179.165 99.6079 178.926 99.7958 178.738C99.9838 178.55 100.223 178.422 100.484 178.37C100.745 178.318 101.015 178.345 101.261 178.447C101.506 178.548 101.716 178.721 101.864 178.942C102.011 179.163 102.09 179.423 102.09 179.688C102.09 180.045 101.949 180.387 101.697 180.639C101.444 180.891 101.103 181.032 100.746 181.032Z" fill="#263238" stroke="#263238" stroke-miterlimit="10"/>
<path d="M138.508 182.394C138.034 182.394 137.565 182.487 137.128 182.669C136.69 182.85 136.293 183.116 135.958 183.45C135.623 183.785 135.357 184.183 135.176 184.62C134.995 185.058 134.902 185.527 134.902 186.001C134.902 187.99 138.508 192.004 138.508 192.004C138.508 192.004 142.092 187.972 142.092 186.001C142.095 185.528 142.004 185.06 141.826 184.622C141.647 184.185 141.383 183.787 141.05 183.452C140.717 183.117 140.321 182.851 139.885 182.669C139.448 182.488 138.981 182.394 138.508 182.394ZM138.508 187.586C138.193 187.587 137.885 187.495 137.623 187.32C137.361 187.146 137.156 186.898 137.035 186.607C136.914 186.316 136.882 185.996 136.943 185.687C137.005 185.378 137.156 185.094 137.379 184.872C137.602 184.649 137.885 184.497 138.194 184.436C138.503 184.375 138.823 184.407 139.114 184.528C139.405 184.649 139.653 184.853 139.828 185.115C140.002 185.378 140.095 185.686 140.094 186.001C140.094 186.209 140.053 186.415 139.973 186.607C139.894 186.8 139.777 186.975 139.629 187.122C139.482 187.269 139.307 187.386 139.115 187.466C138.923 187.545 138.716 187.586 138.508 187.586Z" fill="#263238" stroke="#263238" stroke-miterlimit="10"/>
<path d="M138.244 113.487C137.395 113.487 136.582 113.824 135.982 114.424C135.382 115.024 135.045 115.838 135.045 116.686C135.045 118.478 138.244 122.022 138.244 122.022C138.244 122.022 141.447 118.438 141.447 116.686C141.446 115.837 141.108 115.024 140.507 114.424C139.906 113.824 139.092 113.487 138.244 113.487ZM138.244 118.097C137.965 118.097 137.692 118.014 137.46 117.859C137.228 117.704 137.047 117.484 136.94 117.226C136.833 116.968 136.805 116.684 136.86 116.411C136.914 116.137 137.048 115.886 137.246 115.688C137.443 115.491 137.695 115.356 137.968 115.302C138.242 115.247 138.526 115.275 138.784 115.382C139.042 115.489 139.262 115.67 139.417 115.902C139.572 116.134 139.655 116.407 139.655 116.686C139.655 117.06 139.506 117.419 139.242 117.684C138.977 117.949 138.618 118.097 138.244 118.097Z" fill="#263238" stroke="#263238" stroke-miterlimit="10"/>
<path d="M83.4578 133.504C83.0374 133.503 82.621 133.586 82.2324 133.746C81.8438 133.907 81.4906 134.142 81.1931 134.439C80.8956 134.736 80.6596 135.089 80.4986 135.477C80.3375 135.866 80.2546 136.282 80.2546 136.703C80.2546 138.472 83.4578 142.038 83.4578 142.038C83.4578 142.038 86.6566 138.454 86.6566 136.703C86.6566 135.854 86.3196 135.041 85.7197 134.441C85.1198 133.841 84.3062 133.504 83.4578 133.504ZM83.4578 138.114C83.1785 138.115 82.9053 138.033 82.6726 137.878C82.4399 137.724 82.2584 137.504 82.1509 137.246C82.0434 136.988 82.0148 136.704 82.0687 136.43C82.1227 136.156 82.2567 135.904 82.4539 135.706C82.6511 135.509 82.9025 135.374 83.1764 135.319C83.4503 135.264 83.7342 135.292 83.9924 135.398C84.2505 135.505 84.4711 135.686 84.6264 135.918C84.7817 136.15 84.8646 136.423 84.8646 136.703C84.8646 137.076 84.7165 137.434 84.4528 137.699C84.1891 137.963 83.8313 138.113 83.4578 138.114Z" fill="#263238" stroke="#263238" stroke-miterlimit="10"/>
<path d="M121.435 64.5702C121.435 64.5702 121.157 89.7926 121.157 93.959C121.157 98.1254 120.812 102.157 120.812 102.157C120.812 102.157 122.062 103.053 121.851 104.102C121.618 104.99 121.292 105.852 120.879 106.673C120.402 106.565 119.909 106.543 119.423 106.606C118.935 106.745 116.019 108.062 115.53 108.062C115.042 108.062 114.836 108.479 114.697 107.166C114.546 105.991 114.499 104.805 114.558 103.622C114.645 102.567 114.808 101.519 115.046 100.486L112.125 68.5977L111.431 99.6531C111.431 99.6531 111.57 101.53 111.78 101.893C112.056 102.39 112.244 102.931 112.336 103.492C112.336 103.837 111.709 107.103 111.44 107.242C111.171 107.381 110.329 107.869 110.329 107.869C110.329 107.869 109.773 107.731 109.007 106.758C108.241 105.786 106.44 105.862 106.091 105.992L105.741 106.131C105.741 106.131 104.702 104.881 104.491 103.976C104.281 103.071 105.674 103.004 105.603 100.571C105.531 98.1388 103.443 77.5039 103.443 77.5039L102.955 63.6159L121.574 63.0604L121.435 64.5702Z" fill="#263238" stroke="#263238" stroke-miterlimit="10"/>
<path d="M114.141 32.3322L106.709 32.8205L106.431 64.5702C106.431 64.5702 106.987 65.0586 111.57 65.1258C116.153 65.193 117.13 64.6419 117.13 64.6419L114.141 32.3322Z" fill="white" stroke="#263238" stroke-miterlimit="10"/>
<path d="M113.684 16.6969C113.684 16.6969 115.503 19.264 115.476 19.6537C115.425 20.0373 115.35 20.4173 115.252 20.7917C115.252 20.7917 117.233 22.8345 117.044 23.0003L115.942 23.9411C115.942 23.9411 115.974 25.8541 115.974 26.1497C115.974 26.4454 116.395 27.1891 116.265 27.4937C116.115 27.8262 115.907 28.1296 115.651 28.3897C115.423 28.5824 113.765 28.551 113.765 28.551L113.734 31.1808C113.734 31.1808 114.025 32.8384 113.765 33.4208C113.505 34.0032 112.757 34.4601 110.875 34.5587C108.994 34.6573 108.075 34.0166 107.524 33.5597C106.973 33.1027 107.045 28.9094 107.009 28.2598C106.973 27.6102 106.947 26.3737 106.588 25.8227C106.23 25.2717 103.9 21.3427 103.506 20.3661C103.112 19.3894 103.08 18.3859 103.828 17.5123C104.577 16.6387 105.517 16.2445 105.62 15.7561C105.723 15.2678 105.62 14.784 106.333 14.5555C106.851 14.4192 107.392 14.3857 107.923 14.4569C107.923 14.4569 109.29 12.8038 110.002 12.9965L110.719 13.1891C110.719 13.1891 112.699 12.6381 113.738 13.5161C114.778 14.3942 114.984 15.7875 113.684 16.6969Z" fill="white" stroke="#263238" stroke-miterlimit="10"/>
<path d="M114.056 21.2889C114.056 21.7011 114.182 22.0371 114.343 22.0371C114.504 22.0371 114.63 21.7011 114.63 21.2889C114.63 20.8767 114.5 20.5363 114.343 20.5363C114.186 20.5363 114.056 20.8723 114.056 21.2889Z" fill="#263238" stroke="#263238" stroke-miterlimit="10"/>
<path d="M105.598 15.7561C105.692 15.2678 105.598 14.784 106.31 14.5555C106.829 14.4192 107.369 14.3857 107.901 14.4569C107.901 14.4569 109.267 12.8038 109.98 12.9965L110.696 13.1891C110.696 13.1891 112.677 12.6381 113.716 13.5161C114.755 14.3942 114.984 15.7875 113.685 16.6969C113.685 16.6969 110.101 17.0867 110.549 17.7363C110.997 18.3859 111.198 18.9056 110.844 19.0803C110.49 19.255 108.864 20.0838 109.025 20.4736C109.187 20.8633 109.348 21.9027 109.124 21.9699C108.9 22.0371 108.927 21.9027 108.228 21.383C107.529 20.8633 106.732 21.2531 106.637 22.279C106.601 22.6524 106.69 23.0271 106.889 23.3448C107.089 23.6625 107.388 23.9053 107.74 24.0352C108.098 24.0979 107.901 25.3792 107.22 25.8541C107.064 25.9581 106.895 26.0423 106.718 26.1049C106.68 25.9942 106.63 25.8877 106.57 25.7869C106.212 25.2358 103.882 21.3069 103.488 20.3302C103.094 19.3536 103.062 18.3501 103.811 17.4765C104.559 16.6029 105.5 16.2445 105.598 15.7561Z" fill="#263238" stroke="#263238" stroke-miterlimit="10"/>
<path d="M115.584 24.9446C115.584 24.9446 114.123 25.2044 113.281 24.1696" stroke="#263238" stroke-miterlimit="10"/>
<path d="M113.747 28.551L110.759 27.6102L113.684 30.5625L113.747 28.551Z" fill="#263238" stroke="#263238" stroke-miterlimit="10"/>
<path d="M114.755 19.6358C114.755 19.6358 113.698 19.0579 113.084 19.927" stroke="#263238" stroke-miterlimit="10"/>
<path d="M121.681 44.4282C121.681 44.4282 125.736 51.2198 125.848 52.5325C125.96 53.8451 123.711 58.3565 123.052 58.5043C122.394 58.6522 120.53 56.5331 120.315 55.655C120.1 54.777 119.764 44.8672 120.149 44.007C120.534 43.1469 121.681 44.4282 121.681 44.4282Z" fill="#263238" stroke="#263238" stroke-miterlimit="10"/>
<path d="M114.957 32.256L118.845 32.5517C118.845 32.5517 120.987 32.0544 121.632 32.256C122.277 32.4576 131.448 35.9923 132.447 36.6912C133.446 37.3901 133.293 39.9257 133.042 40.9741C132.956 41.3398 132.755 41.668 132.468 41.9101C132.18 42.1522 131.823 42.2953 131.448 42.3181C131 42.3673 121.735 41.7715 121.735 41.7715L124.123 66.0352L119.141 67.648L115.606 68.096L113.859 37.8515L114.957 32.256Z" fill="#407BFF" stroke="#263238" stroke-miterlimit="10"/>
<path d="M113.684 30.567L114.957 32.256C114.957 32.256 115.105 34.7961 114.76 35.84C114.516 36.5438 114.216 37.2269 113.864 37.8829L112.269 34.1958C112.953 33.0801 113.432 31.8512 113.684 30.567Z" fill="#407BFF" stroke="#263238" stroke-miterlimit="10"/>
<path d="M107.52 38.8192L107.968 68.2035C107.968 68.2035 103.587 67.7107 102.144 67.1059C101.322 66.7626 100.517 66.3783 99.7337 65.9546C99.7337 65.9546 101.158 55.2026 101.212 54.3424C101.266 53.4822 101.266 52.752 101.266 52.752C101.266 52.752 98.0358 53.9034 96.8307 53.5226C95.6256 53.1418 95.4598 51.8784 95.5718 50.288C95.6355 49.4083 95.6444 48.5256 95.5987 47.6448C95.5987 47.3715 95.9257 42.8333 97.2429 39.4374C98.56 36.0416 97.7625 35.9341 98.6944 35.3338C99.6262 34.7334 106.418 32.3187 106.418 32.3187L107.184 33.9091L107.52 38.8192Z" fill="#407BFF" stroke="#263238" stroke-miterlimit="10"/>
<path d="M102.346 33.9629C102.346 33.9629 103.331 45.5751 102.18 49.4099L100.388 49.4682C100.5 50.8122 101.315 48.4243 101.535 41.1399C101.629 38.0039 100.222 34.6752 100.222 34.6752C100.911 34.3856 101.621 34.1475 102.346 33.9629Z" fill="#263238" stroke="#263238" stroke-miterlimit="10"/>
<path d="M107.135 30.7462C107.135 30.7462 107.784 32.3904 108.179 33.2371C108.573 34.0838 108.864 34.6348 108.864 34.6348L107.52 38.8191C106.96 37.271 106.548 35.6736 106.288 34.0479C106.086 32.1529 105.907 32.4441 105.907 32.4441C105.907 32.4441 106.785 30.3967 107.135 30.7462Z" fill="#407BFF" stroke="#263238" stroke-miterlimit="10"/>
<path d="M120.637 25.2672C120.235 25.1295 119.85 24.9445 119.491 24.7161C119.19 24.4697 118.595 23.52 118.393 23.3228C118.191 23.1257 117.206 23.4707 117.049 23.0003C116.892 22.5299 116.78 22.046 117.371 22.1849C117.956 22.2899 118.547 22.3528 119.141 22.3731L118.205 19.3132H122.501C122.501 19.3132 123.747 23.5513 123.747 23.8963C123.712 24.2832 123.646 24.6667 123.549 25.0432C123.549 25.0432 129.427 31.6198 130.673 33.264C131.918 34.9081 133.464 37.1526 133.616 37.9993C133.768 38.846 133.316 41.534 132.272 41.8835C131.228 42.2329 130.278 41.8342 129.185 40.7904C128.092 39.7465 124.799 33.0176 124.651 32.7667C124.504 32.5158 121.963 26.2393 121.811 26.0467C121.443 25.7535 121.05 25.4927 120.637 25.2672Z" fill="white" stroke="#263238" stroke-miterlimit="10"/>
<path d="M118.451 32.592C118.451 32.592 119.71 40.8128 121.081 44.8672C122.452 48.9216 123.599 51.4931 123.599 51.4931L122.998 55.0771C121.378 52.1465 120.004 49.0866 118.89 45.929C117.026 40.6694 115.987 32.4531 115.987 32.4531L118.451 32.592Z" fill="#263238" stroke="#263238" stroke-miterlimit="10"/>
<path d="M107.484 40.4678L108.963 53.5897L100.531 52.5907L98.3315 39.5135L107.484 40.4678Z" fill="white" stroke="#263238" stroke-miterlimit="10"/>
<path d="M106.4 40.535L109.084 53.4643L100.589 53.2448L97.1936 40.4275L106.4 40.535Z" fill="white" stroke="#263238" stroke-miterlimit="10"/>
<path d="M98.1791 47.9898C99.104 48.4886 100.055 48.9373 101.028 49.3338C101.467 49.5087 101.938 49.5895 102.411 49.5709C102.883 49.5524 103.346 49.435 103.77 49.2262C104.25 49.0062 104.679 48.6889 105.029 48.2944C105.029 48.2944 105.302 46.816 105.629 46.5965C105.956 46.377 106.727 46.2112 107.054 45.7005C107.381 45.1898 107.547 45.2525 107.659 45.7542C107.771 46.256 107.878 46.7981 107.547 47.0176C107.354 47.1441 107.218 47.3398 107.166 47.5642C107.166 47.5642 107.22 47.9495 107.659 47.7837C108.098 47.6179 108.371 47.0714 108.81 47.2371C108.907 47.253 108.998 47.2915 109.077 47.3494C109.155 47.4074 109.219 47.4833 109.263 47.5707C109.307 47.6582 109.329 47.7547 109.328 47.8525C109.327 47.9503 109.303 48.0464 109.258 48.1331C109.133 48.4019 108.983 48.6583 108.81 48.8992C108.81 48.8992 109.357 50.1626 109.083 50.9824C108.81 51.8023 107.439 52.2995 106.781 52.3533C106.122 52.407 104.263 52.4608 104.263 52.4608C104.263 52.4608 101.575 53.3568 99.9353 53.8317C98.2956 54.3066 97.7983 54.217 96.8665 53.5046C96.387 53.1343 96.0346 52.624 95.858 52.0445C95.6815 51.465 95.6894 50.8449 95.8809 50.2701C96.2617 48.9754 96.7007 48.2631 98.1791 47.9898Z" fill="white" stroke="#263238" stroke-miterlimit="10"/>
<path d="M120.463 105.634C120.463 105.634 121.359 107.784 121.574 108.201C122.036 108.949 122.682 109.566 123.451 109.993C124.495 110.616 125.745 111.032 125.467 111.588C125.189 112.143 123.939 112.282 122.895 112.421C121.851 112.56 119.423 112.143 118.447 112.143C117.47 112.143 115.311 111.798 115.113 111.31C114.916 110.822 115.185 107.35 115.185 107.35C115.185 107.35 116.78 105.562 120.463 105.634Z" fill="white" stroke="#263238" stroke-miterlimit="10"/>
<path d="M115.136 111.328C115.059 110.954 115.033 110.571 115.06 110.19L117.564 110.934C119.096 111.318 120.658 111.572 122.232 111.695C123.32 111.751 124.407 111.581 125.427 111.198C125.478 111.251 125.511 111.319 125.522 111.392C125.534 111.465 125.522 111.54 125.489 111.606C125.211 112.161 123.962 112.3 122.918 112.439C121.874 112.578 119.446 112.161 118.469 112.161C117.492 112.161 115.324 111.816 115.136 111.328Z" fill="white" stroke="#263238" stroke-miterlimit="10"/>
<path d="M110.535 107.52C110.535 107.52 110.329 111.104 110.28 111.364C110.23 111.624 109.975 111.812 109.267 111.897C108.559 111.982 108.25 111.946 107.847 112.143C107.444 112.34 106.579 112.775 104.147 112.775C101.714 112.775 100.952 112.327 101.257 111.462C101.562 110.598 103.891 108.882 104.451 108.201C104.918 107.53 105.312 106.812 105.629 106.06C105.629 106.06 106.324 105.477 107.695 105.768C109.066 106.06 109.42 106.597 109.572 106.839C109.858 107.112 110.182 107.342 110.535 107.52Z" fill="white" stroke="#263238" stroke-miterlimit="10"/>
<path d="M101.248 111.48C101.269 111.423 101.294 111.368 101.324 111.315C101.561 111.566 101.844 111.77 102.157 111.915C103.053 112.363 106.673 112.112 107.484 111.673C108.411 111.265 109.366 110.925 110.342 110.656C110.315 111.041 110.293 111.328 110.28 111.391C110.23 111.633 109.975 111.839 109.267 111.924C108.559 112.009 108.25 111.973 107.847 112.17C107.444 112.367 106.579 112.802 104.146 112.802C101.714 112.802 100.952 112.354 101.248 111.48Z" fill="white" stroke="#263238" stroke-miterlimit="10"/>
<path d="M117.062 19.9987L120.378 19.7792V22.3731L117.062 22.1536C116.906 22.1536 116.776 21.6742 116.776 21.0784C116.776 20.4825 116.928 19.9987 117.062 19.9987Z" fill="white" stroke="#263238" stroke-miterlimit="10"/>
<path d="M116.153 19.7389H117.197C117.224 19.7391 117.25 19.7459 117.274 19.7588C117.298 19.7716 117.318 19.7902 117.333 19.8127C117.349 19.8352 117.358 19.8611 117.36 19.8881C117.363 19.9151 117.359 19.9423 117.349 19.9674C117.235 20.3263 117.182 20.7019 117.192 21.0784C117.181 21.4535 117.234 21.8277 117.349 22.185C117.359 22.2101 117.363 22.2373 117.36 22.2642C117.358 22.2912 117.349 22.3171 117.333 22.3396C117.318 22.3622 117.298 22.3807 117.274 22.3936C117.25 22.4064 117.224 22.4133 117.197 22.4135H116.153C115.956 22.4135 115.794 21.8131 115.794 21.0695C115.794 20.3258 115.956 19.7389 116.153 19.7389Z" fill="white" stroke="#263238" stroke-miterlimit="10"/>
<path d="M119.441 19.3132L126.641 18.9548V23.2019L119.441 22.848C119.181 22.848 118.993 22.055 118.993 21.0828C118.993 20.1107 119.168 19.3132 119.441 19.3132Z" fill="white" stroke="#263238" stroke-miterlimit="10"/>
<path d="M126.076 21.0784C126.076 22.2476 126.332 23.2019 126.641 23.2019C126.95 23.2019 127.205 22.2476 127.205 21.0784C127.205 19.9091 126.954 18.9548 126.641 18.9548C126.327 18.9548 126.076 19.9046 126.076 21.0784Z" fill="white" stroke="#263238" stroke-miterlimit="10"/>
<path d="M115.804 19.9987L119.119 19.7792V22.3731L115.804 22.1536C115.647 22.1536 115.517 21.6742 115.517 21.0784C115.517 20.4825 115.647 19.9987 115.804 19.9987Z" fill="#263238" stroke="#263238" stroke-miterlimit="10"/>
<path d="M114.894 19.7389H115.938C115.965 19.7391 115.992 19.7459 116.015 19.7588C116.039 19.7716 116.06 19.7902 116.075 19.8127C116.09 19.8352 116.099 19.8611 116.102 19.8881C116.104 19.9151 116.1 19.9423 116.09 19.9674C115.978 20.3266 115.926 20.7022 115.938 21.0784C115.926 21.4532 115.977 21.8274 116.09 22.185C116.1 22.2101 116.104 22.2373 116.102 22.2642C116.099 22.2912 116.09 22.3171 116.075 22.3396C116.06 22.3622 116.039 22.3807 116.015 22.3936C115.992 22.4064 115.965 22.4133 115.938 22.4135H114.894C114.697 22.4135 114.536 21.8131 114.536 21.0695C114.536 20.3258 114.688 19.7389 114.894 19.7389Z" fill="white" stroke="#263238" stroke-miterlimit="10"/>
<path d="M118.182 19.3132L125.382 18.9548V23.2019L118.182 22.848C117.927 22.848 117.734 22.055 117.734 21.0828C117.734 20.1107 117.927 19.3132 118.182 19.3132Z" fill="#263238" stroke="#263238" stroke-miterlimit="10"/>
<path d="M124.817 21.0784C124.817 22.2476 125.073 23.2019 125.382 23.2019C125.691 23.2019 125.946 22.2476 125.946 21.0784C125.946 19.9091 125.695 18.9548 125.382 18.9548C125.068 18.9548 124.817 19.9046 124.817 21.0784Z" fill="white" stroke="#263238" stroke-miterlimit="10"/>
<path d="M122.358 19.0579C122.358 19.0579 121.43 18.0588 121.085 18.0588C120.74 18.0588 120.189 18.9548 120.091 19.0579C119.992 19.1609 120.055 19.3312 120.431 19.367C120.718 19.3576 120.995 19.2607 121.224 19.0892L122.358 19.0579Z" fill="white" stroke="#263238" stroke-miterlimit="10"/>
<path d="M121.085 18.0589C120.614 17.9374 120.13 17.8683 119.643 17.8528C119.365 17.92 118.85 19.0893 118.953 19.264C119.056 19.4387 120.091 19.0579 120.091 19.0579C120.091 19.0579 120.776 18.023 121.085 18.0589Z" fill="white" stroke="#263238" stroke-miterlimit="10"/>
<path d="M119.401 17.9558C119.401 17.9558 118.85 17.6109 118.577 17.8528C118.303 18.0947 117.717 18.919 117.855 19.2281C117.994 19.5373 118.953 19.264 118.953 19.264C118.953 19.264 119.168 18.0589 119.401 17.9558Z" fill="white" stroke="#263238" stroke-miterlimit="10"/>
<path d="M118.303 18.0588C118.303 18.0588 117.613 17.7856 117.371 18.0588C117.129 18.3321 116.516 19.1923 116.923 19.4028C117.331 19.6134 117.748 18.9907 117.748 18.9907L118.303 18.0588Z" fill="white" stroke="#263238" stroke-miterlimit="10"/>
</g>
<defs>
<clipPath id="clip0_357_7366">
<rect width="224" height="224" fill="white"/>
</clipPath>
</defs>
</svg>
